<svg width="95" height="21" viewBox="0 0 95 21" fill="none" xmlns="http://www.w3.org/2000/svg">
<path d="M90 0H31V21H90C92.7614 21 95 18.7614 95 16V5C95 2.23858 92.7614 0 90 0Z" fill="white"/>
<path d="M31 0H5C2.23858 0 0 2.23858 0 5V16C0 18.7614 2.23858 21 5 21H31V0Z" fill="black"/>
<path d="M15.5 3C11.3633 3 8 6.36328 8 10.5C8 14.6367 11.3633 18 15.5 18C16.8125 18 18.043 17.6602 19.1094 17.0742L13.6719 9.48047V13.7695H12.875V7.89844H13.6719L19.5898 16.7812C21.6406 15.4453 23 13.1367 23 10.5C23 6.36328 19.6367 3 15.5 3ZM18.0898 12.9141L17.2109 11.5898V7.89844H18.0898V12.9141Z" fill="white"/>
<path d="M51.115 6.89062V14H49.6502L46.7938 9.23438V14H45.3289V6.89062H46.7938L49.6551 11.6611V6.89062H51.115ZM55.029 14.0977C54.6188 14.0977 54.251 14.0326 53.9255 13.9023C53.5999 13.7689 53.3233 13.585 53.0954 13.3506C52.8708 13.1162 52.6983 12.8444 52.5778 12.5352C52.4574 12.2227 52.3971 11.8906 52.3971 11.5391V11.3438C52.3971 10.9434 52.4541 10.5771 52.568 10.2451C52.682 9.91309 52.8447 9.625 53.0563 9.38086C53.2712 9.13672 53.5316 8.94954 53.8376 8.81934C54.1436 8.68587 54.4886 8.61914 54.8727 8.61914C55.2471 8.61914 55.5791 8.68099 55.8688 8.80469C56.1585 8.92839 56.4011 9.10417 56.5964 9.33203C56.7949 9.5599 56.9447 9.83333 57.0456 10.1523C57.1465 10.4681 57.197 10.8197 57.197 11.207V11.793H52.9977V10.8555H55.8151V10.748C55.8151 10.5527 55.7793 10.3786 55.7077 10.2256C55.6393 10.0693 55.5352 9.94564 55.3952 9.85449C55.2552 9.76335 55.0762 9.71777 54.8581 9.71777C54.6725 9.71777 54.513 9.75846 54.3796 9.83984C54.2461 9.92122 54.1371 10.0352 54.0524 10.1816C53.971 10.3281 53.9092 10.5007 53.8669 10.6992C53.8278 10.8945 53.8083 11.1094 53.8083 11.3438V11.5391C53.8083 11.7507 53.8376 11.946 53.8962 12.125C53.958 12.304 54.0443 12.4587 54.155 12.5889C54.2689 12.7191 54.4056 12.82 54.5651 12.8916C54.7279 12.9632 54.9118 12.999 55.1169 12.999C55.3708 12.999 55.6068 12.9502 55.8249 12.8525C56.0462 12.7516 56.2367 12.6003 56.3962 12.3984L57.0798 13.1406C56.9691 13.3001 56.8177 13.4531 56.6257 13.5996C56.4369 13.7461 56.209 13.8665 55.9421 13.9609C55.6751 14.0521 55.3708 14.0977 55.029 14.0977ZM59.2505 8.7168L60.1246 10.3232L61.023 8.7168H62.522L61.0279 11.2998L62.5904 14H61.0865L60.1343 12.3008L59.1822 14H57.6783L59.2408 11.2998L57.7466 8.7168H59.2505ZM65.9135 8.7168V9.71289H62.8373V8.7168H65.9135ZM63.5991 7.41309H65.0053V12.4082C65.0053 12.5612 65.0248 12.6784 65.0639 12.7598C65.1062 12.8411 65.1681 12.8981 65.2495 12.9307C65.3308 12.96 65.4334 12.9746 65.5571 12.9746C65.645 12.9746 65.7231 12.9714 65.7914 12.9648C65.8631 12.9551 65.9233 12.9453 65.9721 12.9355L65.977 13.9707C65.8566 14.0098 65.7263 14.0407 65.5864 14.0635C65.4464 14.0863 65.2918 14.0977 65.1225 14.0977C64.8133 14.0977 64.5431 14.0472 64.312 13.9463C64.0841 13.8421 63.9083 13.6761 63.7846 13.4482C63.6609 13.2204 63.5991 12.9209 63.5991 12.5498V7.41309ZM69.9739 11.8174V6.89062H71.4339V11.8174C71.4339 12.2926 71.3297 12.7012 71.1214 13.043C70.9131 13.3815 70.6282 13.6419 70.2669 13.8242C69.9088 14.0065 69.5052 14.0977 69.056 14.0977C68.5905 14.0977 68.1787 14.0195 67.8206 13.8633C67.4626 13.707 67.181 13.4678 66.9759 13.1455C66.7708 12.82 66.6683 12.4082 66.6683 11.9102H68.138C68.138 12.1706 68.1738 12.3773 68.2454 12.5303C68.3203 12.6833 68.4261 12.7923 68.5628 12.8574C68.6995 12.9225 68.8639 12.9551 69.056 12.9551C69.2415 12.9551 69.4027 12.9111 69.5394 12.8232C69.6761 12.7354 69.7819 12.6068 69.8568 12.4375C69.9349 12.2682 69.9739 12.0615 69.9739 11.8174ZM75.7482 12.54C75.7482 12.4391 75.7189 12.348 75.6604 12.2666C75.6018 12.1852 75.4927 12.1104 75.3332 12.042C75.177 11.9704 74.9507 11.9053 74.6545 11.8467C74.3876 11.7881 74.1385 11.7148 73.9074 11.627C73.6796 11.5358 73.481 11.4268 73.3117 11.2998C73.1457 11.1729 73.0155 11.0231 72.9211 10.8506C72.8267 10.6748 72.7795 10.4746 72.7795 10.25C72.7795 10.0286 72.8267 9.82031 72.9211 9.625C73.0188 9.42969 73.1571 9.25716 73.3361 9.10742C73.5184 8.95443 73.7398 8.83561 74.0002 8.75098C74.2639 8.66309 74.5601 8.61914 74.8889 8.61914C75.3479 8.61914 75.7417 8.69238 76.0705 8.83887C76.4025 8.98535 76.6564 9.18717 76.8322 9.44434C77.0113 9.69824 77.1008 9.98796 77.1008 10.3135H75.6945C75.6945 10.1768 75.6652 10.0547 75.6066 9.94727C75.5513 9.83659 75.4634 9.75033 75.343 9.68848C75.2258 9.62337 75.0728 9.59082 74.884 9.59082C74.7277 9.59082 74.5926 9.61849 74.4787 9.67383C74.3648 9.72591 74.2769 9.79753 74.215 9.88867C74.1564 9.97656 74.1272 10.0742 74.1272 10.1816C74.1272 10.263 74.1434 10.3363 74.176 10.4014C74.2118 10.4632 74.2688 10.5202 74.3469 10.5723C74.425 10.6243 74.5259 10.6732 74.6496 10.7188C74.7766 10.7611 74.9328 10.8001 75.1184 10.8359C75.4992 10.9141 75.8394 11.0166 76.1389 11.1436C76.4383 11.2673 76.676 11.4365 76.8518 11.6514C77.0275 11.863 77.1154 12.1413 77.1154 12.4863C77.1154 12.7207 77.0633 12.9355 76.9592 13.1309C76.855 13.3262 76.7053 13.4971 76.51 13.6436C76.3147 13.7868 76.0803 13.8991 75.8068 13.9805C75.5367 14.0586 75.2323 14.0977 74.8938 14.0977C74.4022 14.0977 73.9855 14.0098 73.6438 13.834C73.3052 13.6582 73.048 13.4352 72.8723 13.165C72.6997 12.8916 72.6135 12.6117 72.6135 12.3252H73.9465C73.953 12.5173 74.0018 12.6719 74.093 12.7891C74.1874 12.9062 74.3062 12.9909 74.4494 13.043C74.5959 13.0951 74.7538 13.1211 74.923 13.1211C75.1053 13.1211 75.2567 13.0967 75.3772 13.0479C75.4976 12.9958 75.5887 12.9274 75.6506 12.8428C75.7157 12.7549 75.7482 12.654 75.7482 12.54Z" fill="black"/>
<path d="M90 0H5C2.23858 0 0 2.23858 0 5V16C0 18.7614 2.23857 21 5 21H90C92.7614 21 95 18.7614 95 16V5C95 2.23858 92.7614 0 90 0Z" fill="url(#paint0_linear_50_174)"/>
<defs>
<linearGradient id="paint0_linear_50_174" x1="0" y1="0" x2="0" y2="21" gradientUnits="userSpaceOnUse">
<stop stop-color="#BBBBBB" stop-opacity="0.1"/>
<stop offset="1" stop-opacity="0.1"/>
</linearGradient>
</defs>
</svg>
