<svg width="95" height="21" viewBox="0 0 95 21" fill="none" xmlns="http://www.w3.org/2000/svg">
<path d="M90 0H31V21H90C92.7614 21 95 18.7614 95 16V5C95 2.23858 92.7614 0 90 0Z" fill="white"/>
<path d="M31 0H5C2.23858 0 0 2.23858 0 5V16C0 18.7614 2.23858 21 5 21H31V0Z" fill="#61DAFB"/>
<path d="M48.5139 6.89062H51.1653C51.7089 6.89062 52.176 6.97201 52.5666 7.13477C52.9605 7.29753 53.2633 7.53841 53.4748 7.85742C53.6864 8.17643 53.7922 8.56868 53.7922 9.03418C53.7922 9.41504 53.7271 9.74219 53.5969 10.0156C53.47 10.2858 53.2893 10.512 53.0549 10.6943C52.8238 10.8734 52.552 11.0166 52.2395 11.124L51.7756 11.3682H49.4709L49.4612 10.2256H51.175C51.4322 10.2256 51.6454 10.18 51.8147 10.0889C51.984 9.99772 52.1109 9.87077 52.1955 9.70801C52.2834 9.54525 52.3274 9.35645 52.3274 9.1416C52.3274 8.91374 52.2851 8.7168 52.2004 8.55078C52.1158 8.38477 51.9872 8.25781 51.8147 8.16992C51.6422 8.08203 51.4257 8.03809 51.1653 8.03809H49.9788V14H48.5139V6.89062ZM52.4885 14L50.8674 10.8311L52.4153 10.8213L54.0559 13.9316V14H52.4885ZM57.5597 14.0977C57.1495 14.0977 56.7817 14.0326 56.4562 13.9023C56.1307 13.7689 55.854 13.585 55.6261 13.3506C55.4015 13.1162 55.229 12.8444 55.1085 12.5352C54.9881 12.2227 54.9279 11.8906 54.9279 11.5391V11.3438C54.9279 10.9434 54.9848 10.5771 55.0988 10.2451C55.2127 9.91309 55.3754 9.625 55.587 9.38086C55.8019 9.13672 56.0623 8.94954 56.3683 8.81934C56.6743 8.68587 57.0193 8.61914 57.4034 8.61914C57.7778 8.61914 58.1098 8.68099 58.3995 8.80469C58.6892 8.92839 58.9318 9.10417 59.1271 9.33203C59.3256 9.5599 59.4754 9.83333 59.5763 10.1523C59.6772 10.4681 59.7277 10.8197 59.7277 11.207V11.793H55.5284V10.8555H58.3458V10.748C58.3458 10.5527 58.31 10.3786 58.2384 10.2256C58.17 10.0693 58.0659 9.94564 57.9259 9.85449C57.7859 9.76335 57.6069 9.71777 57.3888 9.71777C57.2032 9.71777 57.0437 9.75846 56.9103 9.83984C56.7768 9.92122 56.6678 10.0352 56.5831 10.1816C56.5017 10.3281 56.4399 10.5007 56.3976 10.6992C56.3585 10.8945 56.339 11.1094 56.339 11.3438V11.5391C56.339 11.7507 56.3683 11.946 56.4269 12.125C56.4887 12.304 56.575 12.4587 56.6857 12.5889C56.7996 12.7191 56.9363 12.82 57.0958 12.8916C57.2586 12.9632 57.4425 12.999 57.6476 12.999C57.9015 12.999 58.1375 12.9502 58.3556 12.8525C58.5769 12.7516 58.7674 12.6003 58.9269 12.3984L59.6105 13.1406C59.4998 13.3001 59.3484 13.4531 59.1564 13.5996C58.9676 13.7461 58.7397 13.8665 58.4728 13.9609C58.2058 14.0521 57.9015 14.0977 57.5597 14.0977ZM63.5 12.8086V10.4551C63.5 10.2858 63.4723 10.141 63.417 10.0205C63.3617 9.89681 63.2754 9.80078 63.1582 9.73242C63.0443 9.66406 62.8962 9.62988 62.7139 9.62988C62.5576 9.62988 62.4225 9.65755 62.3086 9.71289C62.1947 9.76497 62.1068 9.84147 62.0449 9.94238C61.9831 10.04 61.9521 10.1556 61.9521 10.2891H60.5459C60.5459 10.0645 60.598 9.85124 60.7021 9.64941C60.8063 9.44759 60.9577 9.27018 61.1562 9.11719C61.3548 8.96094 61.5908 8.83887 61.8643 8.75098C62.141 8.66309 62.4502 8.61914 62.792 8.61914C63.2021 8.61914 63.5667 8.6875 63.8857 8.82422C64.2048 8.96094 64.4554 9.16602 64.6377 9.43945C64.8232 9.71289 64.916 10.0547 64.916 10.4648V12.7256C64.916 13.0153 64.9339 13.2529 64.9697 13.4385C65.0055 13.6208 65.0576 13.7803 65.126 13.917V14H63.7051C63.6367 13.8568 63.5846 13.6777 63.5488 13.4629C63.5163 13.2448 63.5 13.0267 63.5 12.8086ZM63.6855 10.7822L63.6953 11.5781H62.9092C62.7236 11.5781 62.5625 11.5993 62.4258 11.6416C62.2891 11.6839 62.1768 11.7441 62.0889 11.8223C62.001 11.8971 61.9359 11.985 61.8936 12.0859C61.8545 12.1868 61.835 12.2975 61.835 12.418C61.835 12.5384 61.8626 12.6475 61.918 12.7451C61.9733 12.8395 62.0531 12.9144 62.1572 12.9697C62.2614 13.0218 62.3835 13.0479 62.5234 13.0479C62.735 13.0479 62.9189 13.0055 63.0752 12.9209C63.2314 12.8363 63.3519 12.7321 63.4365 12.6084C63.5244 12.4847 63.57 12.3675 63.5732 12.2568L63.9443 12.8525C63.8923 12.986 63.8206 13.1243 63.7295 13.2676C63.6416 13.4108 63.5293 13.5459 63.3926 13.6729C63.2559 13.7965 63.0915 13.8991 62.8994 13.9805C62.7074 14.0586 62.4795 14.0977 62.2158 14.0977C61.8805 14.0977 61.5762 14.0309 61.3027 13.8975C61.0326 13.7607 60.8177 13.5736 60.6582 13.3359C60.502 13.0951 60.4238 12.8216 60.4238 12.5156C60.4238 12.2389 60.4759 11.9932 60.5801 11.7783C60.6842 11.5635 60.8372 11.3828 61.0391 11.2363C61.2441 11.0866 61.4997 10.9743 61.8057 10.8994C62.1117 10.8213 62.4665 10.7822 62.8701 10.7822H63.6855ZM68.3026 12.999C68.4751 12.999 68.6281 12.9665 68.7616 12.9014C68.8951 12.833 68.9992 12.7386 69.0741 12.6182C69.1522 12.4945 69.1929 12.3496 69.1962 12.1836H70.5194C70.5162 12.5547 70.4169 12.8851 70.2216 13.1748C70.0263 13.4613 69.7642 13.6875 69.4354 13.8535C69.1067 14.0163 68.7388 14.0977 68.3319 14.0977C67.9218 14.0977 67.5637 14.0293 67.2577 13.8926C66.955 13.7559 66.7027 13.5671 66.5009 13.3262C66.299 13.082 66.1477 12.7988 66.0468 12.4766C65.9458 12.151 65.8954 11.8027 65.8954 11.4316V11.29C65.8954 10.9157 65.9458 10.5674 66.0468 10.2451C66.1477 9.9196 66.299 9.63639 66.5009 9.39551C66.7027 9.15137 66.955 8.96094 67.2577 8.82422C67.5604 8.6875 67.9153 8.61914 68.3222 8.61914C68.7551 8.61914 69.1343 8.70215 69.4598 8.86816C69.7886 9.03418 70.0458 9.27181 70.2313 9.58105C70.4201 9.88704 70.5162 10.25 70.5194 10.6699H69.1962C69.1929 10.4941 69.1555 10.3346 69.0839 10.1914C69.0155 10.0482 68.9146 9.93424 68.7811 9.84961C68.6509 9.76172 68.4898 9.71777 68.2977 9.71777C68.0927 9.71777 67.925 9.76172 67.7948 9.84961C67.6646 9.93424 67.5637 10.0514 67.4921 10.2012C67.4205 10.3477 67.37 10.5153 67.3407 10.7041C67.3147 10.8896 67.3016 11.085 67.3016 11.29V11.4316C67.3016 11.6367 67.3147 11.8337 67.3407 12.0225C67.3667 12.2113 67.4156 12.3789 67.4872 12.5254C67.5621 12.6719 67.6646 12.7874 67.7948 12.8721C67.925 12.9567 68.0943 12.999 68.3026 12.999ZM74.0427 8.7168V9.71289H70.9666V8.7168H74.0427ZM71.7283 7.41309H73.1345V12.4082C73.1345 12.5612 73.1541 12.6784 73.1931 12.7598C73.2354 12.8411 73.2973 12.8981 73.3787 12.9307C73.46 12.96 73.5626 12.9746 73.6863 12.9746C73.7742 12.9746 73.8523 12.9714 73.9207 12.9648C73.9923 12.9551 74.0525 12.9453 74.1013 12.9355L74.1062 13.9707C73.9858 14.0098 73.8556 14.0407 73.7156 14.0635C73.5756 14.0863 73.421 14.0977 73.2517 14.0977C72.9425 14.0977 72.6723 14.0472 72.4412 13.9463C72.2133 13.8421 72.0375 13.6761 71.9138 13.4482C71.7901 13.2204 71.7283 12.9209 71.7283 12.5498V7.41309Z" fill="black"/>
<path d="M90 0H5C2.23858 0 0 2.23858 0 5V16C0 18.7614 2.23857 21 5 21H90C92.7614 21 95 18.7614 95 16V5C95 2.23858 92.7614 0 90 0Z" fill="url(#paint0_linear_50_157)"/>
<path d="M15.5 11.8359C16.2378 11.8359 16.8359 11.2378 16.8359 10.5C16.8359 9.76218 16.2378 9.16406 15.5 9.16406C14.7622 9.16406 14.1641 9.76218 14.1641 10.5C14.1641 11.2378 14.7622 11.8359 15.5 11.8359Z" fill="white"/>
<path d="M20.5742 8.29687C20.3164 8.20312 20.0469 8.10938 19.7656 8.02734C19.8359 7.74609 19.8945 7.46484 19.9414 7.19531C20.1875 5.64844 19.918 4.55859 19.168 4.13672C18.9453 4.00781 18.6992 3.94922 18.418 3.94922C17.5977 3.94922 16.5547 4.55859 15.5 5.57812C14.4453 4.55859 13.4023 3.94922 12.582 3.94922C12.3008 3.94922 12.0547 4.00781 11.832 4.13672C11.082 4.57031 10.8125 5.66016 11.0586 7.19531C11.1055 7.46484 11.1641 7.74609 11.2344 8.02734C10.9531 8.10938 10.6836 8.19141 10.4258 8.29687C8.96094 8.85937 8.16406 9.63281 8.16406 10.5C8.16406 11.3672 8.97266 12.1406 10.4258 12.7031C10.6836 12.7969 10.9531 12.8906 11.2344 12.9727C11.1641 13.2539 11.1055 13.5352 11.0586 13.8047C10.8125 15.3516 11.082 16.4414 11.832 16.8633C12.0547 16.9922 12.3008 17.0508 12.582 17.0508C13.4141 17.0508 14.457 16.4414 15.5 15.4219C16.5547 16.4414 17.5977 17.0508 18.418 17.0508C18.6992 17.0508 18.9453 16.9922 19.168 16.8633C19.918 16.4297 20.1875 15.3398 19.9414 13.8047C19.8945 13.5352 19.8359 13.2539 19.7656 12.9727C20.0469 12.8906 20.3164 12.8086 20.5742 12.7031C22.0391 12.1406 22.8359 11.3672 22.8359 10.5C22.8359 9.63281 22.0391 8.85937 20.5742 8.29687V8.29687ZM18.8398 4.72266C19.3203 5.00391 19.4844 5.87109 19.2852 7.10156C19.25 7.34766 19.1914 7.60547 19.1211 7.875C18.5117 7.73437 17.8672 7.64062 17.1875 7.58203C16.7891 7.01953 16.3789 6.51563 15.9687 6.05859C16.8359 5.20312 17.7148 4.61719 18.4297 4.61719C18.582 4.61719 18.7227 4.65234 18.8398 4.72266V4.72266ZM17.5273 11.6719C17.3164 12.0469 17.0703 12.4219 16.8125 12.7969C16.3789 12.832 15.9453 12.8438 15.5 12.8438C15.043 12.8438 14.6094 12.832 14.1875 12.7969C13.9297 12.4219 13.6953 12.0469 13.4844 11.6719C13.2617 11.2852 13.0508 10.8867 12.8633 10.5C13.0508 10.1133 13.2617 9.71484 13.4844 9.32813C13.6953 8.95313 13.9414 8.57813 14.1992 8.20313C14.6328 8.16797 15.0664 8.15625 15.5117 8.15625C15.9687 8.15625 16.4023 8.16797 16.8242 8.20313C17.082 8.57813 17.3164 8.95313 17.5273 9.32813C17.75 9.71484 17.9609 10.1133 18.1484 10.5C17.9492 10.8867 17.75 11.2734 17.5273 11.6719ZM18.5 11.2852C18.6758 11.6953 18.8164 12.0938 18.9453 12.4922C18.5469 12.5859 18.125 12.6563 17.6797 12.7148C17.8203 12.4922 17.9727 12.2578 18.1016 12.0117C18.2422 11.7656 18.3711 11.5195 18.5 11.2852ZM15.5 14.4609C15.2187 14.1563 14.9492 13.8281 14.6914 13.4883C14.9609 13.5 15.2305 13.5117 15.5 13.5117C15.7695 13.5117 16.0391 13.5 16.3086 13.4883C16.0508 13.8281 15.7812 14.1563 15.5 14.4609ZM13.3203 12.7031C12.875 12.6445 12.4531 12.5742 12.0547 12.4805C12.1836 12.0938 12.3242 11.6836 12.5 11.2734C12.6289 11.5078 12.7578 11.7539 12.8984 11.9883C13.0391 12.2461 13.1797 12.4688 13.3203 12.7031V12.7031ZM12.5 9.71484C12.3242 9.30469 12.1836 8.90625 12.0547 8.50781C12.4531 8.41406 12.875 8.34375 13.3203 8.28516C13.1797 8.50781 13.0273 8.74219 12.8984 8.98828C12.7578 9.23437 12.6289 9.48047 12.5 9.71484V9.71484ZM15.5 6.53906C15.7812 6.84375 16.0508 7.17187 16.3086 7.51172C16.0391 7.5 15.7695 7.48828 15.5 7.48828C15.2305 7.48828 14.9609 7.5 14.6914 7.51172C14.9492 7.17187 15.2187 6.84375 15.5 6.53906ZM18.1016 9L17.6797 8.29687C18.125 8.35547 18.5469 8.42578 18.9453 8.51953C18.8164 8.90625 18.6758 9.31641 18.5 9.72656C18.3711 9.48047 18.2422 9.23437 18.1016 9ZM11.7148 7.10156C11.5156 5.87109 11.6797 5.00391 12.1602 4.72266C12.2773 4.65234 12.418 4.61719 12.5703 4.61719C13.2734 4.61719 14.1523 5.19141 15.0312 6.05859C14.6211 6.50391 14.2109 7.01953 13.8125 7.58203C13.1328 7.64062 12.4883 7.74609 11.8789 7.875C11.8086 7.60547 11.7617 7.34766 11.7148 7.10156V7.10156ZM8.82031 10.5C8.82031 9.94922 9.48828 9.36328 10.6602 8.92969C10.8945 8.83594 11.1523 8.75391 11.4102 8.68359C11.5977 9.26953 11.832 9.89062 12.1133 10.5117C11.832 11.1328 11.5859 11.7422 11.4102 12.3281C9.79297 11.8594 8.82031 11.1563 8.82031 10.5ZM12.1602 16.2773C11.6797 15.9961 11.5156 15.1289 11.7148 13.8984C11.75 13.6523 11.8086 13.3945 11.8789 13.125C12.4883 13.2656 13.1328 13.3594 13.8125 13.418C14.2109 13.9805 14.6211 14.4844 15.0312 14.9414C14.1641 15.7969 13.2852 16.3828 12.5703 16.3828C12.418 16.3828 12.2773 16.3477 12.1602 16.2773ZM19.2852 13.8984C19.4844 15.1289 19.3203 15.9961 18.8398 16.2773C18.7227 16.3477 18.582 16.3828 18.4297 16.3828C17.7266 16.3828 16.8477 15.8086 15.9687 14.9414C16.3789 14.4961 16.7891 13.9805 17.1875 13.418C17.8672 13.3594 18.5117 13.2539 19.1211 13.125C19.1914 13.3945 19.2383 13.6523 19.2852 13.8984V13.8984ZM20.3398 12.0703C20.1055 12.1641 19.8477 12.2461 19.5898 12.3164C19.4023 11.7305 19.168 11.1094 18.8867 10.4883C19.168 9.86719 19.4141 9.25781 19.5898 8.67188C21.207 9.14063 22.1797 9.84375 22.1797 10.5C22.1797 11.0508 21.5 11.6367 20.3398 12.0703Z" fill="white"/>
<defs>
<linearGradient id="paint0_linear_50_157" x1="0" y1="0" x2="0" y2="21" gradientUnits="userSpaceOnUse">
<stop stop-color="#BBBBBB" stop-opacity="0.1"/>
<stop offset="1" stop-opacity="0.1"/>
</linearGradient>
</defs>
</svg>
