<svg width="94" height="21" viewBox="0 0 94 21" fill="none" xmlns="http://www.w3.org/2000/svg">
<path d="M89 0H31V21H89C91.7614 21 94 18.7614 94 16V5C94 2.23858 91.7614 0 89 0Z" fill="white"/>
<path d="M31 0H5C2.23858 0 0 2.23858 0 5V16C0 18.7614 2.23858 21 5 21H31V0Z" fill="#29B2E7"/>
<path d="M49.1824 14H47.6346L47.6443 12.8574H49.1824C49.5665 12.8574 49.8904 12.7712 50.1541 12.5986C50.4178 12.4229 50.6163 12.1673 50.7498 11.832C50.8865 11.4967 50.9549 11.0915 50.9549 10.6162V10.2695C50.9549 9.90495 50.9158 9.58431 50.8377 9.30762C50.7628 9.03092 50.6505 8.79818 50.5008 8.60938C50.351 8.42057 50.1671 8.27897 49.949 8.18457C49.7309 8.08691 49.4803 8.03809 49.1971 8.03809H47.6053V6.89062H49.1971C49.6723 6.89062 50.1069 6.97201 50.5008 7.13477C50.8979 7.29427 51.2413 7.52376 51.5311 7.82324C51.8208 8.12272 52.0438 8.48079 52.2 8.89746C52.3595 9.31087 52.4393 9.77148 52.4393 10.2793V10.6162C52.4393 11.1208 52.3595 11.5814 52.2 11.998C52.0438 12.4147 51.8208 12.7728 51.5311 13.0723C51.2446 13.3685 50.9012 13.598 50.5008 13.7607C50.1036 13.9202 49.6642 14 49.1824 14ZM48.4646 6.89062V14H46.9998V6.89062H48.4646ZM53.487 11.4121V11.3096C53.487 10.9222 53.5423 10.5658 53.653 10.2402C53.7637 9.91146 53.9248 9.62663 54.1364 9.38574C54.348 9.14486 54.6084 8.95768 54.9177 8.82422C55.2269 8.6875 55.5817 8.61914 55.9821 8.61914C56.3825 8.61914 56.7389 8.6875 57.0514 8.82422C57.3639 8.95768 57.626 9.14486 57.8376 9.38574C58.0524 9.62663 58.2152 9.91146 58.3259 10.2402C58.4365 10.5658 58.4919 10.9222 58.4919 11.3096V11.4121C58.4919 11.7962 58.4365 12.1527 58.3259 12.4814C58.2152 12.807 58.0524 13.0918 57.8376 13.3359C57.626 13.5768 57.3656 13.764 57.0563 13.8975C56.7471 14.0309 56.3923 14.0977 55.9919 14.0977C55.5915 14.0977 55.235 14.0309 54.9225 13.8975C54.6133 13.764 54.3512 13.5768 54.1364 13.3359C53.9248 13.0918 53.7637 12.807 53.653 12.4814C53.5423 12.1527 53.487 11.7962 53.487 11.4121ZM54.8932 11.3096V11.4121C54.8932 11.6335 54.9128 11.8402 54.9518 12.0322C54.9909 12.2243 55.0527 12.3936 55.1374 12.54C55.2253 12.6833 55.3392 12.7956 55.4792 12.877C55.6192 12.9583 55.7901 12.999 55.9919 12.999C56.1872 12.999 56.3548 12.9583 56.4948 12.877C56.6348 12.7956 56.7471 12.6833 56.8317 12.54C56.9164 12.3936 56.9782 12.2243 57.0173 12.0322C57.0596 11.8402 57.0807 11.6335 57.0807 11.4121V11.3096C57.0807 11.0947 57.0596 10.8929 57.0173 10.7041C56.9782 10.512 56.9147 10.3428 56.8268 10.1963C56.7422 10.0465 56.6299 9.92936 56.4899 9.84473C56.3499 9.76009 56.1807 9.71777 55.9821 9.71777C55.7835 9.71777 55.6143 9.76009 55.4743 9.84473C55.3376 9.92936 55.2253 10.0465 55.1374 10.1963C55.0527 10.3428 54.9909 10.512 54.9518 10.7041C54.9128 10.8929 54.8932 11.0947 54.8932 11.3096ZM61.6588 12.999C61.8313 12.999 61.9843 12.9665 62.1177 12.9014C62.2512 12.833 62.3554 12.7386 62.4302 12.6182C62.5084 12.4945 62.5491 12.3496 62.5523 12.1836H63.8755C63.8723 12.5547 63.773 12.8851 63.5777 13.1748C63.3824 13.4613 63.1203 13.6875 62.7916 13.8535C62.4628 14.0163 62.0949 14.0977 61.688 14.0977C61.2779 14.0977 60.9198 14.0293 60.6138 13.8926C60.3111 13.7559 60.0588 13.5671 59.857 13.3262C59.6552 13.082 59.5038 12.7988 59.4029 12.4766C59.302 12.151 59.2515 11.8027 59.2515 11.4316V11.29C59.2515 10.9157 59.302 10.5674 59.4029 10.2451C59.5038 9.9196 59.6552 9.63639 59.857 9.39551C60.0588 9.15137 60.3111 8.96094 60.6138 8.82422C60.9166 8.6875 61.2714 8.61914 61.6783 8.61914C62.1112 8.61914 62.4905 8.70215 62.816 8.86816C63.1448 9.03418 63.4019 9.27181 63.5875 9.58105C63.7763 9.88704 63.8723 10.25 63.8755 10.6699H62.5523C62.5491 10.4941 62.5116 10.3346 62.44 10.1914C62.3716 10.0482 62.2707 9.93424 62.1373 9.84961C62.0071 9.76172 61.8459 9.71777 61.6539 9.71777C61.4488 9.71777 61.2811 9.76172 61.1509 9.84961C61.0207 9.93424 60.9198 10.0514 60.8482 10.2012C60.7766 10.3477 60.7261 10.5153 60.6968 10.7041C60.6708 10.8896 60.6578 11.085 60.6578 11.29V11.4316C60.6578 11.6367 60.6708 11.8337 60.6968 12.0225C60.7229 12.2113 60.7717 12.3789 60.8433 12.5254C60.9182 12.6719 61.0207 12.7874 61.1509 12.8721C61.2811 12.9567 61.4504 12.999 61.6588 12.999ZM66.2172 6.49512V14H64.811V6.49512H66.2172ZM69.5473 8.7168L67.2524 11.334L66.0219 12.5791L65.5092 11.5635L66.4858 10.3232L67.8579 8.7168H69.5473ZM68.0873 14L66.5248 11.5586L67.4965 10.709L69.7084 14H68.0873ZM72.6068 14.0977C72.1966 14.0977 71.8288 14.0326 71.5032 13.9023C71.1777 13.7689 70.901 13.585 70.6732 13.3506C70.4486 13.1162 70.276 12.8444 70.1556 12.5352C70.0351 12.2227 69.9749 11.8906 69.9749 11.5391V11.3438C69.9749 10.9434 70.0319 10.5771 70.1458 10.2451C70.2598 9.91309 70.4225 9.625 70.6341 9.38086C70.8489 9.13672 71.1094 8.94954 71.4154 8.81934C71.7213 8.68587 72.0664 8.61914 72.4505 8.61914C72.8249 8.61914 73.1569 8.68099 73.4466 8.80469C73.7363 8.92839 73.9788 9.10417 74.1741 9.33203C74.3727 9.5599 74.5224 9.83333 74.6234 10.1523C74.7243 10.4681 74.7747 10.8197 74.7747 11.207V11.793H70.5755V10.8555H73.3929V10.748C73.3929 10.5527 73.3571 10.3786 73.2855 10.2256C73.2171 10.0693 73.1129 9.94564 72.973 9.85449C72.833 9.76335 72.654 9.71777 72.4359 9.71777C72.2503 9.71777 72.0908 9.75846 71.9573 9.83984C71.8239 9.92122 71.7148 10.0352 71.6302 10.1816C71.5488 10.3281 71.487 10.5007 71.4446 10.6992C71.4056 10.8945 71.3861 11.1094 71.3861 11.3438V11.5391C71.3861 11.7507 71.4154 11.946 71.4739 12.125C71.5358 12.304 71.6221 12.4587 71.7327 12.5889C71.8467 12.7191 71.9834 12.82 72.1429 12.8916C72.3057 12.9632 72.4896 12.999 72.6946 12.999C72.9486 12.999 73.1846 12.9502 73.4027 12.8525C73.624 12.7516 73.8144 12.6003 73.9739 12.3984L74.6575 13.1406C74.5469 13.3001 74.3955 13.4531 74.2034 13.5996C74.0146 13.7461 73.7868 13.8665 73.5198 13.9609C73.2529 14.0521 72.9486 14.0977 72.6068 14.0977ZM77.1018 9.86914V14H75.6955V8.7168H77.0188L77.1018 9.86914ZM78.6936 8.68262L78.6691 9.98633C78.6008 9.97656 78.5178 9.96842 78.4201 9.96191C78.3257 9.95215 78.2395 9.94727 78.1613 9.94727C77.9628 9.94727 77.7902 9.97331 77.6438 10.0254C77.5005 10.0742 77.3801 10.1475 77.2824 10.2451C77.188 10.3428 77.1164 10.4616 77.0676 10.6016C77.022 10.7415 76.996 10.901 76.9895 11.0801L76.7063 10.9922C76.7063 10.6504 76.7404 10.3363 76.8088 10.0498C76.8772 9.76009 76.9764 9.50781 77.1066 9.29297C77.2401 9.07812 77.4029 8.91211 77.5949 8.79492C77.787 8.67773 78.0067 8.61914 78.2541 8.61914C78.3322 8.61914 78.412 8.62565 78.4934 8.63867C78.5747 8.64844 78.6415 8.66309 78.6936 8.68262Z" fill="#0F1418"/>
<path d="M89 0H5C2.23858 0 0 2.23858 0 5V16C0 18.7614 2.23858 21 5 21H89C91.7614 21 94 18.7614 94 16V5C94 2.23858 91.7614 0 89 0Z" fill="url(#paint0_linear_50_190)"/>
<path d="M26.475 8.54766C25.7695 8.1375 24.8344 8.08828 24.0469 8.31797C23.9484 7.46484 23.3906 6.72656 22.7344 6.20156L22.4719 5.98828L22.2422 6.25078C21.7992 6.75937 21.668 7.6125 21.7336 8.26875C21.7828 8.74453 21.9305 9.23672 22.2258 9.63047C21.9961 9.76172 21.75 9.94219 21.5203 10.0242C21.0609 10.1883 20.5524 10.3523 20.0602 10.3523H18.9609V8.03906H16.8281V3.9375H14.3672V5.90625H10.2656V8.03906H8.13282V10.3359H6.29532L6.26251 10.582C6.18048 11.632 6.31173 12.6492 6.7547 13.6172L6.93516 13.9781L6.95157 14.0109C8.24766 16.2094 10.5117 17.1281 12.9891 17.1281C17.7797 17.1281 21.7336 14.9789 23.5383 10.4672C24.7524 10.5328 25.9992 10.1719 26.5899 9.00703L26.7375 8.71172L26.475 8.54766V8.54766ZM10.5938 6.39844H12.2344V8.20313H10.5938V6.39844ZM12.743 13.65C12.743 13.9289 12.5133 14.1586 12.2344 14.1586C11.9555 14.1586 11.7258 13.9289 11.7258 13.65C11.7258 13.3711 11.9555 13.1414 12.2344 13.1414C12.5133 13.1578 12.743 13.3711 12.743 13.65ZM10.5938 8.53125H12.2344V10.3359H10.5938V8.53125ZM8.46095 8.53125H10.2656V10.3359H8.46095V8.53125ZM13.0055 16.7672C10.4133 16.7508 9.01876 15.8813 7.87032 14.7328C8.21485 14.7492 8.54298 14.7656 8.83829 14.7656C9.10079 14.7656 9.36329 14.7656 9.60938 14.7492C10.2492 14.7164 10.807 14.6344 11.2664 14.5031C11.6438 15.3727 12.3328 16.1766 13.5633 16.7672H13.0055ZM14.3672 10.3359H12.5625V8.53125H14.3672V10.3359ZM14.3672 8.20313H12.5625V6.39844H14.3672V8.20313ZM16.5 10.3359H14.6953V8.53125H16.5V10.3359ZM16.5 8.20313H14.6953V6.39844H16.5V8.20313ZM16.5 6.07031H14.6953V4.26563H16.5V6.07031ZM18.6328 10.3359H16.8281V8.53125H18.6328V10.3359ZM12.3656 13.3219C12.3328 13.3055 12.2836 13.2891 12.2344 13.2891C12.0375 13.2891 11.8734 13.4531 11.8734 13.65C11.8734 13.8469 12.0375 14.0109 12.2344 14.0109C12.4313 14.0109 12.5953 13.8469 12.5953 13.65C12.5953 13.6008 12.5789 13.5516 12.5625 13.5188C12.5297 13.568 12.4969 13.6008 12.4313 13.6008C12.3492 13.6008 12.2836 13.5352 12.2836 13.4531C12.3 13.3875 12.3328 13.3383 12.3656 13.3219V13.3219Z" fill="white"/>
<defs>
<linearGradient id="paint0_linear_50_190" x1="0" y1="0" x2="0" y2="21" gradientUnits="userSpaceOnUse">
<stop stop-color="#BBBBBB" stop-opacity="0.1"/>
<stop offset="1" stop-opacity="0.1"/>
</linearGradient>
</defs>
</svg>
