<svg width="109" height="21" viewBox="0 0 109 21" fill="none" xmlns="http://www.w3.org/2000/svg">
<path d="M104 0H31V21H104C106.761 21 109 18.7614 109 16V5C109 2.23858 106.761 0 104 0Z" fill="white"/>
<path d="M31 0H5C2.23858 0 0 2.23858 0 5V16C0 18.7614 2.23858 21 5 21H31V0Z" fill="black"/>
<path d="M45.0431 12.8574V14H41.464V12.8574H45.0431ZM41.9377 6.89062V14H40.4728V6.89062H41.9377ZM48.9424 12.8086V10.4551C48.9424 10.2858 48.9148 10.141 48.8594 10.0205C48.8041 9.89681 48.7178 9.80078 48.6006 9.73242C48.4867 9.66406 48.3386 9.62988 48.1563 9.62988C48 9.62988 47.8649 9.65755 47.751 9.71289C47.6371 9.76497 47.5492 9.84147 47.4873 9.94238C47.4255 10.04 47.3946 10.1556 47.3946 10.2891H45.9883C45.9883 10.0645 46.0404 9.85124 46.1446 9.64941C46.2487 9.44759 46.4001 9.27018 46.5987 9.11719C46.7972 8.96094 47.0332 8.83887 47.3067 8.75098C47.5834 8.66309 47.8926 8.61914 48.2344 8.61914C48.6446 8.61914 49.0092 8.6875 49.3282 8.82422C49.6472 8.96094 49.8978 9.16602 50.0801 9.43945C50.2657 9.71289 50.3584 10.0547 50.3584 10.4648V12.7256C50.3584 13.0153 50.3763 13.2529 50.4121 13.4385C50.448 13.6208 50.5 13.7803 50.5684 13.917V14H49.1475C49.0791 13.8568 49.0271 13.6777 48.9913 13.4629C48.9587 13.2448 48.9424 13.0267 48.9424 12.8086ZM49.128 10.7822L49.1377 11.5781H48.3516C48.1661 11.5781 48.0049 11.5993 47.8682 11.6416C47.7315 11.6839 47.6192 11.7441 47.5313 11.8223C47.4434 11.8971 47.3783 11.985 47.336 12.0859C47.2969 12.1868 47.2774 12.2975 47.2774 12.418C47.2774 12.5384 47.3051 12.6475 47.3604 12.7451C47.4157 12.8395 47.4955 12.9144 47.5996 12.9697C47.7038 13.0218 47.8259 13.0479 47.9659 13.0479C48.1774 13.0479 48.3614 13.0055 48.5176 12.9209C48.6739 12.8363 48.7943 12.7321 48.8789 12.6084C48.9668 12.4847 49.0124 12.3675 49.0157 12.2568L49.3868 12.8525C49.3347 12.986 49.2631 13.1243 49.1719 13.2676C49.084 13.4108 48.9717 13.5459 48.835 13.6729C48.6983 13.7965 48.5339 13.8991 48.3418 13.9805C48.1498 14.0586 47.9219 14.0977 47.6582 14.0977C47.323 14.0977 47.0186 14.0309 46.7452 13.8975C46.475 13.7607 46.2601 13.5736 46.1006 13.3359C45.9444 13.0951 45.8663 12.8216 45.8663 12.5156C45.8663 12.2389 45.9183 11.9932 46.0225 11.7783C46.1267 11.5635 46.2797 11.3828 46.4815 11.2363C46.6866 11.0866 46.9421 10.9743 47.2481 10.8994C47.5541 10.8213 47.9089 10.7822 48.3125 10.7822H49.128ZM52.9687 9.86914V14H51.5624V8.7168H52.8857L52.9687 9.86914ZM54.5605 8.68262L54.5361 9.98633C54.4677 9.97656 54.3847 9.96842 54.287 9.96191C54.1926 9.95215 54.1064 9.94727 54.0282 9.94727C53.8297 9.94727 53.6571 9.97331 53.5107 10.0254C53.3674 10.0742 53.247 10.1475 53.1493 10.2451C53.0549 10.3428 52.9833 10.4616 52.9345 10.6016C52.8889 10.7415 52.8629 10.901 52.8564 11.0801L52.5732 10.9922C52.5732 10.6504 52.6073 10.3363 52.6757 10.0498C52.7441 9.76009 52.8433 9.50781 52.9736 9.29297C53.107 9.07812 53.2698 8.91211 53.4618 8.79492C53.6539 8.67773 53.8736 8.61914 54.121 8.61914C54.1991 8.61914 54.2789 8.62565 54.3603 8.63867C54.4417 8.64844 54.5084 8.66309 54.5605 8.68262ZM58.0301 12.8086V10.4551C58.0301 10.2858 58.0024 10.141 57.9471 10.0205C57.8917 9.89681 57.8055 9.80078 57.6883 9.73242C57.5743 9.66406 57.4262 9.62988 57.2439 9.62988C57.0877 9.62988 56.9526 9.65755 56.8387 9.71289C56.7247 9.76497 56.6368 9.84147 56.575 9.94238C56.5132 10.04 56.4822 10.1556 56.4822 10.2891H55.076C55.076 10.0645 55.1281 9.85124 55.2322 9.64941C55.3364 9.44759 55.4878 9.27018 55.6863 9.11719C55.8849 8.96094 56.1209 8.83887 56.3943 8.75098C56.671 8.66309 56.9803 8.61914 57.3221 8.61914C57.7322 8.61914 58.0968 8.6875 58.4158 8.82422C58.7348 8.96094 58.9855 9.16602 59.1678 9.43945C59.3533 9.71289 59.4461 10.0547 59.4461 10.4648V12.7256C59.4461 13.0153 59.464 13.2529 59.4998 13.4385C59.5356 13.6208 59.5877 13.7803 59.6561 13.917V14H58.2352C58.1668 13.8568 58.1147 13.6777 58.0789 13.4629C58.0464 13.2448 58.0301 13.0267 58.0301 12.8086ZM58.2156 10.7822L58.2254 11.5781H57.4393C57.2537 11.5781 57.0926 11.5993 56.9559 11.6416C56.8191 11.6839 56.7068 11.7441 56.6189 11.8223C56.5311 11.8971 56.466 11.985 56.4236 12.0859C56.3846 12.1868 56.365 12.2975 56.365 12.418C56.365 12.5384 56.3927 12.6475 56.448 12.7451C56.5034 12.8395 56.5831 12.9144 56.6873 12.9697C56.7915 13.0218 56.9135 13.0479 57.0535 13.0479C57.2651 13.0479 57.449 13.0055 57.6053 12.9209C57.7615 12.8363 57.882 12.7321 57.9666 12.6084C58.0545 12.4847 58.1001 12.3675 58.1033 12.2568L58.4744 12.8525C58.4223 12.986 58.3507 13.1243 58.2596 13.2676C58.1717 13.4108 58.0594 13.5459 57.9227 13.6729C57.7859 13.7965 57.6216 13.8991 57.4295 13.9805C57.2374 14.0586 57.0096 14.0977 56.7459 14.0977C56.4106 14.0977 56.1063 14.0309 55.8328 13.8975C55.5626 13.7607 55.3478 13.5736 55.1883 13.3359C55.032 13.0951 54.9539 12.8216 54.9539 12.5156C54.9539 12.2389 55.006 11.9932 55.1102 11.7783C55.2143 11.5635 55.3673 11.3828 55.5691 11.2363C55.7742 11.0866 56.0298 10.9743 56.3357 10.8994C56.6417 10.8213 56.9966 10.7822 57.4002 10.7822H58.2156ZM62.3688 12.9746L63.5407 8.7168H65.0104L63.2282 14H62.3395L62.3688 12.9746ZM61.5632 8.7168L62.7399 12.9795L62.7643 14H61.8708L60.0886 8.7168H61.5632ZM68.1236 14.0977C67.7134 14.0977 67.3456 14.0326 67.0201 13.9023C66.6946 13.7689 66.4179 13.585 66.19 13.3506C65.9654 13.1162 65.7929 12.8444 65.6724 12.5352C65.552 12.2227 65.4918 11.8906 65.4918 11.5391V11.3438C65.4918 10.9434 65.5487 10.5771 65.6627 10.2451C65.7766 9.91309 65.9394 9.625 66.1509 9.38086C66.3658 9.13672 66.6262 8.94954 66.9322 8.81934C67.2382 8.68587 67.5832 8.61914 67.9673 8.61914C68.3417 8.61914 68.6737 8.68099 68.9634 8.80469C69.2532 8.92839 69.4957 9.10417 69.691 9.33203C69.8895 9.5599 70.0393 9.83333 70.1402 10.1523C70.2411 10.4681 70.2916 10.8197 70.2916 11.207V11.793H66.0923V10.8555H68.9097V10.748C68.9097 10.5527 68.8739 10.3786 68.8023 10.2256C68.7339 10.0693 68.6298 9.94564 68.4898 9.85449C68.3498 9.76335 68.1708 9.71777 67.9527 9.71777C67.7672 9.71777 67.6076 9.75846 67.4742 9.83984C67.3407 9.92122 67.2317 10.0352 67.147 10.1816C67.0657 10.3281 67.0038 10.5007 66.9615 10.6992C66.9224 10.8945 66.9029 11.1094 66.9029 11.3438V11.5391C66.9029 11.7507 66.9322 11.946 66.9908 12.125C67.0526 12.304 67.1389 12.4587 67.2496 12.5889C67.3635 12.7191 67.5002 12.82 67.6597 12.8916C67.8225 12.9632 68.0064 12.999 68.2115 12.999C68.4654 12.999 68.7014 12.9502 68.9195 12.8525C69.1408 12.7516 69.3313 12.6003 69.4908 12.3984L70.1744 13.1406C70.0637 13.3001 69.9123 13.4531 69.7203 13.5996C69.5315 13.7461 69.3036 13.8665 69.0367 13.9609C68.7698 14.0521 68.4654 14.0977 68.1236 14.0977ZM72.6967 6.5V14H71.2856V6.5H72.6967ZM78.3636 11.6416H79.8236C79.7943 12.1201 79.6624 12.5449 79.428 12.916C79.1969 13.2871 78.873 13.5768 78.4564 13.7852C78.043 13.9935 77.5449 14.0977 76.9622 14.0977C76.5065 14.0977 76.098 14.0195 75.7366 13.8633C75.3753 13.7038 75.0661 13.4759 74.8089 13.1797C74.555 12.8835 74.3613 12.5254 74.2279 12.1055C74.0944 11.6855 74.0277 11.2152 74.0277 10.6943V10.2012C74.0277 9.68034 74.096 9.20996 74.2327 8.79004C74.3727 8.36686 74.5713 8.00716 74.8284 7.71094C75.0889 7.41471 75.3997 7.18685 75.7611 7.02734C76.1224 6.86784 76.526 6.78809 76.972 6.78809C77.5644 6.78809 78.0641 6.89551 78.471 7.11035C78.8812 7.3252 79.1986 7.62142 79.4232 7.99902C79.651 8.37663 79.7877 8.80632 79.8333 9.28809H78.3685C78.3522 9.00163 78.2952 8.75911 78.1976 8.56055C78.0999 8.35872 77.9518 8.20736 77.7532 8.10645C77.5579 8.00228 77.2975 7.9502 76.972 7.9502C76.7279 7.9502 76.5146 7.99577 76.3323 8.08691C76.1501 8.17806 75.9971 8.31641 75.8734 8.50195C75.7497 8.6875 75.6569 8.92188 75.595 9.20508C75.5364 9.48503 75.5071 9.8138 75.5071 10.1914V10.6943C75.5071 11.0622 75.5348 11.3861 75.5902 11.666C75.6455 11.9427 75.7301 12.1771 75.8441 12.3691C75.9613 12.5579 76.111 12.7012 76.2933 12.7988C76.4788 12.8932 76.7018 12.9404 76.9622 12.9404C77.2682 12.9404 77.5205 12.8916 77.7191 12.7939C77.9176 12.6963 78.069 12.5514 78.1732 12.3594C78.2806 12.1673 78.3441 11.9281 78.3636 11.6416ZM82.4777 6.5V14H81.0666V6.5H82.4777ZM83.5352 11.4121V11.3096C83.5352 10.9222 83.5906 10.5658 83.7013 10.2402C83.8119 9.91146 83.9731 9.62663 84.1847 9.38574C84.3962 9.14486 84.6567 8.95768 84.9659 8.82422C85.2751 8.6875 85.63 8.61914 86.0304 8.61914C86.4307 8.61914 86.7872 8.6875 87.0997 8.82422C87.4122 8.95768 87.6742 9.14486 87.8858 9.38574C88.1007 9.62663 88.2634 9.91146 88.3741 10.2402C88.4848 10.5658 88.5401 10.9222 88.5401 11.3096V11.4121C88.5401 11.7962 88.4848 12.1527 88.3741 12.4814C88.2634 12.807 88.1007 13.0918 87.8858 13.3359C87.6742 13.5768 87.4138 13.764 87.1046 13.8975C86.7953 14.0309 86.4405 14.0977 86.0401 14.0977C85.6397 14.0977 85.2833 14.0309 84.9708 13.8975C84.6615 13.764 84.3995 13.5768 84.1847 13.3359C83.9731 13.0918 83.8119 12.807 83.7013 12.4814C83.5906 12.1527 83.5352 11.7962 83.5352 11.4121ZM84.9415 11.3096V11.4121C84.9415 11.6335 84.961 11.8402 85.0001 12.0322C85.0391 12.2243 85.101 12.3936 85.1856 12.54C85.2735 12.6833 85.3874 12.7956 85.5274 12.877C85.6674 12.9583 85.8383 12.999 86.0401 12.999C86.2354 12.999 86.4031 12.9583 86.543 12.877C86.683 12.7956 86.7953 12.6833 86.88 12.54C86.9646 12.3936 87.0264 12.2243 87.0655 12.0322C87.1078 11.8402 87.129 11.6335 87.129 11.4121V11.3096C87.129 11.0947 87.1078 10.8929 87.0655 10.7041C87.0264 10.512 86.963 10.3428 86.8751 10.1963C86.7904 10.0465 86.6781 9.92936 86.5382 9.84473C86.3982 9.76009 86.2289 9.71777 86.0304 9.71777C85.8318 9.71777 85.6625 9.76009 85.5225 9.84473C85.3858 9.92936 85.2735 10.0465 85.1856 10.1963C85.101 10.3428 85.0391 10.512 85.0001 10.7041C84.961 10.8929 84.9415 11.0947 84.9415 11.3096ZM92.6494 12.7354V8.7168H94.0556V14H92.7324L92.6494 12.7354ZM92.8056 11.6514L93.2207 11.6416C93.2207 11.9932 93.18 12.3203 93.0986 12.623C93.0172 12.9225 92.8951 13.1829 92.7324 13.4043C92.5696 13.6224 92.3645 13.7933 92.1171 13.917C91.8698 14.0374 91.5784 14.0977 91.2431 14.0977C90.986 14.0977 90.7483 14.0618 90.5302 13.9902C90.3154 13.9154 90.1298 13.7998 89.9736 13.6436C89.8206 13.484 89.7002 13.2806 89.6123 13.0332C89.5276 12.7826 89.4853 12.4814 89.4853 12.1299V8.7168H90.8916V12.1396C90.8916 12.2959 90.9095 12.4277 90.9453 12.5352C90.9843 12.6426 91.038 12.7305 91.1064 12.7988C91.1748 12.8672 91.2545 12.916 91.3457 12.9453C91.4401 12.9746 91.5442 12.9893 91.6582 12.9893C91.9479 12.9893 92.1757 12.9307 92.3418 12.8135C92.511 12.6963 92.6298 12.5368 92.6982 12.335C92.7698 12.1299 92.8056 11.902 92.8056 11.6514ZM98.37 12.8477V6.5H99.786V14H98.5116L98.37 12.8477ZM95.0301 11.4219V11.3193C95.0301 10.9157 95.0757 10.5495 95.1668 10.2207C95.258 9.88867 95.3914 9.60384 95.5672 9.36621C95.743 9.12858 95.9595 8.94466 96.2166 8.81445C96.4738 8.68424 96.7668 8.61914 97.0955 8.61914C97.4048 8.61914 97.675 8.68424 97.9061 8.81445C98.1405 8.94466 98.339 9.13021 98.5018 9.37109C98.6678 9.60872 98.8013 9.8903 98.9022 10.2158C99.0031 10.5381 99.0763 10.8913 99.1219 11.2754V11.5C99.0763 11.8678 99.0031 12.2096 98.9022 12.5254C98.8013 12.8411 98.6678 13.1178 98.5018 13.3555C98.339 13.5898 98.1405 13.7721 97.9061 13.9023C97.6717 14.0326 97.3983 14.0977 97.0858 14.0977C96.757 14.0977 96.464 14.0309 96.2069 13.8975C95.953 13.764 95.7381 13.5768 95.5623 13.3359C95.3898 13.0951 95.258 12.8118 95.1668 12.4863C95.0757 12.1608 95.0301 11.806 95.0301 11.4219ZM96.4364 11.3193V11.4219C96.4364 11.64 96.4526 11.8434 96.4852 12.0322C96.521 12.221 96.578 12.3887 96.6561 12.5352C96.7375 12.6784 96.8416 12.7907 96.9686 12.8721C97.0988 12.9502 97.2567 12.9893 97.4422 12.9893C97.6831 12.9893 97.8817 12.9355 98.0379 12.8281C98.1942 12.7174 98.313 12.5661 98.3944 12.374C98.479 12.182 98.5278 11.9606 98.5409 11.71V11.0703C98.5311 10.8652 98.5018 10.6813 98.453 10.5186C98.4074 10.3525 98.339 10.2109 98.2479 10.0938C98.16 9.97656 98.0493 9.88542 97.9159 9.82031C97.7857 9.75521 97.631 9.72266 97.452 9.72266C97.2697 9.72266 97.1135 9.76497 96.9832 9.84961C96.853 9.93099 96.7472 10.0433 96.6659 10.1865C96.5877 10.3298 96.5291 10.499 96.4901 10.6943C96.4543 10.8864 96.4364 11.0947 96.4364 11.3193Z" fill="black"/>
<path d="M104 0H5C2.23858 0 0 2.23858 0 5V16C0 18.7614 2.23858 21 5 21H104C106.761 21 109 18.7614 109 16V5C109 2.23858 106.761 0 104 0Z" fill="url(#paint0_linear_50_362)"/>
<g clip-path="url(#clip0_50_362)">
<path fill-rule="evenodd" clip-rule="evenodd" d="M23.0359 12.9444L18.0636 17.9169H8.11765V7.9725L13.0898 3H23.0358V12.9459V12.9444H23.0359ZM13.09 5.98362V6.97867H19.0572V12.9461H20.0521V5.98362H13.09ZM13.09 4.98872H21.0458V12.9444H22.0407V3.99337H13.09V4.98842V4.98872ZM13.09 7.97219V12.9445H18.062V7.97219H13.09Z" fill="white"/>
</g>
<defs>
<linearGradient id="paint0_linear_50_362" x1="0" y1="0" x2="0" y2="21" gradientUnits="userSpaceOnUse">
<stop stop-color="#BBBBBB" stop-opacity="0.1"/>
<stop offset="1" stop-opacity="0.1"/>
</linearGradient>
<clipPath id="clip0_50_362">
<rect width="15" height="15" fill="white" transform="translate(8 3)"/>
</clipPath>
</defs>
</svg>
