<svg width="119" height="32" viewBox="0 0 119 32" fill="none" xmlns="http://www.w3.org/2000/svg">
<path d="M114 0H31V32H114C116.761 32 119 29.7614 119 27V5C119 2.23858 116.761 0 114 0Z" fill="white"/>
<path d="M38 0H5C2.23858 0 0 2.23858 0 5V27C0 29.7614 2.23858 32 5 32H38V0Z" fill="#22333B"/>
<path d="M55.4066 11.3359H57.267L60.0062 19.1655L62.7455 11.3359H64.6058L60.7533 22H59.2591L55.4066 11.3359ZM54.4032 11.3359H56.2562L56.5931 18.9678V22H54.4032V11.3359ZM63.7562 11.3359H65.6166V22H63.4193V18.9678L63.7562 11.3359ZM69.9421 21.1064L72.0441 14.0752H74.3073L71.1213 23.1938C71.0529 23.394 70.9601 23.6089 70.8429 23.8384C70.7306 24.0679 70.5768 24.2852 70.3815 24.4902C70.1911 24.7002 69.9494 24.8711 69.6564 25.0029C69.3683 25.1348 69.0143 25.2007 68.5944 25.2007C68.3942 25.2007 68.2306 25.1885 68.1037 25.1641C67.9767 25.1396 67.8254 25.1055 67.6496 25.0615V23.5161C67.7033 23.5161 67.7595 23.5161 67.818 23.5161C67.8766 23.521 67.9328 23.5234 67.9865 23.5234C68.2648 23.5234 68.4919 23.4917 68.6677 23.4282C68.8434 23.3647 68.985 23.2671 69.0925 23.1353C69.1999 23.0083 69.2853 22.8423 69.3488 22.6372L69.9421 21.1064ZM69.0632 14.0752L70.7844 19.8174L71.0846 22.0513L69.6491 22.2051L66.8 14.0752H69.0632ZM81.0132 19.2095C81.0132 19.019 80.9839 18.8481 80.9253 18.6968C80.8716 18.5405 80.769 18.3989 80.6177 18.272C80.4663 18.1401 80.2539 18.0107 79.9805 17.8838C79.707 17.7568 79.353 17.625 78.9185 17.4883C78.4351 17.332 77.9761 17.1562 77.5415 16.9609C77.1118 16.7656 76.731 16.5386 76.3989 16.2798C76.0718 16.0161 75.813 15.7109 75.6226 15.3643C75.437 15.0176 75.3442 14.6147 75.3442 14.1558C75.3442 13.7114 75.4419 13.3086 75.6372 12.9473C75.8325 12.5811 76.106 12.2686 76.4575 12.0098C76.8091 11.7461 77.2241 11.5435 77.7026 11.4019C78.186 11.2603 78.7158 11.1895 79.292 11.1895C80.0781 11.1895 80.7642 11.3311 81.3501 11.6143C81.936 11.8975 82.3901 12.2856 82.7124 12.7788C83.0396 13.272 83.2031 13.8359 83.2031 14.4707H81.0205C81.0205 14.1582 80.9546 13.8848 80.8228 13.6504C80.6958 13.4111 80.5005 13.2231 80.2368 13.0864C79.978 12.9497 79.6509 12.8813 79.2554 12.8813C78.8745 12.8813 78.5571 12.9399 78.3032 13.0571C78.0493 13.1694 77.8589 13.3232 77.7319 13.5186C77.605 13.709 77.5415 13.9238 77.5415 14.1631C77.5415 14.3438 77.5854 14.5073 77.6733 14.6538C77.7661 14.8003 77.9028 14.937 78.0835 15.064C78.2642 15.1909 78.4863 15.3105 78.75 15.4229C79.0137 15.5352 79.3188 15.645 79.6655 15.7524C80.2466 15.9282 80.7568 16.126 81.1963 16.3457C81.6406 16.5654 82.0117 16.812 82.3096 17.0854C82.6074 17.3589 82.832 17.6689 82.9834 18.0156C83.1348 18.3623 83.2104 18.7554 83.2104 19.1948C83.2104 19.6587 83.1201 20.0737 82.9395 20.4399C82.7588 20.8062 82.4976 21.1162 82.1558 21.3701C81.814 21.624 81.4062 21.8169 80.9326 21.9487C80.459 22.0806 79.9292 22.1465 79.3433 22.1465C78.8159 22.1465 78.2959 22.0781 77.7832 21.9414C77.2705 21.7998 76.8042 21.5874 76.3843 21.3042C75.9692 21.021 75.6372 20.6597 75.3882 20.2202C75.1392 19.7808 75.0146 19.2607 75.0146 18.6602H77.2192C77.2192 18.9922 77.2705 19.2729 77.373 19.5024C77.4756 19.7319 77.6196 19.9175 77.8052 20.0591C77.9956 20.2007 78.2202 20.3032 78.479 20.3667C78.7427 20.4302 79.0308 20.4619 79.3433 20.4619C79.7241 20.4619 80.0366 20.4082 80.2808 20.3008C80.5298 20.1934 80.7129 20.0444 80.8301 19.854C80.9521 19.6636 81.0132 19.4487 81.0132 19.2095ZM89.4329 25.0469V15.6938L89.7039 14.0752H91.557V25.0469H89.4329ZM84.4232 18.1182V17.9644C84.4232 17.3589 84.4891 16.8096 84.6209 16.3164C84.7576 15.8184 84.9578 15.3936 85.2215 15.042C85.4852 14.6855 85.8074 14.4121 86.1883 14.2217C86.574 14.0264 87.0184 13.9287 87.5213 13.9287C88.0047 13.9287 88.4222 14.0264 88.7738 14.2217C89.1253 14.417 89.4207 14.6929 89.66 15.0493C89.9041 15.4058 90.0994 15.8257 90.2459 16.3091C90.3924 16.7925 90.5047 17.3223 90.5828 17.8984V18.2354C90.5096 18.7871 90.3973 19.2998 90.2459 19.7734C90.0994 20.2471 89.9041 20.6621 89.66 21.0186C89.4207 21.375 89.1229 21.6533 88.7664 21.8535C88.4149 22.0488 87.9949 22.1465 87.5067 22.1465C87.0135 22.1465 86.574 22.0464 86.1883 21.8462C85.8074 21.6411 85.4852 21.3579 85.2215 20.9966C84.9578 20.6353 84.7576 20.2104 84.6209 19.7222C84.4891 19.229 84.4232 18.6943 84.4232 18.1182ZM86.5325 17.9644V18.1182C86.5325 18.4453 86.5594 18.7529 86.6131 19.041C86.6668 19.3242 86.7523 19.5757 86.8695 19.7954C86.9915 20.0151 87.1478 20.1885 87.3382 20.3154C87.5286 20.4375 87.763 20.4985 88.0413 20.4985C88.4271 20.4985 88.7371 20.4155 88.9715 20.2495C89.2108 20.0786 89.3865 19.8467 89.4988 19.5537C89.616 19.2607 89.6844 18.9263 89.7039 18.5503V17.5908C89.6893 17.2832 89.6478 17.0073 89.5794 16.7632C89.5159 16.5142 89.4183 16.3018 89.2864 16.126C89.1595 15.9502 88.9935 15.8159 88.7884 15.7231C88.5882 15.6255 88.3441 15.5767 88.056 15.5767C87.7825 15.5767 87.5482 15.6377 87.3529 15.7598C87.1575 15.8818 86.9988 16.0527 86.8768 16.2725C86.7596 16.4873 86.6717 16.7388 86.6131 17.0269C86.5594 17.3149 86.5325 17.6274 86.5325 17.9644ZM95.6261 10.75V22H93.5094V10.75H95.6261Z" fill="#0F1418"/>
<path d="M114 0H5C2.23858 0 0 2.23858 0 5V27C0 29.7614 2.23858 32 5 32H114C116.761 32 119 29.7614 119 27V5C119 2.23858 116.761 0 114 0Z" fill="url(#paint0_linear_30_54)"/>
<g clip-path="url(#clip0_30_54)">
<path d="M13.3297 18.5376L14.1806 21.2862C14.3718 21.9103 14.4515 22.3459 14.4196 22.5942C14.885 21.3534 15.2101 20.0012 15.3951 18.5376H16.4183C15.9783 20.9203 15.3981 22.6518 14.6778 23.7319C14.1166 24.5642 13.5019 24.9804 12.8324 24.9804C12.6539 24.9804 12.4339 24.9267 12.1727 24.8201V24.2457C12.3003 24.2644 12.45 24.2743 12.6221 24.2743C12.9345 24.2743 13.1862 24.1881 13.3777 24.0162C13.607 23.8066 13.7218 23.5711 13.7218 23.3101C13.7218 23.1318 13.6322 22.766 13.454 22.2127L12.2684 18.5376H13.3297ZM6.81742 16.8483L8.37595 21.5823H8.38557L9.95367 16.8483H11.2348C11.5154 19.196 11.6811 21.3441 11.7319 23.2912H10.6518C10.6138 21.471 10.5085 19.7595 10.3364 18.1563H10.327L8.68213 23.2912H7.85955L6.22468 18.1563H6.21506C6.09377 19.696 6.01743 21.4075 5.9856 23.2912H5.00061C5.06426 21.0003 5.22356 18.8528 5.4785 16.8483H6.81742Z" fill="#00758F"/>
<path d="M24.277 16.7527C25.9535 16.7527 26.7918 17.819 26.7918 19.9506C26.7918 21.1089 26.5397 21.9838 26.036 22.5749C25.9452 22.6829 25.8449 22.7762 25.7392 22.8626L26.9256 23.4466L26.9244 23.4466L26.5032 24.1707L24.9582 23.2733C24.7021 23.3488 24.4203 23.3865 24.1132 23.3865C23.2901 23.3865 22.6752 23.1477 22.2687 22.6706C21.8224 22.1429 21.5994 21.312 21.5994 20.1795C21.5994 19.0278 21.8511 18.1562 22.3549 17.5644C22.8139 17.023 23.4547 16.7527 24.277 16.7527ZM19.1432 16.762C19.7424 16.762 20.2872 16.9217 20.7779 17.2398L20.5287 17.7927C20.1088 17.615 19.6947 17.5258 19.2865 17.5258C18.9552 17.5258 18.6999 17.6052 18.522 17.7649C18.343 17.9232 18.2323 18.1269 18.2323 18.3753C18.2323 18.7569 18.5054 19.0879 19.0097 19.3675C19.1749 19.4574 19.3395 19.5483 19.5036 19.6403L19.5412 19.6614L19.56 19.6719L19.5977 19.693L19.6165 19.7036L19.6542 19.7247C20.0359 19.9389 20.395 20.1434 20.395 20.1434C20.8992 20.4997 21.1506 20.8796 21.1506 21.5053C21.1506 22.0517 20.9494 22.5003 20.5485 22.8512C20.1473 23.2007 19.6082 23.3758 18.9332 23.3758C18.3018 23.3758 17.69 23.1742 17.0973 22.7743L17.3745 22.2208C17.8846 22.4753 18.3461 22.6025 18.7606 22.6025C19.1493 22.6025 19.4536 22.5161 19.6737 22.3454C19.8933 22.1736 20.025 21.9339 20.025 21.6299C20.025 21.2474 19.7577 20.9203 19.2673 20.646C19.1138 20.5616 18.9608 20.4763 18.8082 20.3903L18.7707 20.3691C18.7016 20.3303 18.6321 20.291 18.5641 20.2525L18.5271 20.2316C18.196 20.0441 17.9097 19.8803 17.9097 19.8803C17.4196 19.5233 17.1737 19.1403 17.1737 18.5092C17.1737 17.9873 17.357 17.5654 17.7231 17.2445C18.09 16.9229 18.5635 16.762 19.1432 16.762ZM28.762 16.8483V22.4986H30.7984V23.2912H27.7293V16.8483L28.762 16.8483ZM31.93 22.5011V22.635H31.7061V23.2905H31.5349V22.635H31.3023V22.5011H31.93ZM32.3434 22.5011L32.5583 23.0392L32.7558 22.5011H32.9984V23.2905H32.8371V22.6897L32.6124 23.2905H32.4961L32.2709 22.6897H32.2623V23.2905H32.1096V22.5011H32.3434ZM24.1716 17.5451C23.1836 17.5451 22.6894 18.3568 22.6894 19.9791C22.6894 20.9085 22.8204 21.5823 23.0818 22.0023C23.324 22.3911 23.7032 22.585 24.2196 22.585C25.2075 22.585 25.7017 21.767 25.7017 20.1317C25.7017 19.2154 25.5708 18.5473 25.3096 18.1271C25.0672 17.7392 24.6881 17.5451 24.1716 17.5451" fill="#F29111"/>
<path d="M21.5822 6.39922C21.9099 5.59752 23.0558 6.20465 23.5005 6.48469C23.6095 6.55476 23.7345 6.70279 23.8595 6.7575C24.0545 6.76512 24.2492 6.78031 24.4445 6.78842C24.8108 6.87411 25.1539 6.94412 25.4425 7.10777C26.7838 7.89418 27.657 8.69555 28.4606 10.0192C28.6323 10.2996 28.7181 10.603 28.8584 10.9064C29.0531 11.3587 29.2718 11.8334 29.4978 12.261C29.5989 12.4638 29.6772 12.6892 29.8177 12.8604C29.8725 12.9387 30.0283 12.9618 30.1215 13.0086C30.3789 13.1412 30.6908 13.2419 30.933 13.3976C31.3852 13.6783 31.8224 14.0128 32.2198 14.3553C32.368 14.4875 32.4689 14.6746 32.6101 14.8144V14.8849C32.4848 14.9232 32.3599 14.9624 32.235 14.9938C31.962 15.0636 31.7203 15.0478 31.4555 15.1177C31.2919 15.1649 31.0887 15.2273 30.9171 15.2431L30.933 15.259C31.0339 15.5462 31.5801 15.7797 31.8299 15.9515C32.1333 16.1695 32.4145 16.4338 32.6407 16.7375C32.7189 16.8149 32.797 16.8854 32.8748 16.9627C32.9292 17.041 32.9445 17.1422 32.9995 17.212V17.2356C32.9386 17.2143 32.8948 17.1734 32.8533 17.1307L32.8285 17.105C32.8037 17.0794 32.7787 17.0542 32.7502 17.0335C32.5781 16.9165 32.4071 16.7764 32.235 16.6676C31.939 16.4807 31.5958 16.3722 31.2919 16.1845C31.1201 16.0756 30.9563 15.9515 30.7925 15.8268C30.644 15.7176 30.4805 15.5077 30.3872 15.352C30.3323 15.266 30.3247 15.1649 30.2619 15.1027C30.2731 14.9988 30.3688 14.9679 30.4653 14.9425L30.4875 14.9367C30.5208 14.9281 30.5534 14.9195 30.5818 14.9081C30.9873 14.7367 31.4706 14.6746 32.0948 14.6901C32.0713 14.5341 31.6813 14.3397 31.5568 14.2463C31.3069 14.0669 31.0422 13.8798 30.7771 13.7166C30.6366 13.6311 30.3945 13.5688 30.2389 13.4989C30.0283 13.4132 29.5603 13.3276 29.4436 13.1644C29.2453 12.9071 29.1029 12.6002 28.9647 12.2902L28.9271 12.2056C28.9145 12.1774 28.9019 12.1492 28.8893 12.1211C28.7259 11.7477 28.5229 11.3585 28.3592 10.9763C28.2735 10.7899 28.2342 10.6262 28.1404 10.4474C27.5713 9.34994 26.729 8.43113 25.7077 7.78497C25.3721 7.57472 24.9979 7.38014 24.5848 7.24791C24.3507 7.17751 24.0698 7.21644 23.8203 7.16243H23.6562C23.5161 7.12313 23.3991 6.97526 23.2898 6.8973C23.0484 6.73409 22.8065 6.6245 22.5178 6.50805C22.4166 6.46134 22.1277 6.35257 22.0269 6.4382C21.9644 6.45383 21.9328 6.47729 21.9174 6.53968C21.8553 6.63277 21.9099 6.77302 21.9486 6.85887C22.0657 7.10767 22.2293 7.25553 22.3779 7.46578C22.51 7.65224 22.6741 7.86249 22.7678 8.06523C22.9699 8.50104 23.064 8.98387 23.2513 9.41962C23.3207 9.58349 23.4306 9.76995 23.5317 9.91776C23.6174 10.0351 23.7732 10.1199 23.8203 10.2684C23.9143 10.4241 23.6797 10.9379 23.6254 11.101C23.4222 11.7395 23.4616 12.6269 23.6956 13.1803L23.708 13.2095L23.7205 13.2391C23.8059 13.4417 23.8973 13.66 24.1244 13.7167C24.1401 13.7012 24.1244 13.7093 24.1555 13.7012C24.2104 13.2729 24.2259 12.8604 24.3742 12.5252C24.4599 12.3157 24.631 12.1675 24.7483 11.9965C24.8265 12.0431 24.8265 12.1836 24.8731 12.2766C24.9746 12.5178 25.0836 12.7822 25.2087 13.0241C25.4655 13.5222 25.7545 14.0052 26.0819 14.4409C26.1915 14.5966 26.3471 14.7679 26.4874 14.9081C26.5499 14.9623 26.6199 14.9937 26.6669 15.0635H26.6822V15.0871C26.4482 15.0012 26.2999 14.7603 26.1133 14.6196C25.7621 14.3552 25.3414 13.9581 25.0992 13.577C24.9979 13.3583 24.8885 13.1486 24.7793 12.931V12.9152C24.7327 12.9774 24.7483 13.0392 24.7249 13.1332C24.6237 13.5222 24.7017 13.966 24.3507 14.1059C23.953 14.2697 23.6562 13.8415 23.5317 13.6468C23.1338 13.0008 23.0248 11.911 23.3054 11.0313C23.3678 10.8366 23.3762 10.603 23.4851 10.4475C23.4616 10.307 23.3527 10.2685 23.2898 10.1824C23.1806 10.0352 23.0872 9.8637 23.0017 9.70021C22.8375 9.38086 22.7207 8.99928 22.5961 8.65679C22.5413 8.51693 22.5256 8.37653 22.471 8.24413C22.3778 8.04204 22.206 7.8393 22.0735 7.66052C21.8941 7.40355 21.3715 6.90553 21.5822 6.39922ZM24.1399 7.92439C24.1608 7.94519 24.1859 7.96337 24.2119 7.98128L24.2433 8.00273C24.2852 8.03159 24.3257 8.06197 24.3505 8.10334C24.3899 8.15811 24.3972 8.21217 24.4444 8.26705C24.4444 8.45416 24.3899 8.57856 24.2799 8.65608C24.2799 8.65608 24.2724 8.66425 24.2647 8.67187C24.2024 8.54715 24.1477 8.42308 24.085 8.29846C24.0076 8.18969 23.8983 8.1034 23.8353 7.97911H23.8202V7.96348C23.9143 7.94034 24.0076 7.92439 24.1399 7.92439Z" fill="#00758F"/>
</g>
<defs>
<linearGradient id="paint0_linear_30_54" x1="0" y1="0" x2="0" y2="32" gradientUnits="userSpaceOnUse">
<stop stop-color="#BBBBBB" stop-opacity="0.1"/>
<stop offset="1" stop-opacity="0.1"/>
</linearGradient>
<clipPath id="clip0_30_54">
<rect width="28" height="19" fill="white" transform="translate(5 6)"/>
</clipPath>
</defs>
</svg>
