<svg width="94" height="21" viewBox="0 0 94 21" fill="none" xmlns="http://www.w3.org/2000/svg">
<path d="M89 0H31V21H89C91.7614 21 94 18.7614 94 16V5C94 2.23858 91.7614 0 89 0Z" fill="white"/>
<path d="M31 0H5C2.23858 0 0 2.23858 0 5V16C0 18.7614 2.23858 21 5 21H31V0Z" fill="#22333B"/>
<path d="M49.262 6.89062H50.5022L52.3284 12.1104L54.1545 6.89062H55.3948L52.8264 14H51.8303L49.262 6.89062ZM48.593 6.89062H49.8284L50.053 11.9785V14H48.593V6.89062ZM54.8284 6.89062H56.0686V14H54.6038V11.9785L54.8284 6.89062ZM59.128 13.4043L60.5294 8.7168H62.0382L59.9142 14.7959C59.8686 14.9294 59.8068 15.0726 59.7286 15.2256C59.6538 15.3786 59.5512 15.5234 59.421 15.6602C59.2941 15.8001 59.1329 15.9141 58.9376 16.002C58.7456 16.0898 58.5096 16.1338 58.2296 16.1338C58.0961 16.1338 57.9871 16.1257 57.9025 16.1094C57.8178 16.0931 57.7169 16.0703 57.5997 16.041V15.0107C57.6355 15.0107 57.673 15.0107 57.712 15.0107C57.7511 15.014 57.7885 15.0156 57.8243 15.0156C58.0099 15.0156 58.1613 14.9945 58.2784 14.9521C58.3956 14.9098 58.49 14.8447 58.5616 14.7568C58.6333 14.6722 58.6902 14.5615 58.7325 14.4248L59.128 13.4043ZM58.5421 8.7168L59.6896 12.5449L59.8898 14.0342L58.9327 14.1367L57.0333 8.7168H58.5421ZM66.6846 12.1396C66.6846 12.0127 66.665 11.8988 66.626 11.7979C66.5902 11.6937 66.5218 11.5993 66.4209 11.5146C66.32 11.4268 66.1784 11.3405 65.9961 11.2559C65.8138 11.1712 65.5778 11.0833 65.2881 10.9922C64.9658 10.888 64.6598 10.7708 64.3701 10.6406C64.0837 10.5104 63.8298 10.359 63.6084 10.1865C63.3903 10.0107 63.2178 9.80729 63.0908 9.57617C62.9671 9.34505 62.9053 9.0765 62.9053 8.77051C62.9053 8.47428 62.9704 8.20573 63.1006 7.96484C63.2308 7.7207 63.4131 7.51237 63.6475 7.33984C63.8818 7.16406 64.1585 7.02897 64.4775 6.93457C64.7998 6.84017 65.153 6.79297 65.5371 6.79297C66.0612 6.79297 66.5186 6.88737 66.9092 7.07617C67.2998 7.26497 67.6025 7.52376 67.8174 7.85254C68.0355 8.18132 68.1445 8.55729 68.1445 8.98047H66.6895C66.6895 8.77214 66.6455 8.58984 66.5576 8.43359C66.473 8.27409 66.3428 8.14876 66.167 8.05762C65.9945 7.96647 65.7764 7.9209 65.5127 7.9209C65.2588 7.9209 65.0472 7.95996 64.8779 8.03809C64.7087 8.11296 64.5817 8.21549 64.4971 8.3457C64.4124 8.47266 64.3701 8.61589 64.3701 8.77539C64.3701 8.89583 64.3994 9.00488 64.458 9.10254C64.5199 9.2002 64.611 9.29134 64.7314 9.37598C64.8519 9.46061 65 9.54036 65.1758 9.61523C65.3516 9.6901 65.555 9.76335 65.7861 9.83496C66.1735 9.95215 66.5137 10.084 66.8066 10.2305C67.1029 10.377 67.3503 10.5413 67.5488 10.7236C67.7474 10.9059 67.8971 11.1126 67.998 11.3438C68.099 11.5749 68.1494 11.8369 68.1494 12.1299C68.1494 12.4391 68.0892 12.7158 67.9688 12.96C67.8483 13.2041 67.6742 13.4108 67.4463 13.5801C67.2184 13.7493 66.9466 13.8779 66.6309 13.9658C66.3151 14.0537 65.9619 14.0977 65.5713 14.0977C65.2197 14.0977 64.873 14.0521 64.5312 13.9609C64.1895 13.8665 63.8786 13.7249 63.5986 13.5361C63.3219 13.3473 63.1006 13.1064 62.9346 12.8135C62.7686 12.5205 62.6855 12.1738 62.6855 11.7734H64.1553C64.1553 11.9948 64.1895 12.182 64.2578 12.335C64.3262 12.488 64.4222 12.6117 64.5459 12.7061C64.6729 12.8005 64.8226 12.8688 64.9951 12.9111C65.1709 12.9535 65.363 12.9746 65.5713 12.9746C65.8252 12.9746 66.0335 12.9388 66.1963 12.8672C66.3623 12.7956 66.4844 12.6963 66.5625 12.5693C66.6439 12.4424 66.6846 12.2992 66.6846 12.1396ZM72.4735 16.0312V9.7959L72.6542 8.7168H73.8895V16.0312H72.4735ZM69.1337 11.4121V11.3096C69.1337 10.9059 69.1776 10.5397 69.2655 10.2109C69.3567 9.87891 69.4901 9.5957 69.6659 9.36133C69.8417 9.1237 70.0565 8.94141 70.3104 8.81445C70.5676 8.68424 70.8638 8.61914 71.1991 8.61914C71.5214 8.61914 71.7997 8.68424 72.0341 8.81445C72.2684 8.94466 72.4654 9.12858 72.6249 9.36621C72.7876 9.60384 72.9179 9.88379 73.0155 10.2061C73.1132 10.5283 73.188 10.8815 73.2401 11.2656V11.4902C73.1913 11.8581 73.1164 12.1999 73.0155 12.5156C72.9179 12.8314 72.7876 13.1081 72.6249 13.3457C72.4654 13.5833 72.2668 13.7689 72.0292 13.9023C71.7948 14.0326 71.5149 14.0977 71.1893 14.0977C70.8606 14.0977 70.5676 14.0309 70.3104 13.8975C70.0565 13.7607 69.8417 13.5719 69.6659 13.3311C69.4901 13.0902 69.3567 12.807 69.2655 12.4814C69.1776 12.1527 69.1337 11.7962 69.1337 11.4121ZM70.5399 11.3096V11.4121C70.5399 11.6302 70.5578 11.8353 70.5936 12.0273C70.6294 12.2161 70.6864 12.3838 70.7645 12.5303C70.8459 12.6768 70.9501 12.7923 71.077 12.877C71.204 12.9583 71.3602 12.999 71.5458 12.999C71.8029 12.999 72.0097 12.9437 72.1659 12.833C72.3254 12.7191 72.4426 12.5645 72.5175 12.3691C72.5956 12.1738 72.6412 11.9508 72.6542 11.7002V11.0605C72.6444 10.8555 72.6167 10.6715 72.5712 10.5088C72.5289 10.3428 72.4638 10.2012 72.3759 10.084C72.2912 9.9668 72.1805 9.87728 72.0438 9.81543C71.9104 9.75033 71.7476 9.71777 71.5555 9.71777C71.3733 9.71777 71.217 9.75846 71.0868 9.83984C70.9566 9.92122 70.8508 10.0352 70.7694 10.1816C70.6913 10.3249 70.6327 10.4925 70.5936 10.6846C70.5578 10.8766 70.5399 11.085 70.5399 11.3096ZM76.6023 6.5V14H75.1912V6.5H76.6023Z" fill="#0F1418"/>
<path d="M89 0H5C2.23858 0 0 2.23858 0 5V16C0 18.7614 2.23858 21 5 21H89C91.7614 21 94 18.7614 94 16V5C94 2.23858 91.7614 0 89 0Z" fill="url(#paint0_linear_50_203)"/>
<g clip-path="url(#clip0_50_203)">
<path d="M10.4372 12.5785L11.197 14.4591C11.3677 14.8861 11.4388 15.1842 11.4103 15.354C11.8258 14.5051 12.1162 13.5799 12.2813 12.5785H13.1949C12.8021 14.2087 12.284 15.3934 11.6409 16.1324C11.1398 16.7019 10.5909 16.9867 9.9932 16.9867C9.83383 16.9867 9.63735 16.95 9.40421 16.877V16.484C9.51812 16.4968 9.65176 16.5036 9.80546 16.5036C10.0843 16.5036 10.3091 16.4446 10.48 16.327C10.6848 16.1836 10.7873 16.0224 10.7873 15.8438C10.7873 15.7219 10.7073 15.4716 10.5482 15.093L9.48965 12.5785H10.4372ZM4.62267 11.4226L6.01421 14.6617H6.02281L7.42289 11.4226H8.56679C8.81727 13.0289 8.96521 14.4987 9.01062 15.8309H8.04621C8.01227 14.5856 7.91828 13.4145 7.76458 12.3176H7.75618L6.28759 15.8309H5.55315L4.09344 12.3176H4.08485C3.97655 13.371 3.90839 14.5421 3.87997 15.8309H3.00052C3.05735 14.2635 3.19958 12.7942 3.42721 11.4226H4.62267Z" fill="#00758F"/>
<path d="M20.2116 11.3572C21.7085 11.3572 22.4569 12.0868 22.4569 13.5452C22.4569 14.3377 22.2319 14.9363 21.7821 15.3408C21.7011 15.4147 21.6115 15.4785 21.5171 15.5377L22.5764 15.9372L22.5754 15.9372L22.1993 16.4327L20.8198 15.8186C20.5912 15.8703 20.3395 15.8961 20.0654 15.8961C19.3304 15.8961 18.7814 15.7327 18.4184 15.4063C18.02 15.0452 17.8209 14.4767 17.8209 13.7019C17.8209 12.9138 18.0456 12.3175 18.4955 11.9125C18.9052 11.5421 19.4774 11.3572 20.2116 11.3572ZM15.6278 11.3636C16.1628 11.3636 16.6493 11.4728 17.0874 11.6904L16.8649 12.0688C16.49 11.9472 16.1203 11.8862 15.7558 11.8862C15.46 11.8862 15.232 11.9405 15.0732 12.0498C14.9134 12.1581 14.8146 12.2975 14.8146 12.4674C14.8146 12.7285 15.0584 12.9549 15.5086 13.1463C15.6561 13.2078 15.8031 13.27 15.9496 13.3329L15.9832 13.3473L16 13.3546L16.0337 13.369L16.0505 13.3762L16.0841 13.3907C16.4249 13.5372 16.7456 13.6771 16.7456 13.6771C17.1957 13.9209 17.4201 14.1809 17.4201 14.609C17.4201 14.9828 17.2406 15.2897 16.8826 15.5299C16.5243 15.7689 16.043 15.8888 15.4403 15.8888C14.8766 15.8888 14.3303 15.7508 13.8011 15.4772L14.0487 15.0985C14.5041 15.2727 14.9162 15.3597 15.2862 15.3597C15.6333 15.3597 15.905 15.3005 16.1015 15.1838C16.2976 15.0662 16.4152 14.9022 16.4152 14.6942C16.4152 14.4325 16.1765 14.2087 15.7387 14.021C15.6016 13.9633 15.465 13.9049 15.3288 13.8461L15.2952 13.8316C15.2336 13.805 15.1716 13.7781 15.1108 13.7518L15.0778 13.7375C14.7822 13.6092 14.5266 13.4971 14.5266 13.4971C14.0889 13.2529 13.8694 12.9908 13.8694 12.559C13.8694 12.2019 14.0331 11.9133 14.3599 11.6937C14.6875 11.4736 15.1102 11.3636 15.6278 11.3636ZM24.2161 11.4226V15.2886H26.0343V15.8309H23.294V11.4226L24.2161 11.4226ZM27.0446 15.2903V15.3819H26.8447V15.8304H26.6919V15.3819H26.4842V15.2903H27.0446ZM27.4137 15.2903L27.6057 15.6585L27.782 15.2903H27.9986V15.8304H27.8546V15.4194L27.6539 15.8304H27.55L27.349 15.4194H27.3413V15.8304H27.205V15.2903H27.4137ZM20.1175 11.8993C19.2354 11.8993 18.7941 12.4547 18.7941 13.5648C18.7941 14.2006 18.911 14.6617 19.1445 14.9491C19.3607 15.215 19.6993 15.3477 20.1604 15.3477C21.0425 15.3477 21.4837 14.788 21.4837 13.6691C21.4837 13.0422 21.3668 12.5851 21.1336 12.2975C20.9172 12.0322 20.5787 11.8993 20.1175 11.8993" fill="#F29111"/>
<path d="M17.8055 4.27315C18.0981 3.72462 19.1212 4.14002 19.5183 4.33163C19.6156 4.37957 19.7272 4.48085 19.8388 4.51829C20.0128 4.5235 20.1868 4.5339 20.3611 4.53945C20.6882 4.59808 20.9945 4.64598 21.2522 4.75795C22.4498 5.29602 23.2294 5.84433 23.9469 6.75001C24.1002 6.94184 24.1768 7.14943 24.3021 7.35702C24.4759 7.66645 24.6712 7.99126 24.8729 8.28386C24.9633 8.42257 25.0331 8.57682 25.1586 8.69397C25.2075 8.74754 25.3467 8.76333 25.4298 8.79533C25.6597 8.8861 25.9382 8.95501 26.1544 9.06155C26.5581 9.2536 26.9485 9.48246 27.3034 9.71676C27.4356 9.8072 27.5258 9.93523 27.6518 10.0309V10.0792C27.5399 10.1053 27.4284 10.1322 27.3169 10.1537C27.0732 10.2014 26.8573 10.1906 26.6209 10.2384C26.4748 10.2707 26.2934 10.3134 26.1402 10.3242L26.1544 10.3351C26.2445 10.5316 26.7322 10.6914 26.9552 10.8089C27.2261 10.9581 27.4771 11.1389 27.6792 11.3467C27.7489 11.3997 27.8187 11.4479 27.8881 11.5008C27.9367 11.5543 27.9504 11.6236 27.9995 11.6714V11.6875C27.9451 11.6729 27.906 11.645 27.8689 11.6158L27.8468 11.5981C27.8247 11.5806 27.8024 11.5634 27.7769 11.5492C27.6232 11.4692 27.4706 11.3734 27.3169 11.2989C27.0526 11.171 26.7462 11.0967 26.4748 10.9683C26.3214 10.8938 26.1752 10.8089 26.0289 10.7236C25.8964 10.6489 25.7504 10.5053 25.6671 10.3988C25.618 10.3399 25.6113 10.2707 25.5552 10.2282C25.5652 10.157 25.6506 10.1359 25.7368 10.1186L25.7566 10.1146C25.7864 10.1087 25.8155 10.1028 25.8409 10.095C26.2029 9.97777 26.6344 9.93523 27.1917 9.94588C27.1707 9.83913 26.8225 9.70611 26.7113 9.64219C26.4882 9.51949 26.2519 9.39146 26.0152 9.27979C25.8898 9.22131 25.6736 9.17862 25.5347 9.13083C25.3467 9.0722 24.9287 9.01361 24.8246 8.90193C24.6476 8.72589 24.5204 8.51592 24.397 8.30382L24.3634 8.24594C24.3522 8.22665 24.341 8.20736 24.3297 8.18809C24.1838 7.93267 24.0026 7.66638 23.8563 7.40485C23.7799 7.27727 23.7448 7.1653 23.661 7.04293C23.1529 6.29206 22.4008 5.66341 21.489 5.22129C21.1894 5.07744 20.8552 4.94431 20.4864 4.85383C20.2774 4.80567 20.0265 4.8323 19.8038 4.79535H19.6572C19.5321 4.76846 19.4277 4.66729 19.3301 4.61395C19.1145 4.50227 18.8986 4.42729 18.6408 4.34761C18.5505 4.31565 18.2925 4.24123 18.2025 4.29982C18.1468 4.31051 18.1185 4.32657 18.1048 4.36925C18.0493 4.43295 18.0981 4.52891 18.1326 4.58765C18.2372 4.75788 18.3833 4.85905 18.5159 5.0029C18.6338 5.13048 18.7804 5.27434 18.864 5.41305C19.0445 5.71123 19.1285 6.0416 19.2957 6.33974C19.3577 6.45186 19.4558 6.57944 19.5461 6.68057C19.6226 6.76085 19.7617 6.81888 19.8038 6.9205C19.8877 7.02703 19.6782 7.37855 19.6297 7.49019C19.4484 7.92701 19.4835 8.53421 19.6924 8.91285L19.7035 8.93281L19.7147 8.95304C19.7909 9.09172 19.8726 9.24105 20.0753 9.27983C20.0893 9.26925 20.0753 9.2748 20.103 9.26925C20.1521 8.97617 20.1659 8.69393 20.2983 8.46463C20.3748 8.32126 20.5276 8.2199 20.6323 8.10286C20.7022 8.13475 20.7022 8.23089 20.7438 8.29451C20.8344 8.45952 20.9317 8.64044 21.0434 8.80594C21.2727 9.14677 21.5307 9.47721 21.823 9.77536C21.9209 9.88185 22.0598 9.99907 22.1851 10.095C22.2409 10.1321 22.3034 10.1536 22.3454 10.2014H22.359V10.2175C22.1502 10.1587 22.0177 9.99386 21.8511 9.89761C21.5375 9.71669 21.1619 9.44499 20.9457 9.18428C20.8552 9.03462 20.7575 8.89117 20.66 8.74225V8.73148C20.6184 8.77402 20.6323 8.81626 20.6115 8.88063C20.5211 9.14677 20.5907 9.45039 20.2774 9.54612C19.9222 9.65824 19.6573 9.3652 19.5461 9.23204C19.1908 8.79004 19.0935 8.04438 19.3441 7.44247C19.3997 7.30923 19.4073 7.14943 19.5045 7.04305C19.4835 6.94687 19.3863 6.92057 19.3301 6.86164C19.2326 6.76092 19.1492 6.64358 19.0729 6.53172C18.9263 6.31322 18.822 6.05214 18.7107 5.8178C18.6618 5.72211 18.6478 5.62605 18.599 5.53546C18.5158 5.39719 18.3625 5.25847 18.2442 5.13614C18.084 4.96033 17.6174 4.61957 17.8055 4.27315ZM20.0892 5.31669C20.1078 5.33092 20.1302 5.34336 20.1535 5.35562L20.1815 5.37029C20.2188 5.39003 20.255 5.41082 20.2772 5.43913C20.3123 5.4766 20.3189 5.51359 20.361 5.55114C20.361 5.67916 20.3123 5.76428 20.2141 5.81732C20.2141 5.81732 20.2075 5.82291 20.2006 5.82812C20.1449 5.74278 20.0961 5.65789 20.0401 5.57263C19.971 5.49821 19.8734 5.43917 19.8172 5.35413H19.8037V5.34344C19.8877 5.3276 19.971 5.31669 20.0892 5.31669Z" fill="#00758F"/>
</g>
<defs>
<linearGradient id="paint0_linear_50_203" x1="0" y1="0" x2="0" y2="21" gradientUnits="userSpaceOnUse">
<stop stop-color="#BBBBBB" stop-opacity="0.1"/>
<stop offset="1" stop-opacity="0.1"/>
</linearGradient>
<clipPath id="clip0_50_203">
<rect width="25" height="13" fill="white" transform="translate(3 4)"/>
</clipPath>
</defs>
</svg>
