<svg width="104" height="21" viewBox="0 0 104 21" fill="none" xmlns="http://www.w3.org/2000/svg">
<path d="M99 0H31V21H99C101.761 21 104 18.7614 104 16V5C104 2.23858 101.761 0 99 0Z" fill="white"/>
<path d="M31 0H5C2.23858 0 0 2.23858 0 5V16C0 18.7614 2.23858 21 5 21H31V0Z" fill="#336791"/>
<path d="M45.3487 11.4658H43.5371V10.3232H45.3487C45.6286 10.3232 45.8565 10.2777 46.0323 10.1865C46.208 10.0921 46.3366 9.96191 46.418 9.7959C46.4994 9.62988 46.5401 9.44271 46.5401 9.23438C46.5401 9.02279 46.4994 8.82585 46.418 8.64355C46.3366 8.46126 46.208 8.31478 46.0323 8.2041C45.8565 8.09342 45.6286 8.03809 45.3487 8.03809H44.045V14H42.5801V6.89062H45.3487C45.9053 6.89062 46.3822 6.99154 46.7793 7.19336C47.1797 7.39193 47.4857 7.66699 47.6973 8.01855C47.9089 8.37012 48.0147 8.77214 48.0147 9.22461C48.0147 9.68359 47.9089 10.0807 47.6973 10.416C47.4857 10.7513 47.1797 11.0101 46.7793 11.1924C46.3822 11.3747 45.9053 11.4658 45.3487 11.4658ZM48.9403 11.4121V11.3096C48.9403 10.9222 48.9957 10.5658 49.1064 10.2402C49.217 9.91146 49.3782 9.62663 49.5898 9.38574C49.8014 9.14486 50.0618 8.95768 50.371 8.82422C50.6803 8.6875 51.0351 8.61914 51.4355 8.61914C51.8359 8.61914 52.1923 8.6875 52.5048 8.82422C52.8173 8.95768 53.0793 9.14486 53.2909 9.38574C53.5058 9.62663 53.6685 9.91146 53.7792 10.2402C53.8899 10.5658 53.9452 10.9222 53.9452 11.3096V11.4121C53.9452 11.7962 53.8899 12.1527 53.7792 12.4814C53.6685 12.807 53.5058 13.0918 53.2909 13.3359C53.0793 13.5768 52.8189 13.764 52.5097 13.8975C52.2004 14.0309 51.8456 14.0977 51.4452 14.0977C51.0448 14.0977 50.6884 14.0309 50.3759 13.8975C50.0667 13.764 49.8046 13.5768 49.5898 13.3359C49.3782 13.0918 49.217 12.807 49.1064 12.4814C48.9957 12.1527 48.9403 11.7962 48.9403 11.4121ZM50.3466 11.3096V11.4121C50.3466 11.6335 50.3661 11.8402 50.4052 12.0322C50.4443 12.2243 50.5061 12.3936 50.5907 12.54C50.6786 12.6833 50.7926 12.7956 50.9325 12.877C51.0725 12.9583 51.2434 12.999 51.4452 12.999C51.6405 12.999 51.8082 12.9583 51.9482 12.877C52.0881 12.7956 52.2004 12.6833 52.2851 12.54C52.3697 12.3936 52.4316 12.2243 52.4706 12.0322C52.5129 11.8402 52.5341 11.6335 52.5341 11.4121V11.3096C52.5341 11.0947 52.5129 10.8929 52.4706 10.7041C52.4316 10.512 52.3681 10.3428 52.2802 10.1963C52.1956 10.0465 52.0833 9.92936 51.9433 9.84473C51.8033 9.76009 51.634 9.71777 51.4355 9.71777C51.2369 9.71777 51.0676 9.76009 50.9277 9.84473C50.7909 9.92936 50.6786 10.0465 50.5907 10.1963C50.5061 10.3428 50.4443 10.512 50.4052 10.7041C50.3661 10.8929 50.3466 11.0947 50.3466 11.3096ZM57.7859 12.54C57.7859 12.4391 57.7566 12.348 57.698 12.2666C57.6395 12.1852 57.5304 12.1104 57.3709 12.042C57.2146 11.9704 56.9884 11.9053 56.6922 11.8467C56.4253 11.7881 56.1762 11.7148 55.9451 11.627C55.7173 11.5358 55.5187 11.4268 55.3494 11.2998C55.1834 11.1729 55.0532 11.0231 54.9588 10.8506C54.8644 10.6748 54.8172 10.4746 54.8172 10.25C54.8172 10.0286 54.8644 9.82031 54.9588 9.625C55.0564 9.42969 55.1948 9.25716 55.3738 9.10742C55.5561 8.95443 55.7775 8.83561 56.0379 8.75098C56.3016 8.66309 56.5978 8.61914 56.9266 8.61914C57.3855 8.61914 57.7794 8.69238 58.1082 8.83887C58.4402 8.98535 58.6941 9.18717 58.8699 9.44434C59.049 9.69824 59.1385 9.98796 59.1385 10.3135H57.7322C57.7322 10.1768 57.7029 10.0547 57.6443 9.94727C57.589 9.83659 57.5011 9.75033 57.3807 9.68848C57.2635 9.62337 57.1105 9.59082 56.9217 9.59082C56.7654 9.59082 56.6303 9.61849 56.5164 9.67383C56.4025 9.72591 56.3146 9.79753 56.2527 9.88867C56.1941 9.97656 56.1648 10.0742 56.1648 10.1816C56.1648 10.263 56.1811 10.3363 56.2137 10.4014C56.2495 10.4632 56.3064 10.5202 56.3846 10.5723C56.4627 10.6243 56.5636 10.6732 56.6873 10.7188C56.8143 10.7611 56.9705 10.8001 57.1561 10.8359C57.5369 10.9141 57.8771 11.0166 58.1766 11.1436C58.476 11.2673 58.7137 11.4365 58.8895 11.6514C59.0652 11.863 59.1531 12.1413 59.1531 12.4863C59.1531 12.7207 59.101 12.9355 58.9969 13.1309C58.8927 13.3262 58.743 13.4971 58.5477 13.6436C58.3523 13.7868 58.118 13.8991 57.8445 13.9805C57.5743 14.0586 57.27 14.0977 56.9314 14.0977C56.4399 14.0977 56.0232 14.0098 55.6814 13.834C55.3429 13.6582 55.0857 13.4352 54.91 13.165C54.7374 12.8916 54.6512 12.6117 54.6512 12.3252H55.9842C55.9907 12.5173 56.0395 12.6719 56.1307 12.7891C56.2251 12.9062 56.3439 12.9909 56.4871 13.043C56.6336 13.0951 56.7915 13.1211 56.9607 13.1211C57.143 13.1211 57.2944 13.0967 57.4148 13.0479C57.5353 12.9958 57.6264 12.9274 57.6883 12.8428C57.7534 12.7549 57.7859 12.654 57.7859 12.54ZM62.7741 8.7168V9.71289H59.6979V8.7168H62.7741ZM60.4596 7.41309H61.8659V12.4082C61.8659 12.5612 61.8854 12.6784 61.9245 12.7598C61.9668 12.8411 62.0287 12.8981 62.11 12.9307C62.1914 12.96 62.294 12.9746 62.4177 12.9746C62.5055 12.9746 62.5837 12.9714 62.652 12.9648C62.7236 12.9551 62.7839 12.9453 62.8327 12.9355L62.8376 13.9707C62.7171 14.0098 62.5869 14.0407 62.447 14.0635C62.307 14.0863 62.1524 14.0977 61.9831 14.0977C61.6738 14.0977 61.4037 14.0472 61.1725 13.9463C60.9447 13.8421 60.7689 13.6761 60.6452 13.4482C60.5215 13.2204 60.4596 12.9209 60.4596 12.5498V7.41309ZM67.0396 8.7168H68.314V13.8242C68.314 14.306 68.2066 14.7145 67.9918 15.0498C67.7802 15.3883 67.4839 15.6439 67.1031 15.8164C66.7222 15.9922 66.2795 16.0801 65.775 16.0801C65.5536 16.0801 65.3192 16.0508 65.0718 15.9922C64.8277 15.9336 64.5933 15.8424 64.3687 15.7188C64.1474 15.5951 63.9618 15.4388 63.8121 15.25L64.4322 14.4199C64.5949 14.6087 64.7837 14.7552 64.9986 14.8594C65.2134 14.9668 65.4511 15.0205 65.7115 15.0205C65.9654 15.0205 66.1802 14.9733 66.356 14.8789C66.5318 14.7878 66.6669 14.6527 66.7613 14.4736C66.8557 14.2979 66.9029 14.0846 66.9029 13.834V9.9375L67.0396 8.7168ZM63.4849 11.4219V11.3193C63.4849 10.9157 63.5337 10.5495 63.6314 10.2207C63.7323 9.88867 63.8739 9.60384 64.0562 9.36621C64.2418 9.12858 64.4664 8.94466 64.73 8.81445C64.9937 8.68424 65.2916 8.61914 65.6236 8.61914C65.9752 8.61914 66.2698 8.68424 66.5074 8.81445C66.745 8.94466 66.9403 9.13021 67.0933 9.37109C67.2463 9.60872 67.3651 9.8903 67.4498 10.2158C67.5377 10.5381 67.606 10.8913 67.6548 11.2754V11.5C67.606 11.8678 67.5328 12.2096 67.4351 12.5254C67.3375 12.8411 67.2089 13.1178 67.0494 13.3555C66.8899 13.5898 66.6913 13.7721 66.4537 13.9023C66.2193 14.0326 65.9393 14.0977 65.6138 14.0977C65.2883 14.0977 64.9937 14.0309 64.73 13.8975C64.4696 13.764 64.2466 13.5768 64.0611 13.3359C63.8755 13.0951 63.7323 12.8118 63.6314 12.4863C63.5337 12.1608 63.4849 11.806 63.4849 11.4219ZM64.8912 11.3193V11.4219C64.8912 11.64 64.9123 11.8434 64.9546 12.0322C64.997 12.221 65.0621 12.3887 65.15 12.5352C65.2411 12.6784 65.3534 12.7907 65.4869 12.8721C65.6236 12.9502 65.7847 12.9893 65.9703 12.9893C66.2274 12.9893 66.4374 12.9355 66.6002 12.8281C66.7629 12.7174 66.885 12.5661 66.9664 12.374C67.0477 12.182 67.0949 11.9606 67.108 11.71V11.0703C67.1015 10.8652 67.0738 10.6813 67.025 10.5186C66.9761 10.3525 66.9078 10.2109 66.8199 10.0938C66.732 9.97656 66.6181 9.88542 66.4781 9.82031C66.3381 9.75521 66.1721 9.72266 65.98 9.72266C65.7945 9.72266 65.6334 9.76497 65.4966 9.84961C65.3632 9.93099 65.2509 10.0433 65.1597 10.1865C65.0718 10.3298 65.0051 10.499 64.9595 10.6943C64.914 10.8864 64.8912 11.0947 64.8912 11.3193ZM70.934 9.86914V14H69.5278V8.7168H70.851L70.934 9.86914ZM72.5258 8.68262L72.5014 9.98633C72.433 9.97656 72.35 9.96842 72.2524 9.96191C72.158 9.95215 72.0717 9.94727 71.9936 9.94727C71.795 9.94727 71.6225 9.97331 71.476 10.0254C71.3328 10.0742 71.2123 10.1475 71.1147 10.2451C71.0203 10.3428 70.9487 10.4616 70.8998 10.6016C70.8543 10.7415 70.8282 10.901 70.8217 11.0801L70.5385 10.9922C70.5385 10.6504 70.5727 10.3363 70.6411 10.0498C70.7094 9.76009 70.8087 9.50781 70.9389 9.29297C71.0724 9.07812 71.2351 8.91211 71.4272 8.79492C71.6192 8.67773 71.839 8.61914 72.0864 8.61914C72.1645 8.61914 72.2442 8.62565 72.3256 8.63867C72.407 8.64844 72.4737 8.66309 72.5258 8.68262ZM75.6439 14.0977C75.2337 14.0977 74.8659 14.0326 74.5404 13.9023C74.2148 13.7689 73.9381 13.585 73.7103 13.3506C73.4857 13.1162 73.3131 12.8444 73.1927 12.5352C73.0723 12.2227 73.012 11.8906 73.012 11.5391V11.3438C73.012 10.9434 73.069 10.5771 73.1829 10.2451C73.2969 9.91309 73.4596 9.625 73.6712 9.38086C73.8861 9.13672 74.1465 8.94954 74.4525 8.81934C74.7585 8.68587 75.1035 8.61914 75.4876 8.61914C75.862 8.61914 76.194 8.68099 76.4837 8.80469C76.7734 8.92839 77.0159 9.10417 77.2113 9.33203C77.4098 9.5599 77.5596 9.83333 77.6605 10.1523C77.7614 10.4681 77.8118 10.8197 77.8118 11.207V11.793H73.6126V10.8555H76.43V10.748C76.43 10.5527 76.3942 10.3786 76.3226 10.2256C76.2542 10.0693 76.1501 9.94564 76.0101 9.85449C75.8701 9.76335 75.6911 9.71777 75.473 9.71777C75.2874 9.71777 75.1279 9.75846 74.9945 9.83984C74.861 9.92122 74.7519 10.0352 74.6673 10.1816C74.5859 10.3281 74.5241 10.5007 74.4818 10.6992C74.4427 10.8945 74.4232 11.1094 74.4232 11.3438V11.5391C74.4232 11.7507 74.4525 11.946 74.5111 12.125C74.5729 12.304 74.6592 12.4587 74.7698 12.5889C74.8838 12.7191 75.0205 12.82 75.18 12.8916C75.3428 12.9632 75.5267 12.999 75.7318 12.999C75.9857 12.999 76.2217 12.9502 76.4398 12.8525C76.6611 12.7516 76.8515 12.6003 77.0111 12.3984L77.6946 13.1406C77.584 13.3001 77.4326 13.4531 77.2405 13.5996C77.0517 13.7461 76.8239 13.8665 76.557 13.9609C76.29 14.0521 75.9857 14.0977 75.6439 14.0977ZM82.6975 12.1396C82.6975 12.0127 82.6779 11.8988 82.6389 11.7979C82.6031 11.6937 82.5347 11.5993 82.4338 11.5146C82.3329 11.4268 82.1913 11.3405 82.009 11.2559C81.8267 11.1712 81.5907 11.0833 81.301 10.9922C80.9787 10.888 80.6727 10.7708 80.383 10.6406C80.0965 10.5104 79.8426 10.359 79.6213 10.1865C79.4032 10.0107 79.2307 9.80729 79.1037 9.57617C78.98 9.34505 78.9182 9.0765 78.9182 8.77051C78.9182 8.47428 78.9833 8.20573 79.1135 7.96484C79.2437 7.7207 79.426 7.51237 79.6604 7.33984C79.8947 7.16406 80.1714 7.02897 80.4904 6.93457C80.8127 6.84017 81.1659 6.79297 81.55 6.79297C82.0741 6.79297 82.5314 6.88737 82.9221 7.07617C83.3127 7.26497 83.6154 7.52376 83.8303 7.85254C84.0484 8.18132 84.1574 8.55729 84.1574 8.98047H82.7023C82.7023 8.77214 82.6584 8.58984 82.5705 8.43359C82.4859 8.27409 82.3557 8.14876 82.1799 8.05762C82.0074 7.96647 81.7893 7.9209 81.5256 7.9209C81.2717 7.9209 81.0601 7.95996 80.8908 8.03809C80.7215 8.11296 80.5946 8.21549 80.51 8.3457C80.4253 8.47266 80.383 8.61589 80.383 8.77539C80.383 8.89583 80.4123 9.00488 80.4709 9.10254C80.5327 9.2002 80.6239 9.29134 80.7443 9.37598C80.8648 9.46061 81.0129 9.54036 81.1887 9.61523C81.3645 9.6901 81.5679 9.76335 81.799 9.83496C82.1864 9.95215 82.5266 10.084 82.8195 10.2305C83.1158 10.377 83.3632 10.5413 83.5617 10.7236C83.7603 10.9059 83.91 11.1126 84.0109 11.3438C84.1118 11.5749 84.1623 11.8369 84.1623 12.1299C84.1623 12.4391 84.1021 12.7158 83.9816 12.96C83.8612 13.2041 83.687 13.4108 83.4592 13.5801C83.2313 13.7493 82.9595 13.8779 82.6437 13.9658C82.328 14.0537 81.9748 14.0977 81.5842 14.0977C81.2326 14.0977 80.8859 14.0521 80.5441 13.9609C80.2023 13.8665 79.8915 13.7249 79.6115 13.5361C79.3348 13.3473 79.1135 13.1064 78.9475 12.8135C78.7814 12.5205 78.6984 12.1738 78.6984 11.7734H80.1682C80.1682 11.9948 80.2023 12.182 80.2707 12.335C80.3391 12.488 80.4351 12.6117 80.5588 12.7061C80.6857 12.8005 80.8355 12.8688 81.008 12.9111C81.1838 12.9535 81.3758 12.9746 81.5842 12.9746C81.8381 12.9746 82.0464 12.9388 82.2092 12.8672C82.3752 12.7956 82.4973 12.6963 82.5754 12.5693C82.6568 12.4424 82.6975 12.2992 82.6975 12.1396ZM88.4864 16.0312V9.7959L88.6671 8.7168H89.9024V16.0312H88.4864ZM85.1466 11.4121V11.3096C85.1466 10.9059 85.1905 10.5397 85.2784 10.2109C85.3695 9.87891 85.503 9.5957 85.6788 9.36133C85.8546 9.1237 86.0694 8.94141 86.3233 8.81445C86.5805 8.68424 86.8767 8.61914 87.212 8.61914C87.5343 8.61914 87.8126 8.68424 88.047 8.81445C88.2813 8.94466 88.4783 9.12858 88.6378 9.36621C88.8005 9.60384 88.9307 9.88379 89.0284 10.2061C89.1261 10.5283 89.2009 10.8815 89.253 11.2656V11.4902C89.2042 11.8581 89.1293 12.1999 89.0284 12.5156C88.9307 12.8314 88.8005 13.1081 88.6378 13.3457C88.4783 13.5833 88.2797 13.7689 88.0421 13.9023C87.8077 14.0326 87.5277 14.0977 87.2022 14.0977C86.8734 14.0977 86.5805 14.0309 86.3233 13.8975C86.0694 13.7607 85.8546 13.5719 85.6788 13.3311C85.503 13.0902 85.3695 12.807 85.2784 12.4814C85.1905 12.1527 85.1466 11.7962 85.1466 11.4121ZM86.5528 11.3096V11.4121C86.5528 11.6302 86.5707 11.8353 86.6065 12.0273C86.6423 12.2161 86.6993 12.3838 86.7774 12.5303C86.8588 12.6768 86.963 12.7923 87.0899 12.877C87.2169 12.9583 87.3731 12.999 87.5587 12.999C87.8158 12.999 88.0225 12.9437 88.1788 12.833C88.3383 12.7191 88.4555 12.5645 88.5303 12.3691C88.6085 12.1738 88.654 11.9508 88.6671 11.7002V11.0605C88.6573 10.8555 88.6296 10.6715 88.5841 10.5088C88.5417 10.3428 88.4766 10.2012 88.3887 10.084C88.3041 9.9668 88.1934 9.87728 88.0567 9.81543C87.9233 9.75033 87.7605 9.71777 87.5684 9.71777C87.3861 9.71777 87.2299 9.75846 87.0997 9.83984C86.9695 9.92122 86.8637 10.0352 86.7823 10.1816C86.7042 10.3249 86.6456 10.4925 86.6065 10.6846C86.5707 10.8766 86.5528 11.085 86.5528 11.3096ZM92.6152 6.5V14H91.2041V6.5H92.6152Z" fill="#0F1418"/>
<path d="M99 0H5C2.23858 0 0 2.23858 0 5V16C0 18.7614 2.23858 21 5 21H99C101.761 21 104 18.7614 104 16V5C104 2.23858 101.761 0 99 0Z" fill="url(#paint0_linear_50_221)"/>
<path fill-rule="evenodd" clip-rule="evenodd" d="M15.9169 16.0933C16.1689 16.3017 16.4644 16.3906 16.7833 16.407C16.9152 16.4139 17.0509 16.4075 17.1807 16.3838C17.3866 16.3464 17.5919 16.2995 17.7921 16.2391C18.1999 16.1161 18.5524 15.9035 18.8155 15.56C18.9654 15.3643 19.0884 15.1527 19.1674 14.9187C19.2327 14.7256 19.294 14.5305 19.3428 14.333C19.3813 14.1773 19.4005 14.0165 19.4238 13.8575C19.4394 13.7523 19.4488 13.646 19.4585 13.5398C19.4743 13.3676 19.4907 13.1956 19.5021 13.0229C19.5101 12.9028 19.5099 12.7821 19.5145 12.6619C19.5161 12.6252 19.522 12.5888 19.5255 12.5524C19.5284 12.5185 19.5456 12.5068 19.5802 12.5074C19.7017 12.5092 19.8235 12.5123 19.9448 12.5068C20.0808 12.5007 20.2178 12.4948 20.3516 12.4725C20.5422 12.4406 20.7312 12.4002 20.9181 12.3515C21.1386 12.2938 21.3409 12.1904 21.5359 12.0728C21.7625 11.9357 21.9695 11.775 22.137 11.5678C22.2831 11.3876 22.3523 11.1786 22.317 10.9506C22.2658 10.6195 21.9875 10.4025 21.664 10.3877C21.5467 10.3824 21.4277 10.3947 21.311 10.4095C21.1697 10.4275 21.0304 10.4593 20.8895 10.4803C20.7922 10.4949 20.6936 10.5013 20.5966 10.5115L20.5939 10.4988C20.7754 10.1561 20.9644 9.81734 21.1359 9.47C21.2677 9.20337 21.3802 8.92733 21.4965 8.65311C21.6891 8.19917 21.8428 7.73131 21.9702 7.25558C22.0922 6.80023 22.1965 6.33997 22.2296 5.86747C22.2428 5.67889 22.2519 5.48947 22.2506 5.30061C22.2498 5.14986 22.2335 4.99897 22.2184 4.84878C22.2013 4.67666 22.1493 4.51353 22.0773 4.35659C21.9825 4.14959 21.8352 3.97986 21.6804 3.8187C21.5565 3.68961 21.4201 3.57205 21.285 3.45448C21.0922 3.28686 20.8753 3.15284 20.6503 3.03402C20.3953 2.89854 20.1251 2.79375 19.8454 2.72183C19.675 2.67886 19.5034 2.64036 19.331 2.60637C19.2697 2.594 19.2078 2.5625 19.1461 2.5625H17.9834C17.9413 2.5625 17.8997 2.59006 17.8574 2.5947C17.5791 2.62508 17.3044 2.68182 17.0368 2.76416C16.937 2.79495 16.8459 2.77695 16.7509 2.76809C16.6781 2.76134 16.6065 2.74264 16.5337 2.73898C16.2565 2.7252 15.9791 2.70523 15.7017 2.70819C15.4362 2.711 15.1734 2.75488 14.9165 2.82772C14.7015 2.88903 14.491 2.96342 14.298 3.07663C14.2156 3.125 14.1501 3.11586 14.0647 3.09139C13.7781 3.00741 13.4889 2.93219 13.1976 2.86583C13.0161 2.82519 12.8292 2.80466 12.6437 2.78553C12.4657 2.76704 12.287 2.75592 12.1081 2.7522C11.9334 2.74841 11.7576 2.74855 11.5837 2.76402C11.3068 2.78863 11.0352 2.84487 10.7711 2.93572C10.48 3.03525 10.208 3.18367 9.96677 3.37461C9.72068 3.56937 9.52324 3.80689 9.36476 4.07844C9.19755 4.36489 9.08266 4.67159 9.01151 4.99348C8.97284 5.168 8.98704 5.34744 8.96046 5.52462C8.9523 5.57947 8.96876 5.63459 8.96876 5.68972V6.46105C8.96876 6.51223 8.95371 6.56356 8.96018 6.61503C8.97607 6.73864 8.97059 6.86323 8.99154 6.986C9.02444 7.18034 9.05412 7.37398 9.09405 7.56692C9.14988 7.8365 9.20318 8.1058 9.26505 8.37411C9.31005 8.56944 9.35885 8.76364 9.41243 8.95672C9.49399 9.25175 9.57359 9.5472 9.66598 9.83872C9.7519 10.1097 9.84977 10.3767 9.94751 10.6439C10.0814 11.0134 10.2456 11.3712 10.4383 11.7137C10.6063 12.0105 10.798 12.2885 11.0554 12.5171C11.2251 12.6678 11.4137 12.7835 11.6332 12.8415C11.8047 12.887 11.9844 12.892 12.1581 12.8561C12.3595 12.8152 12.5477 12.7251 12.7059 12.5938C12.7244 12.5788 12.7445 12.5671 12.7666 12.595C12.8501 12.7007 12.9618 12.7713 13.0787 12.8322C13.3939 12.9967 13.7375 13.0461 14.0864 13.0661C14.171 13.0708 14.2563 13.0588 14.3413 13.0565C14.5074 13.0519 14.6686 13.0195 14.8271 12.9737C14.9103 12.9496 14.9914 12.919 15.0761 12.8906C15.0805 12.9807 15.0861 13.0673 15.0889 13.1541L15.1006 13.627C15.1028 13.699 15.1056 13.771 15.1122 13.8427C15.1294 14.0275 15.1461 14.2123 15.1682 14.3965C15.1834 14.5235 15.1994 14.6513 15.2292 14.7754C15.2892 15.0253 15.3712 15.2695 15.4742 15.5049C15.5729 15.7335 15.7246 15.9352 15.9169 16.0933V16.0933ZM15.4119 13.7353C15.4019 13.5132 15.3945 13.2911 15.3896 13.0689C15.3836 12.7958 15.3817 12.5225 15.3779 12.2495L15.3772 12.239C15.2384 12.3224 15.1016 12.4136 14.9569 12.4888C14.7871 12.577 14.6029 12.628 14.4121 12.6425C14.2626 12.6538 14.1109 12.664 13.9621 12.6522C13.7179 12.6324 13.4738 12.5943 13.2553 12.4739C13.1667 12.4251 13.0742 12.3656 13.013 12.2878C12.8666 12.101 12.9368 11.8648 13.1576 11.7512C13.3101 11.6725 13.4766 11.6397 13.642 11.6015C13.786 11.5688 13.9284 11.5299 14.0689 11.4847C14.2076 11.4393 14.2951 11.3268 14.3816 11.2164L14.5185 11.0404L14.3539 11.0232C14.1904 11.008 14.0345 10.9629 13.8854 10.8968C13.758 10.8404 13.7561 10.8342 13.6624 10.9357C13.5063 11.1052 13.3544 11.2789 13.2013 11.4513C13.0886 11.5781 12.9769 11.7057 12.8645 11.8329C12.7537 11.9588 12.6496 12.0917 12.5299 12.2087C12.3525 12.3825 12.1384 12.487 11.8831 12.4752C11.7192 12.4676 11.5693 12.4102 11.4343 12.3164C11.156 12.1226 10.9686 11.8512 10.7977 11.5664C10.5791 11.2014 10.411 10.8125 10.2674 10.4132C10.168 10.137 10.068 9.86066 9.9814 9.58053C9.88704 9.27608 9.80421 8.96811 9.72279 8.65986C9.66119 8.42741 9.60663 8.19298 9.5546 7.95814C9.4947 7.6912 9.43929 7.42327 9.38838 7.15447C9.35449 6.97292 9.33494 6.7887 9.30752 6.60603C9.27054 6.35952 9.26379 6.11103 9.27729 5.86367C9.28924 5.64078 9.32116 5.41859 9.35294 5.19725C9.39696 4.89097 9.49793 4.60198 9.64305 4.32903C9.73258 4.1627 9.8423 4.00806 9.96973 3.86863C10.1793 3.63673 10.4328 3.46925 10.7149 3.34339C10.9119 3.2555 11.1202 3.20277 11.3324 3.16128C11.6474 3.09997 11.9652 3.1025 12.283 3.10897C12.4219 3.11192 12.5605 3.13709 12.6993 3.15102C12.9982 3.18069 13.2911 3.24369 13.5804 3.32117C13.7914 3.3777 13.9979 3.45111 14.2069 3.51467C14.2277 3.521 14.2585 3.52044 14.2758 3.50933C14.5592 3.32427 14.8687 3.2022 15.1982 3.13231C15.3232 3.10588 15.4523 3.0942 15.5801 3.08605C15.7354 3.07634 15.8921 3.06706 16.0471 3.0762C16.2334 3.08689 16.4192 3.11431 16.6044 3.13963C16.6944 3.152 16.7822 3.18308 16.8722 3.19152C16.9155 3.19559 16.9612 3.16423 17.0067 3.15355C17.2393 3.09969 17.4709 3.03992 17.7056 2.99759C17.8803 2.96609 18.0589 2.95119 18.2364 2.94106C18.4346 2.92967 18.6341 2.92137 18.8321 2.93094C19.0824 2.94303 19.3309 2.97861 19.5761 3.0357C19.8801 3.10644 20.1715 3.20909 20.4487 3.35169C20.6558 3.45842 20.8526 3.58189 21.0299 3.73377C21.146 3.83347 21.265 3.93177 21.3698 4.04286C21.4991 4.17983 21.6311 4.31666 21.7123 4.49202C21.7735 4.62434 21.8171 4.76131 21.8292 4.90602C21.8441 5.08616 21.8622 5.26686 21.8607 5.44728C21.8591 5.61969 21.8355 5.79195 21.8189 5.96408C21.7808 6.35614 21.6957 6.73977 21.5921 7.11833C21.5056 7.43102 21.4076 7.74042 21.2983 8.04589C21.1986 8.32756 21.0835 8.60403 20.9672 8.87952C20.8814 9.08348 20.7884 9.28428 20.6882 9.48153C20.4978 9.85447 20.2998 10.2236 20.0707 10.5752C20.0312 10.6358 19.9936 10.6979 19.9551 10.76C20.0551 10.8273 20.1683 10.8511 20.2822 10.8635C20.3906 10.8751 20.5011 10.8823 20.6094 10.8741C20.7828 10.8612 20.9556 10.8365 21.128 10.8124C21.2988 10.7885 21.466 10.74 21.6415 10.7528C21.8164 10.7656 21.9418 10.8986 21.9299 11.0626C21.9223 11.1664 21.8746 11.2554 21.8057 11.3315C21.4802 11.6906 21.0715 11.9083 20.6041 12.0156C20.4265 12.0564 20.2434 12.0773 20.0615 12.0943C19.9063 12.1081 19.7503 12.1117 19.5945 12.1053C19.4803 12.1011 19.3671 12.0749 19.2504 12.0581C19.2386 12.1648 19.2275 12.276 19.214 12.3868L19.1596 12.812C19.1431 12.9467 19.1303 13.082 19.1133 13.2167C19.0967 13.3475 19.076 13.4775 19.0586 13.6082C19.0424 13.7298 19.0305 13.8522 19.0122 13.9737C18.9845 14.1598 18.9579 14.3465 18.9215 14.5312C18.8779 14.752 18.8112 14.9658 18.702 15.165C18.5689 15.4082 18.3804 15.5934 18.1402 15.7305C17.8927 15.8718 17.622 15.9454 17.3479 16.007C17.1536 16.0507 16.9537 16.0577 16.757 16.0399C16.416 16.0091 16.1249 15.8632 15.9048 15.5987C15.6949 15.3463 15.5527 15.0572 15.5019 14.7297C15.478 14.5738 15.4594 14.4172 15.4462 14.2601C15.431 14.0854 15.4196 13.9105 15.4119 13.7353V13.7353ZM15.7953 11.4918C15.7974 11.6085 15.7853 11.7252 15.7858 11.8419C15.7882 12.3852 15.7922 12.9285 15.7968 13.4719C15.7976 13.5606 15.802 13.6497 15.8083 13.7383C15.8217 13.9239 15.8349 14.1096 15.8529 14.2947C15.8659 14.4262 15.8834 14.5572 15.9041 14.6877C15.9336 14.8724 16.0177 15.0369 16.1131 15.1943C16.1952 15.3296 16.3022 15.4443 16.443 15.5236C16.6823 15.6582 16.9398 15.6695 17.1994 15.62C17.3748 15.5866 17.5472 15.5328 17.7173 15.4772C17.8848 15.4235 18.0377 15.332 18.1642 15.2099C18.2836 15.0943 18.3683 14.9532 18.4254 14.7976C18.536 14.4958 18.5708 14.1778 18.6165 13.8626C18.6336 13.7444 18.6485 13.626 18.6641 13.5078C18.682 13.3732 18.7 13.2387 18.7172 13.1042C18.7301 13.0038 18.7416 12.9035 18.7539 12.8032C18.7714 12.6592 18.7899 12.5154 18.8066 12.3714C18.8194 12.26 18.8301 12.1482 18.8416 12.0365C18.8562 11.8938 18.8719 11.7515 18.8846 11.6085C18.8942 11.5002 18.8903 11.3898 18.9095 11.2834C18.9448 11.0883 19.0371 10.9224 19.2101 10.8149C19.2823 10.7702 19.3642 10.7407 19.4443 10.7027L19.4306 10.6818C19.3564 10.5856 19.2805 10.4909 19.2078 10.3936C19.0936 10.2409 19.0115 10.0706 18.9289 9.89947C18.8508 9.73719 18.7551 9.58362 18.6729 9.42317C18.5293 9.14333 18.383 8.86419 18.2507 8.57914C18.0844 8.22055 17.9533 7.84958 17.9121 7.45245C17.8945 7.28455 17.89 7.11664 17.9242 6.95028C17.9786 6.6845 18.1173 6.47666 18.3507 6.33406C18.5673 6.20187 18.8084 6.15913 19.0555 6.14577C19.2088 6.13747 19.3631 6.14422 19.5221 6.14422L19.5169 6.11736C19.4179 5.91036 19.3255 5.69984 19.2171 5.49791C19.0644 5.21272 18.8686 4.95566 18.6509 4.71702C18.4903 4.53957 18.3138 4.37718 18.1236 4.23186C17.9354 4.08941 17.7371 3.96214 17.5255 3.85822C17.2741 3.73316 17.0086 3.63873 16.7346 3.57697C16.4696 3.51819 16.2031 3.48219 15.9311 3.47923C15.6994 3.4767 15.469 3.48739 15.2432 3.53956C14.9023 3.61845 14.5905 3.7588 14.3195 3.98605C14.1694 4.11186 14.0354 4.25562 13.9203 4.41411C13.7843 4.60044 13.6749 4.80209 13.5813 5.01317C13.4527 5.303 13.3646 5.60436 13.3041 5.9143C13.274 6.06898 13.2504 6.22466 13.2263 6.38033C13.2179 6.43503 13.2173 6.49058 13.2123 6.55316L13.3152 6.49958L13.4156 6.45458C13.7555 6.29919 14.1075 6.1992 14.4858 6.21059C14.6466 6.21537 14.8002 6.2473 14.9434 6.31775C15.2176 6.45303 15.3779 6.68295 15.4476 6.97377C15.4957 7.17458 15.5288 7.37933 15.5608 7.58366C15.5859 7.74313 15.6116 7.90428 15.6144 8.06516C15.6185 8.30028 15.6067 8.53597 15.5939 8.77095C15.5829 8.97077 15.5416 9.16776 15.4713 9.35511C15.3441 9.69486 15.2024 10.0291 15.0701 10.3669C15.0263 10.4786 14.9927 10.594 14.9515 10.7168L15.1186 10.7169C15.1388 10.7173 15.1595 10.7179 15.179 10.7225C15.3311 10.7584 15.4631 10.8273 15.5712 10.9443C15.7158 11.0996 15.7915 11.2813 15.7953 11.4918V11.4918ZM12.8918 9.88091C12.8056 9.67814 12.7536 9.4625 12.7379 9.24275C12.7233 9.03547 12.7479 8.82931 12.7693 8.62288C12.7898 8.42305 12.8073 8.22223 12.8132 8.0217C12.8231 7.69166 12.8009 7.36245 12.7852 7.03269C12.7758 6.83637 12.7985 6.63767 12.816 6.44094C12.8317 6.26375 12.8514 6.08614 12.885 5.91148C12.9411 5.61842 13.0158 5.32958 13.122 5.04959C13.2225 4.78409 13.3384 4.52577 13.5015 4.29303C13.6136 4.13328 13.7404 3.98436 13.8624 3.82827L13.8261 3.81533C13.4291 3.68933 13.0255 3.59061 12.6102 3.54772C12.4141 3.52733 12.2171 3.51552 12.0203 3.5037C11.9599 3.50019 11.8985 3.50834 11.8379 3.51411C11.6879 3.52859 11.5359 3.53422 11.3882 3.56234C11.1369 3.61016 10.8957 3.69059 10.6726 3.82152C10.4751 3.93773 10.3019 4.09107 10.1627 4.27306C10.007 4.4743 9.90194 4.70183 9.82671 4.94427C9.73784 5.23044 9.69537 5.52505 9.68398 5.82219C9.67399 6.08277 9.66907 6.34475 9.71407 6.60434C9.7474 6.79742 9.76976 6.99275 9.8066 7.18527C9.85613 7.44775 9.91174 7.70906 9.97338 7.96897C10.0624 8.34078 10.1516 8.71287 10.2572 9.08019C10.3581 9.43189 10.4719 9.7805 10.5956 10.125C10.6966 10.4061 10.8135 10.682 10.9365 10.9542C11.0167 11.1315 11.1137 11.3022 11.2155 11.4681C11.3237 11.6445 11.4469 11.8118 11.6136 11.9398C11.8244 12.1012 11.9874 12.1264 12.2017 11.9491C12.2934 11.8733 12.3709 11.7793 12.4508 11.69C12.5775 11.5483 12.6998 11.4023 12.8261 11.2599C12.9868 11.0786 13.1495 10.8992 13.3111 10.7185C13.3453 10.6804 13.3783 10.641 13.4115 10.6025L13.3563 10.5542C13.157 10.3639 12.9989 10.1347 12.8918 9.88091V9.88091ZM18.9866 4.48048C19.1188 4.63401 19.2441 4.79326 19.3624 4.95777C19.5889 5.2755 19.7713 5.62255 19.9045 5.98939C19.9635 6.15181 20.0108 6.31578 19.9897 6.49339C19.9751 6.61784 19.976 6.74398 19.9652 6.86914C19.9561 6.9732 19.9395 7.0767 19.9261 7.18048C19.9059 7.33686 19.8766 7.49295 19.8679 7.65003C19.8595 7.79966 19.8683 7.95069 19.8777 8.10045C19.8872 8.25275 19.9077 8.40434 19.9216 8.55622C19.9374 8.72877 19.9587 8.90089 19.9635 9.07372C19.9675 9.21547 19.9548 9.35792 19.9426 9.49967C19.9268 9.66951 19.8856 9.83601 19.8202 9.99355C19.7748 10.1052 19.7207 10.2132 19.6696 10.3249L19.6901 10.3465L19.7214 10.3707L19.753 10.3145C20.0186 9.89663 20.2545 9.4607 20.4591 9.00987C20.5903 8.71888 20.7147 8.42489 20.8323 8.12816C21.0157 7.66688 21.1638 7.19236 21.2754 6.70869C21.326 6.49156 21.3649 6.27106 21.3992 6.05056C21.426 5.87816 21.4482 5.70378 21.4533 5.52983C21.4585 5.34533 21.4484 5.15942 21.4314 4.97548C21.4186 4.83655 21.3843 4.69677 21.2974 4.58356C21.1573 4.40173 21.0063 4.22792 20.8205 4.09025C20.664 3.97452 20.5079 3.85541 20.3401 3.75809C20.0739 3.60355 19.7858 3.50089 19.4847 3.43086C19.1906 3.36238 18.8931 3.33284 18.5936 3.32652C18.4169 3.32272 18.2395 3.3417 18.0633 3.35844C17.9035 3.37334 17.7447 3.39894 17.584 3.42003C17.7566 3.51706 17.9269 3.60341 18.0872 3.70508C18.4247 3.91883 18.7273 4.17603 18.9866 4.48048V4.48048ZM14.6019 10.4659C14.7109 10.1172 14.8595 9.78388 15.0034 9.44891C15.1203 9.17708 15.184 8.89091 15.2052 8.59672C15.2157 8.45173 15.2129 8.30492 15.2058 8.15952C15.1988 7.99774 15.1839 7.83639 15.1613 7.67605C15.1311 7.47158 15.0968 7.26697 15.0484 7.0663C14.9959 6.84917 14.8638 6.69786 14.6371 6.64203C14.4991 6.60814 14.3619 6.60955 14.2222 6.63163C13.8815 6.6852 13.5696 6.81078 13.2791 6.99472C13.2206 7.0317 13.1882 7.06166 13.1985 7.14533C13.2199 7.32308 13.2245 7.50364 13.2236 7.68294C13.2225 7.93677 13.2117 8.19059 13.2021 8.44428C13.199 8.52683 13.1871 8.60923 13.1781 8.6915C13.1646 8.8175 13.1383 8.94336 13.1391 9.06922C13.14 9.19888 13.1532 9.33148 13.1847 9.45706C13.2847 9.85531 13.4962 10.181 13.8431 10.4109C14.0564 10.5524 14.2924 10.6235 14.5516 10.6372C14.5687 10.5777 14.5846 10.5216 14.6019 10.4659V10.4659ZM14.1947 7.05027C14.149 6.9545 14.1751 6.87505 14.2809 6.8382C14.3067 6.82934 14.3332 6.8195 14.3599 6.81697C14.3969 6.81331 14.4341 6.81598 14.4714 6.81598C14.6057 6.81683 14.7348 6.83553 14.8455 6.92075C14.9166 6.97559 14.9358 7.04802 14.8896 7.12283C14.8242 7.22872 14.7248 7.28187 14.6025 7.292C14.41 7.30789 14.2748 7.21817 14.1947 7.05027V7.05027ZM19.5349 7.01525L19.5786 6.63205C19.585 6.58086 19.5581 6.5668 19.5151 6.56553C19.3796 6.56187 19.2444 6.55695 19.1089 6.5547C18.9565 6.55189 18.8079 6.57636 18.6667 6.6343C18.51 6.69884 18.3908 6.80206 18.342 6.97264C18.3063 7.09833 18.295 7.22971 18.3088 7.35964C18.3278 7.56069 18.3734 7.75834 18.4442 7.94745C18.539 8.19959 18.638 8.45159 18.7565 8.69319C18.917 9.02014 19.0984 9.33683 19.2688 9.65886C19.3143 9.74478 19.3528 9.83464 19.4002 9.93491C19.4959 9.73544 19.5481 9.51792 19.5535 9.29675C19.5581 9.1138 19.5436 8.93042 19.5329 8.74747C19.5263 8.63553 19.5104 8.52416 19.4996 8.4125C19.4846 8.25697 19.4615 8.1013 19.4578 7.94534C19.4543 7.78672 19.4656 7.62725 19.4791 7.46877C19.4917 7.31717 19.5168 7.16656 19.5349 7.01525V7.01525ZM19.2299 6.89234C19.1795 7.03114 19.0721 7.10961 18.9326 7.13253C18.8027 7.15405 18.6888 7.10609 18.6041 7.00231C18.5438 6.92848 18.5668 6.84116 18.6573 6.79109C18.761 6.73372 18.8751 6.71923 19.0097 6.71052C19.0464 6.71713 19.1012 6.72289 19.1535 6.73766C19.2293 6.75903 19.2574 6.81641 19.2299 6.89234V6.89234ZM15.2083 11.1678C15.134 11.107 15.0356 11.1035 14.965 11.1702C14.8773 11.2531 14.8001 11.3479 14.7229 11.4413C14.6338 11.5493 14.55 11.6615 14.4353 11.7452C14.2681 11.8668 14.0727 11.9172 13.8767 11.9648C13.7209 12.0028 13.5642 12.0381 13.408 12.0744L13.406 12.0946C13.4524 12.116 13.4973 12.1429 13.5458 12.1582C13.7842 12.2336 14.0268 12.2713 14.2788 12.2499C14.4604 12.2343 14.6337 12.1946 14.7978 12.1168C15.0238 12.0098 15.1977 11.8401 15.3455 11.6429C15.3703 11.61 15.3815 11.5614 15.3844 11.5189C15.3943 11.369 15.3183 11.2575 15.2083 11.1678V11.1678ZM19.5599 11.1028C19.4431 11.142 19.348 11.2018 19.3197 11.3282C19.3005 11.4137 19.2934 11.5022 19.286 11.5898C19.2846 11.6053 19.3039 11.6337 19.3185 11.6376C19.4085 11.6614 19.499 11.6893 19.591 11.6976C19.7042 11.7079 19.8192 11.7047 19.9331 11.699C20.0561 11.6929 20.1798 11.6848 20.301 11.6646C20.5864 11.6165 20.8627 11.5386 21.1079 11.3766C21.1965 11.3182 21.284 11.2586 21.372 11.1993L21.3647 11.1868C21.2709 11.2007 21.1774 11.2177 21.0832 11.2277C20.8914 11.2482 20.6994 11.2699 20.5069 11.281C20.4139 11.2863 20.3197 11.2685 20.2261 11.2609C20.0689 11.2481 19.9153 11.2132 19.7824 11.1291C19.7058 11.0807 19.6416 11.0754 19.5599 11.1028V11.1028Z" fill="white"/>
<path d="M7.39868 16.5101C7.60059 16.4774 7.80487 16.4615 8.00942 16.4626C8.32371 16.4626 8.5542 16.5357 8.70045 16.6674C8.83573 16.7844 8.91617 16.9635 8.91617 17.183C8.91617 17.4061 8.85021 17.5816 8.7259 17.7095C8.55771 17.8887 8.28349 17.9801 7.97271 17.9801C7.87765 17.9801 7.7899 17.9764 7.71692 17.9582V18.9455H7.39868V16.5101V16.5101ZM7.71692 17.6984C7.78638 17.7167 7.87413 17.724 7.98017 17.724C8.36393 17.724 8.59807 17.5375 8.59807 17.1975C8.59807 16.8721 8.36773 16.7149 8.01673 16.7149C7.87779 16.7149 7.77176 16.7259 7.71692 16.7405V17.6984V17.6984ZM10.843 18.0458C10.843 18.7002 10.3895 18.9856 9.96171 18.9856C9.48274 18.9856 9.11346 18.6346 9.11346 18.075C9.11346 17.4827 9.50103 17.1354 9.99096 17.1354C10.4993 17.1352 10.843 17.5046 10.843 18.0458V18.0458ZM9.43901 18.064C9.43901 18.4516 9.66204 18.7441 9.97648 18.7441C10.2836 18.7441 10.5138 18.4553 10.5138 18.0567C10.5138 17.7569 10.364 17.3767 9.98365 17.3767C9.60326 17.3767 9.43901 17.7277 9.43901 18.064ZM11.2048 18.6161C11.2999 18.6783 11.4681 18.7441 11.629 18.7441C11.863 18.7441 11.9727 18.6271 11.9727 18.4809C11.9727 18.3273 11.8814 18.2432 11.6436 18.1555C11.3255 18.0421 11.1756 17.8666 11.1756 17.6545C11.1756 17.3694 11.4059 17.1354 11.7862 17.1354C11.9653 17.1354 12.1227 17.1865 12.2214 17.245L12.141 17.479C12.0322 17.412 11.9068 17.3765 11.779 17.3767C11.5889 17.3767 11.4829 17.4864 11.4829 17.618C11.4829 17.7642 11.589 17.83 11.8194 17.9178C12.1265 18.0348 12.2837 18.1884 12.2837 18.4516C12.2837 18.7624 12.0424 18.9818 11.6219 18.9818C11.4282 18.9818 11.249 18.9342 11.1247 18.8611L11.2048 18.6161V18.6161ZM13.0843 16.6672V17.1754H13.5448V17.4204H13.0843V18.3747C13.0843 18.5941 13.1463 18.7184 13.3256 18.7184C13.3885 18.7193 13.4511 18.7119 13.5121 18.6964L13.5267 18.9378C13.4647 18.9633 13.3658 18.9816 13.2417 18.9816C13.0917 18.9816 12.9709 18.9341 12.8942 18.8463C12.8029 18.7513 12.7699 18.5941 12.7699 18.3857V17.4204H12.4956V17.1754H12.7699V16.7513L13.0843 16.6672V16.6672ZM15.4097 17.1756C15.4022 17.3035 15.395 17.4461 15.395 17.6619V18.6893C15.395 19.0951 15.3146 19.3437 15.1428 19.4974C14.9709 19.6583 14.7223 19.7095 14.4993 19.7095C14.2872 19.7095 14.0532 19.6583 13.9105 19.5633L13.9909 19.3183C14.1079 19.3914 14.2907 19.4572 14.5101 19.4572C14.8392 19.4572 15.0805 19.2854 15.0805 18.8393V18.6419H15.0732C14.9744 18.8064 14.7843 18.938 14.5101 18.938C14.0713 18.938 13.7569 18.5651 13.7569 18.075C13.7569 17.4754 14.1481 17.1354 14.554 17.1354C14.8612 17.1354 15.0294 17.2962 15.1062 17.4425H15.1135L15.1281 17.1756H15.4097V17.1756ZM15.0769 17.8739C15.0769 17.8191 15.0733 17.7715 15.0587 17.7277C15.0002 17.5412 14.8429 17.3876 14.6089 17.3876C14.3017 17.3876 14.0824 17.6472 14.0824 18.0567C14.0824 18.4041 14.2579 18.6929 14.6053 18.6929C14.8027 18.6929 14.9819 18.5686 15.0514 18.3639C15.0696 18.309 15.0771 18.2469 15.0771 18.192V17.8739H15.0769ZM15.9068 17.7277C15.9068 17.5193 15.9031 17.3401 15.8922 17.1756H16.1738L16.1847 17.5229H16.1993C16.2797 17.2853 16.4735 17.1354 16.6892 17.1354C16.7258 17.1354 16.7512 17.139 16.7805 17.1463V17.4498C16.7445 17.442 16.7077 17.4383 16.6709 17.4388C16.4442 17.4388 16.2832 17.6107 16.2395 17.852C16.2305 17.9015 16.2256 17.9516 16.2249 18.0019V18.9452H15.9068V17.7277ZM17.2451 18.1189C17.2524 18.554 17.5302 18.7331 17.8519 18.7331C18.0824 18.7331 18.2212 18.6929 18.3418 18.6417L18.3967 18.8721C18.2833 18.9233 18.0896 18.9818 17.808 18.9818C17.2632 18.9818 16.9378 18.6235 16.9378 18.0896C16.9378 17.5558 17.2523 17.1352 17.7678 17.1352C18.3455 17.1352 18.4991 17.6434 18.4991 17.9688C18.4991 18.0347 18.4917 18.0858 18.4881 18.1188H17.2451V18.1189ZM18.1884 17.8885C18.1919 17.6838 18.1042 17.3657 17.7424 17.3657C17.4169 17.3657 17.2744 17.6655 17.2486 17.8885H18.1884V17.8885ZM18.8647 18.5576C19.0371 18.6612 19.234 18.7167 19.4351 18.7185C19.7605 18.7185 19.9506 18.5467 19.9506 18.298C19.9506 18.0677 19.819 17.9361 19.4862 17.8081C19.0841 17.6655 18.8354 17.4571 18.8354 17.1098C18.8354 16.7259 19.1535 16.4407 19.6325 16.4407C19.8848 16.4407 20.0676 16.4992 20.1773 16.5613L20.0895 16.8209C19.9457 16.7436 19.7848 16.7034 19.6215 16.7039C19.2852 16.7039 19.1572 16.905 19.1572 17.0732C19.1572 17.3035 19.3069 17.4169 19.6471 17.5485C20.0639 17.7095 20.276 17.9105 20.276 18.2725C20.276 18.6527 19.9945 18.9818 19.4131 18.9818C19.1755 18.9818 18.9159 18.9123 18.7841 18.8245L18.8647 18.5576V18.5576ZM22.744 19.3072C22.4261 19.2238 22.1115 19.1286 21.8007 19.022C21.7495 19.0037 21.6983 18.9854 21.6507 18.9854C21.0657 18.9635 20.5648 18.532 20.5648 17.7386C20.5648 16.9489 21.0475 16.4407 21.7129 16.4407C22.382 16.4407 22.8172 16.9599 22.8172 17.6875C22.8172 18.32 22.5247 18.7258 22.1152 18.8684V18.883C22.3602 18.9452 22.6271 19.0037 22.8355 19.0403L22.744 19.3072V19.3072ZM22.4807 17.7021C22.4807 17.2085 22.2249 16.7001 21.7019 16.7001C21.1645 16.7001 20.9012 17.1974 20.9049 17.7313C20.9012 18.2542 21.1901 18.7258 21.6873 18.7258C22.1957 18.7258 22.4807 18.2651 22.4807 17.7021V17.7021ZM23.2301 16.4809H23.5483V18.6783H24.6013V18.9452H23.2301V16.4809Z" fill="white"/>
<defs>
<linearGradient id="paint0_linear_50_221" x1="0" y1="0" x2="0" y2="21" gradientUnits="userSpaceOnUse">
<stop stop-color="#BBBBBB" stop-opacity="0.1"/>
<stop offset="1" stop-opacity="0.1"/>
</linearGradient>
</defs>
</svg>
