<svg width="95" height="21" viewBox="0 0 95 21" fill="none" xmlns="http://www.w3.org/2000/svg">
<path d="M90 0H31V21H90C92.7614 21 95 18.7614 95 16V5C95 2.23858 92.7614 0 90 0Z" fill="white"/>
<path d="M31 0H5C2.23858 0 0 2.23858 0 5V16C0 18.7614 2.23858 21 5 21H31V0Z" fill="#22333B"/>
<g clip-path="url(#clip0_50_282)">
<path d="M16.7657 17.7478C16.3721 18.2303 15.574 17.9659 15.5646 17.3498L15.4259 8.33936H21.6499C22.7772 8.33936 23.4059 9.60683 22.7049 10.4663L16.7657 17.7478Z" fill="url(#paint0_linear_50_282)"/>
<path d="M16.7657 17.7478C16.3721 18.2303 15.574 17.9659 15.5646 17.3498L15.4259 8.33936H21.6499C22.7772 8.33936 23.4059 9.60683 22.7049 10.4663L16.7657 17.7478Z" fill="url(#paint1_linear_50_282)" fill-opacity="0.2"/>
<path d="M14.2348 3.24923C14.6283 2.76666 15.4264 3.03101 15.4359 3.6471L15.4966 12.6576H9.35055C8.22321 12.6576 7.59442 11.3901 8.29545 10.5307L14.2348 3.24923Z" fill="#3ECF8E"/>
</g>
<path d="M44.787 12.1396C44.787 12.0127 44.7675 11.8988 44.7284 11.7979C44.6926 11.6937 44.6243 11.5993 44.5234 11.5146C44.4224 11.4268 44.2808 11.3405 44.0986 11.2559C43.9163 11.1712 43.6803 11.0833 43.3905 10.9922C43.0683 10.888 42.7623 10.7708 42.4726 10.6406C42.1861 10.5104 41.9322 10.359 41.7109 10.1865C41.4928 10.0107 41.3202 9.80729 41.1933 9.57617C41.0696 9.34505 41.0077 9.0765 41.0077 8.77051C41.0077 8.47428 41.0728 8.20573 41.203 7.96484C41.3333 7.7207 41.5155 7.51237 41.7499 7.33984C41.9843 7.16406 42.261 7.02897 42.58 6.93457C42.9023 6.84017 43.2555 6.79297 43.6396 6.79297C44.1637 6.79297 44.621 6.88737 45.0116 7.07617C45.4023 7.26497 45.705 7.52376 45.9198 7.85254C46.1379 8.18132 46.247 8.55729 46.247 8.98047H44.7919C44.7919 8.77214 44.748 8.58984 44.6601 8.43359C44.5754 8.27409 44.4452 8.14876 44.2695 8.05762C44.0969 7.96647 43.8788 7.9209 43.6152 7.9209C43.3612 7.9209 43.1497 7.95996 42.9804 8.03809C42.8111 8.11296 42.6842 8.21549 42.5995 8.3457C42.5149 8.47266 42.4726 8.61589 42.4726 8.77539C42.4726 8.89583 42.5019 9.00488 42.5605 9.10254C42.6223 9.2002 42.7135 9.29134 42.8339 9.37598C42.9543 9.46061 43.1025 9.54036 43.2782 9.61523C43.454 9.6901 43.6575 9.76335 43.8886 9.83496C44.276 9.95215 44.6161 10.084 44.9091 10.2305C45.2053 10.377 45.4527 10.5413 45.6513 10.7236C45.8499 10.9059 45.9996 11.1126 46.1005 11.3438C46.2014 11.5749 46.2519 11.8369 46.2519 12.1299C46.2519 12.4391 46.1917 12.7158 46.0712 12.96C45.9508 13.2041 45.7766 13.4108 45.5487 13.5801C45.3209 13.7493 45.0491 13.8779 44.7333 13.9658C44.4176 14.0537 44.0644 14.0977 43.6737 14.0977C43.3222 14.0977 42.9755 14.0521 42.6337 13.9609C42.2919 13.8665 41.981 13.7249 41.7011 13.5361C41.4244 13.3473 41.203 13.1064 41.037 12.8135C40.871 12.5205 40.788 12.1738 40.788 11.7734H42.2577C42.2577 11.9948 42.2919 12.182 42.3603 12.335C42.4286 12.488 42.5247 12.6117 42.6484 12.7061C42.7753 12.8005 42.9251 12.8688 43.0976 12.9111C43.2734 12.9535 43.4654 12.9746 43.6737 12.9746C43.9277 12.9746 44.136 12.9388 44.2987 12.8672C44.4648 12.7956 44.5868 12.6963 44.665 12.5693C44.7463 12.4424 44.787 12.2992 44.787 12.1396ZM50.5809 12.7354V8.7168H51.9871V14H50.6639L50.5809 12.7354ZM50.7371 11.6514L51.1521 11.6416C51.1521 11.9932 51.1115 12.3203 51.0301 12.623C50.9487 12.9225 50.8266 13.1829 50.6639 13.4043C50.5011 13.6224 50.296 13.7933 50.0486 13.917C49.8012 14.0374 49.5099 14.0977 49.1746 14.0977C48.9174 14.0977 48.6798 14.0618 48.4617 13.9902C48.2469 13.9154 48.0613 13.7998 47.9051 13.6436C47.7521 13.484 47.6316 13.2806 47.5437 13.0332C47.4591 12.7826 47.4168 12.4814 47.4168 12.1299V8.7168H48.823V12.1396C48.823 12.2959 48.841 12.4277 48.8768 12.5352C48.9158 12.6426 48.9695 12.7305 49.0379 12.7988C49.1062 12.8672 49.186 12.916 49.2771 12.9453C49.3715 12.9746 49.4757 12.9893 49.5896 12.9893C49.8794 12.9893 50.1072 12.9307 50.2732 12.8135C50.4425 12.6963 50.5613 12.5368 50.6297 12.335C50.7013 12.1299 50.7371 11.902 50.7371 11.6514ZM54.5876 9.73242V16.0312H53.1813V8.7168H54.485L54.5876 9.73242ZM57.9323 11.2998V11.4023C57.9323 11.7865 57.8867 12.1429 57.7956 12.4717C57.7077 12.8005 57.5775 13.0869 57.405 13.3311C57.2324 13.5719 57.0176 13.7607 56.7604 13.8975C56.5065 14.0309 56.2136 14.0977 55.8815 14.0977C55.5593 14.0977 55.2793 14.0326 55.0417 13.9023C54.804 13.7721 54.6039 13.5898 54.4411 13.3555C54.2816 13.1178 54.153 12.8428 54.0554 12.5303C53.9577 12.2178 53.8828 11.8825 53.8307 11.5244V11.2559C53.8828 10.8717 53.9577 10.5202 54.0554 10.2012C54.153 9.87891 54.2816 9.60059 54.4411 9.36621C54.6039 9.12858 54.8024 8.94466 55.0368 8.81445C55.2744 8.68424 55.5527 8.61914 55.8718 8.61914C56.207 8.61914 56.5016 8.68262 56.7555 8.80957C57.0127 8.93652 57.2276 9.11882 57.4001 9.35645C57.5759 9.59408 57.7077 9.87728 57.7956 10.2061C57.8867 10.5348 57.9323 10.8994 57.9323 11.2998ZM56.5212 11.4023V11.2998C56.5212 11.0752 56.5016 10.8685 56.4626 10.6797C56.4268 10.4876 56.3682 10.32 56.2868 10.1768C56.2087 10.0335 56.1045 9.92285 55.9743 9.84473C55.8473 9.76335 55.6927 9.72266 55.5104 9.72266C55.3184 9.72266 55.154 9.75358 55.0173 9.81543C54.8838 9.87728 54.7748 9.9668 54.6901 10.084C54.6055 10.2012 54.542 10.3411 54.4997 10.5039C54.4574 10.6667 54.4313 10.8506 54.4216 11.0557V11.7344C54.4378 11.9753 54.4834 12.1917 54.5583 12.3838C54.6332 12.5726 54.7487 12.7223 54.905 12.833C55.0612 12.9437 55.2663 12.999 55.5202 12.999C55.7057 12.999 55.862 12.9583 55.9889 12.877C56.1159 12.7923 56.2184 12.6768 56.2966 12.5303C56.3779 12.3838 56.4349 12.2145 56.4675 12.0225C56.5033 11.8304 56.5212 11.6237 56.5212 11.4023ZM61.7779 12.8086V10.4551C61.7779 10.2858 61.7502 10.141 61.6949 10.0205C61.6395 9.89681 61.5533 9.80078 61.4361 9.73242C61.3222 9.66406 61.1741 9.62988 60.9918 9.62988C60.8355 9.62988 60.7004 9.65755 60.5865 9.71289C60.4726 9.76497 60.3847 9.84147 60.3228 9.94238C60.261 10.04 60.23 10.1556 60.23 10.2891H58.8238C58.8238 10.0645 58.8759 9.85124 58.98 9.64941C59.0842 9.44759 59.2356 9.27018 59.4341 9.11719C59.6327 8.96094 59.8687 8.83887 60.1421 8.75098C60.4188 8.66309 60.7281 8.61914 61.0699 8.61914C61.48 8.61914 61.8446 8.6875 62.1636 8.82422C62.4826 8.96094 62.7333 9.16602 62.9156 9.43945C63.1011 9.71289 63.1939 10.0547 63.1939 10.4648V12.7256C63.1939 13.0153 63.2118 13.2529 63.2476 13.4385C63.2834 13.6208 63.3355 13.7803 63.4039 13.917V14H61.983C61.9146 13.8568 61.8625 13.6777 61.8267 13.4629C61.7942 13.2448 61.7779 13.0267 61.7779 12.8086ZM61.9634 10.7822L61.9732 11.5781H61.1871C61.0015 11.5781 60.8404 11.5993 60.7037 11.6416C60.567 11.6839 60.4546 11.7441 60.3668 11.8223C60.2789 11.8971 60.2138 11.985 60.1714 12.0859C60.1324 12.1868 60.1129 12.2975 60.1129 12.418C60.1129 12.5384 60.1405 12.6475 60.1959 12.7451C60.2512 12.8395 60.331 12.9144 60.4351 12.9697C60.5393 13.0218 60.6614 13.0479 60.8013 13.0479C61.0129 13.0479 61.1968 13.0055 61.3531 12.9209C61.5093 12.8363 61.6298 12.7321 61.7144 12.6084C61.8023 12.4847 61.8479 12.3675 61.8511 12.2568L62.2222 12.8525C62.1701 12.986 62.0985 13.1243 62.0074 13.2676C61.9195 13.4108 61.8072 13.5459 61.6705 13.6729C61.5338 13.7965 61.3694 13.8991 61.1773 13.9805C60.9852 14.0586 60.7574 14.0977 60.4937 14.0977C60.1584 14.0977 59.8541 14.0309 59.5806 13.8975C59.3104 13.7607 59.0956 13.5736 58.9361 13.3359C58.7798 13.0951 58.7017 12.8216 58.7017 12.5156C58.7017 12.2389 58.7538 11.9932 58.858 11.7783C58.9621 11.5635 59.1151 11.3828 59.317 11.2363C59.522 11.0866 59.7776 10.9743 60.0836 10.8994C60.3895 10.8213 60.7444 10.7822 61.148 10.7822H61.9634ZM64.3979 6.5H65.8041V12.7891L65.6625 14H64.3979V6.5ZM69.1489 11.3047V11.4072C69.1489 11.8011 69.1065 12.1624 69.0219 12.4912C68.9405 12.82 68.8136 13.1048 68.6411 13.3457C68.4685 13.5833 68.2537 13.7689 67.9965 13.9023C67.7426 14.0326 67.4431 14.0977 67.0981 14.0977C66.7758 14.0977 66.4959 14.0326 66.2582 13.9023C66.0239 13.7721 65.8269 13.5882 65.6674 13.3506C65.5079 13.113 65.3793 12.8346 65.2817 12.5156C65.184 12.1966 65.1108 11.8483 65.062 11.4707V11.2461C65.1108 10.8685 65.184 10.5202 65.2817 10.2012C65.3793 9.88216 65.5079 9.60384 65.6674 9.36621C65.8269 9.12858 66.0239 8.94466 66.2582 8.81445C66.4926 8.68424 66.7693 8.61914 67.0883 8.61914C67.4366 8.61914 67.7394 8.68587 67.9965 8.81934C68.2569 8.94954 68.4718 9.13509 68.6411 9.37598C68.8136 9.61361 68.9405 9.89681 69.0219 10.2256C69.1065 10.5511 69.1489 10.9108 69.1489 11.3047ZM67.7426 11.4072V11.3047C67.7426 11.0898 67.7263 10.888 67.6938 10.6992C67.6645 10.5072 67.6124 10.3395 67.5375 10.1963C67.4627 10.0498 67.3601 9.93424 67.2299 9.84961C67.103 9.76497 66.9386 9.72266 66.7368 9.72266C66.5447 9.72266 66.3819 9.75521 66.2485 9.82031C66.115 9.88542 66.0043 9.97656 65.9164 10.0938C65.8318 10.2109 65.7683 10.3509 65.726 10.5137C65.6837 10.6732 65.6577 10.849 65.6479 11.041V11.6807C65.6577 11.9378 65.7 12.1657 65.7748 12.3643C65.853 12.5596 65.9702 12.7142 66.1264 12.8281C66.2859 12.9388 66.4926 12.9941 66.7465 12.9941C66.9451 12.9941 67.1095 12.9551 67.2397 12.877C67.3699 12.7988 67.4708 12.6882 67.5424 12.5449C67.6173 12.4017 67.6694 12.234 67.6987 12.042C67.728 11.8467 67.7426 11.6351 67.7426 11.4072ZM72.9945 12.8086V10.4551C72.9945 10.2858 72.9668 10.141 72.9114 10.0205C72.8561 9.89681 72.7698 9.80078 72.6527 9.73242C72.5387 9.66406 72.3906 9.62988 72.2083 9.62988C72.0521 9.62988 71.917 9.65755 71.803 9.71289C71.6891 9.76497 71.6012 9.84147 71.5394 9.94238C71.4775 10.04 71.4466 10.1556 71.4466 10.2891H70.0404C70.0404 10.0645 70.0924 9.85124 70.1966 9.64941C70.3008 9.44759 70.4521 9.27018 70.6507 9.11719C70.8493 8.96094 71.0853 8.83887 71.3587 8.75098C71.6354 8.66309 71.9446 8.61914 72.2864 8.61914C72.6966 8.61914 73.0612 8.6875 73.3802 8.82422C73.6992 8.96094 73.9499 9.16602 74.1321 9.43945C74.3177 9.71289 74.4105 10.0547 74.4105 10.4648V12.7256C74.4105 13.0153 74.4284 13.2529 74.4642 13.4385C74.5 13.6208 74.5521 13.7803 74.6204 13.917V14H73.1995C73.1312 13.8568 73.0791 13.6777 73.0433 13.4629C73.0107 13.2448 72.9945 13.0267 72.9945 12.8086ZM73.18 10.7822L73.1898 11.5781H72.4036C72.2181 11.5781 72.057 11.5993 71.9202 11.6416C71.7835 11.6839 71.6712 11.7441 71.5833 11.8223C71.4954 11.8971 71.4303 11.985 71.388 12.0859C71.3489 12.1868 71.3294 12.2975 71.3294 12.418C71.3294 12.5384 71.3571 12.6475 71.4124 12.7451C71.4678 12.8395 71.5475 12.9144 71.6517 12.9697C71.7558 13.0218 71.8779 13.0479 72.0179 13.0479C72.2295 13.0479 72.4134 13.0055 72.5696 12.9209C72.7259 12.8363 72.8463 12.7321 72.931 12.6084C73.0189 12.4847 73.0644 12.3675 73.0677 12.2568L73.4388 12.8525C73.3867 12.986 73.3151 13.1243 73.2239 13.2676C73.1361 13.4108 73.0238 13.5459 72.887 13.6729C72.7503 13.7965 72.5859 13.8991 72.3939 13.9805C72.2018 14.0586 71.9739 14.0977 71.7103 14.0977C71.375 14.0977 71.0706 14.0309 70.7972 13.8975C70.527 13.7607 70.3122 13.5736 70.1527 13.3359C69.9964 13.0951 69.9183 12.8216 69.9183 12.5156C69.9183 12.2389 69.9704 11.9932 70.0745 11.7783C70.1787 11.5635 70.3317 11.3828 70.5335 11.2363C70.7386 11.0866 70.9941 10.9743 71.3001 10.8994C71.6061 10.8213 71.9609 10.7822 72.3646 10.7822H73.18ZM78.4709 12.54C78.4709 12.4391 78.4416 12.348 78.383 12.2666C78.3244 12.1852 78.2154 12.1104 78.0559 12.042C77.8996 11.9704 77.6734 11.9053 77.3772 11.8467C77.1102 11.7881 76.8612 11.7148 76.6301 11.627C76.4022 11.5358 76.2036 11.4268 76.0344 11.2998C75.8684 11.1729 75.7382 11.0231 75.6438 10.8506C75.5494 10.6748 75.5022 10.4746 75.5022 10.25C75.5022 10.0286 75.5494 9.82031 75.6438 9.625C75.7414 9.42969 75.8798 9.25716 76.0588 9.10742C76.2411 8.95443 76.4624 8.83561 76.7229 8.75098C76.9865 8.66309 77.2828 8.61914 77.6115 8.61914C78.0705 8.61914 78.4644 8.69238 78.7932 8.83887C79.1252 8.98535 79.3791 9.18717 79.5549 9.44434C79.7339 9.69824 79.8234 9.98796 79.8234 10.3135H78.4172C78.4172 10.1768 78.3879 10.0547 78.3293 9.94727C78.274 9.83659 78.1861 9.75033 78.0656 9.68848C77.9484 9.62337 77.7954 9.59082 77.6066 9.59082C77.4504 9.59082 77.3153 9.61849 77.2014 9.67383C77.0874 9.72591 76.9995 9.79753 76.9377 9.88867C76.8791 9.97656 76.8498 10.0742 76.8498 10.1816C76.8498 10.263 76.8661 10.3363 76.8986 10.4014C76.9344 10.4632 76.9914 10.5202 77.0695 10.5723C77.1477 10.6243 77.2486 10.6732 77.3723 10.7188C77.4992 10.7611 77.6555 10.8001 77.841 10.8359C78.2219 10.9141 78.562 11.0166 78.8615 11.1436C79.161 11.2673 79.3986 11.4365 79.5744 11.6514C79.7502 11.863 79.8381 12.1413 79.8381 12.4863C79.8381 12.7207 79.786 12.9355 79.6818 13.1309C79.5777 13.3262 79.4279 13.4971 79.2326 13.6436C79.0373 13.7868 78.8029 13.8991 78.5295 13.9805C78.2593 14.0586 77.955 14.0977 77.6164 14.0977C77.1249 14.0977 76.7082 14.0098 76.3664 13.834C76.0279 13.6582 75.7707 13.4352 75.5949 13.165C75.4224 12.8916 75.3361 12.6117 75.3361 12.3252H76.6691C76.6757 12.5173 76.7245 12.6719 76.8156 12.7891C76.91 12.9062 77.0288 12.9909 77.1721 13.043C77.3186 13.0951 77.4764 13.1211 77.6457 13.1211C77.828 13.1211 77.9794 13.0967 78.0998 13.0479C78.2203 12.9958 78.3114 12.9274 78.3732 12.8428C78.4383 12.7549 78.4709 12.654 78.4709 12.54ZM83.3028 14.0977C82.8927 14.0977 82.5248 14.0326 82.1993 13.9023C81.8738 13.7689 81.5971 13.585 81.3692 13.3506C81.1446 13.1162 80.9721 12.8444 80.8516 12.5352C80.7312 12.2227 80.671 11.8906 80.671 11.5391V11.3438C80.671 10.9434 80.7279 10.5771 80.8419 10.2451C80.9558 9.91309 81.1186 9.625 81.3302 9.38086C81.545 9.13672 81.8054 8.94954 82.1114 8.81934C82.4174 8.68587 82.7624 8.61914 83.1466 8.61914C83.5209 8.61914 83.8529 8.68099 84.1427 8.80469C84.4324 8.92839 84.6749 9.10417 84.8702 9.33203C85.0688 9.5599 85.2185 9.83333 85.3194 10.1523C85.4203 10.4681 85.4708 10.8197 85.4708 11.207V11.793H81.2716V10.8555H84.0889V10.748C84.0889 10.5527 84.0531 10.3786 83.9815 10.2256C83.9132 10.0693 83.809 9.94564 83.669 9.85449C83.529 9.76335 83.35 9.71777 83.1319 9.71777C82.9464 9.71777 82.7869 9.75846 82.6534 9.83984C82.5199 9.92122 82.4109 10.0352 82.3262 10.1816C82.2449 10.3281 82.183 10.5007 82.1407 10.6992C82.1016 10.8945 82.0821 11.1094 82.0821 11.3438V11.5391C82.0821 11.7507 82.1114 11.946 82.17 12.125C82.2318 12.304 82.3181 12.4587 82.4288 12.5889C82.5427 12.7191 82.6794 12.82 82.8389 12.8916C83.0017 12.9632 83.1856 12.999 83.3907 12.999C83.6446 12.999 83.8806 12.9502 84.0987 12.8525C84.3201 12.7516 84.5105 12.6003 84.67 12.3984L85.3536 13.1406C85.2429 13.3001 85.0915 13.4531 84.8995 13.5996C84.7107 13.7461 84.4828 13.8665 84.2159 13.9609C83.949 14.0521 83.6446 14.0977 83.3028 14.0977Z" fill="#0F1418"/>
<path d="M90 0H5C2.23858 0 0 2.23858 0 5V16C0 18.7614 2.23857 21 5 21H90C92.7614 21 95 18.7614 95 16V5C95 2.23858 92.7614 0 90 0Z" fill="url(#paint2_linear_50_282)"/>
<defs>
<linearGradient id="paint0_linear_50_282" x1="173.428" y1="208.126" x2="527.389" y2="360.626" gradientUnits="userSpaceOnUse">
<stop stop-color="#249361"/>
<stop offset="1" stop-color="#3ECF8E"/>
</linearGradient>
<linearGradient id="paint1_linear_50_282" x1="30.5051" y1="-118.735" x2="250.142" y2="305.983" gradientUnits="userSpaceOnUse">
<stop/>
<stop offset="1" stop-opacity="0"/>
</linearGradient>
<linearGradient id="paint2_linear_50_282" x1="0" y1="0" x2="0" y2="21" gradientUnits="userSpaceOnUse">
<stop stop-color="#BBBBBB" stop-opacity="0.1"/>
<stop offset="1" stop-opacity="0.1"/>
</linearGradient>
<clipPath id="clip0_50_282">
<rect width="15" height="15" fill="white" transform="translate(8 3)"/>
</clipPath>
</defs>
</svg>
