<svg width="119" height="32" viewBox="0 0 119 32" fill="none" xmlns="http://www.w3.org/2000/svg">
<path d="M114 0H31V32H114C116.761 32 119 29.7614 119 27V5C119 2.23858 116.761 0 114 0Z" fill="white"/>
<path d="M31 0H5C2.23858 0 0 2.23858 0 5V27C0 29.7614 2.23858 32 5 32H31V0Z" fill="#22333B"/>
<g clip-path="url(#clip0_30_40)">
<path d="M17.6094 27.5798C16.9534 28.3839 15.6234 27.9432 15.6076 26.9165L15.3765 11.899H25.7498C27.6286 11.899 28.6765 14.0115 27.5082 15.4439L17.6094 27.5798Z" fill="url(#paint0_linear_30_40)"/>
<path d="M17.6094 27.5798C16.9534 28.3839 15.6234 27.9432 15.6076 26.9165L15.3765 11.899H25.7498C27.6286 11.899 28.6765 14.0115 27.5082 15.4439L17.6094 27.5798Z" fill="url(#paint1_linear_30_40)" fill-opacity="0.2"/>
<path d="M13.3908 3.41538C14.0467 2.6111 15.3768 3.05169 15.3927 4.0785L15.4939 19.096H5.25045C3.37155 19.096 2.32356 16.9835 3.49195 15.5511L13.3908 3.41538Z" fill="#3ECF8E"/>
</g>
<path d="M47.6805 19.2095C47.6805 19.019 47.6512 18.8481 47.5927 18.6968C47.5389 18.5405 47.4364 18.3989 47.285 18.272C47.1337 18.1401 46.9213 18.0107 46.6478 17.8838C46.3744 17.7568 46.0204 17.625 45.5858 17.4883C45.1024 17.332 44.6434 17.1562 44.2089 16.9609C43.7792 16.7656 43.3983 16.5386 43.0663 16.2798C42.7391 16.0161 42.4804 15.7109 42.2899 15.3643C42.1044 15.0176 42.0116 14.6147 42.0116 14.1558C42.0116 13.7114 42.1093 13.3086 42.3046 12.9473C42.4999 12.5811 42.7733 12.2686 43.1249 12.0098C43.4764 11.7461 43.8915 11.5435 44.37 11.4019C44.8534 11.2603 45.3832 11.1895 45.9594 11.1895C46.7455 11.1895 47.4315 11.3311 48.0175 11.6143C48.6034 11.8975 49.0575 12.2856 49.3798 12.7788C49.7069 13.272 49.8705 13.8359 49.8705 14.4707H47.6879C47.6879 14.1582 47.622 13.8848 47.4901 13.6504C47.3632 13.4111 47.1679 13.2231 46.9042 13.0864C46.6454 12.9497 46.3182 12.8813 45.9227 12.8813C45.5419 12.8813 45.2245 12.9399 44.9706 13.0571C44.7167 13.1694 44.5262 13.3232 44.3993 13.5186C44.2723 13.709 44.2089 13.9238 44.2089 14.1631C44.2089 14.3438 44.2528 14.5073 44.3407 14.6538C44.4335 14.8003 44.5702 14.937 44.7509 15.064C44.9315 15.1909 45.1537 15.3105 45.4174 15.4229C45.681 15.5352 45.9862 15.645 46.3329 15.7524C46.9139 15.9282 47.4242 16.126 47.8637 16.3457C48.308 16.5654 48.6791 16.812 48.9769 17.0854C49.2748 17.3589 49.4994 17.6689 49.6508 18.0156C49.8021 18.3623 49.8778 18.7554 49.8778 19.1948C49.8778 19.6587 49.7875 20.0737 49.6068 20.4399C49.4262 20.8062 49.1649 21.1162 48.8231 21.3701C48.4813 21.624 48.0736 21.8169 47.6 21.9487C47.1263 22.0806 46.5966 22.1465 46.0106 22.1465C45.4833 22.1465 44.9633 22.0781 44.4506 21.9414C43.9379 21.7998 43.4716 21.5874 43.0516 21.3042C42.6366 21.021 42.3046 20.6597 42.0555 20.2202C41.8065 19.7808 41.682 19.2607 41.682 18.6602H43.8866C43.8866 18.9922 43.9379 19.2729 44.0404 19.5024C44.1429 19.7319 44.287 19.9175 44.4725 20.0591C44.663 20.2007 44.8876 20.3032 45.1464 20.3667C45.41 20.4302 45.6981 20.4619 46.0106 20.4619C46.3915 20.4619 46.704 20.4082 46.9481 20.3008C47.1971 20.1934 47.3803 20.0444 47.4974 19.854C47.6195 19.6636 47.6805 19.4487 47.6805 19.2095ZM56.1076 20.103V14.0752H58.217V22H56.2321L56.1076 20.103ZM56.342 18.4771L56.9646 18.4624C56.9646 18.9897 56.9035 19.4805 56.7814 19.9346C56.6594 20.3838 56.4763 20.7744 56.2321 21.1064C55.988 21.4336 55.6804 21.6899 55.3093 21.8755C54.9382 22.0562 54.5012 22.1465 53.9982 22.1465C53.6125 22.1465 53.2561 22.0928 52.9289 21.9854C52.6066 21.873 52.3283 21.6997 52.0939 21.4653C51.8645 21.2261 51.6838 20.9209 51.552 20.5498C51.425 20.1738 51.3615 19.7222 51.3615 19.1948V14.0752H53.4709V19.2095C53.4709 19.4438 53.4978 19.6416 53.5515 19.8027C53.6101 19.9639 53.6906 20.0957 53.7932 20.1982C53.8957 20.3008 54.0153 20.374 54.1521 20.418C54.2937 20.4619 54.4499 20.4839 54.6208 20.4839C55.0554 20.4839 55.3972 20.396 55.6462 20.2202C55.9001 20.0444 56.0783 19.8052 56.1809 19.5024C56.2883 19.1948 56.342 18.853 56.342 18.4771ZM62.1177 15.5986V25.0469H60.0083V14.0752H61.9639L62.1177 15.5986ZM67.1348 17.9497V18.1035C67.1348 18.6797 67.0664 19.2144 66.9297 19.7075C66.7979 20.2007 66.6026 20.6304 66.3438 20.9966C66.085 21.3579 65.7627 21.6411 65.377 21.8462C64.9961 22.0464 64.5567 22.1465 64.0586 22.1465C63.5752 22.1465 63.1553 22.0488 62.7988 21.8535C62.4424 21.6582 62.1421 21.3848 61.898 21.0332C61.6587 20.6768 61.4658 20.2642 61.3194 19.7954C61.1729 19.3267 61.0606 18.8237 60.9824 18.2866V17.8838C61.0606 17.3076 61.1729 16.7803 61.3194 16.3018C61.4658 15.8184 61.6587 15.4009 61.898 15.0493C62.1421 14.6929 62.44 14.417 62.7915 14.2217C63.148 14.0264 63.5654 13.9287 64.044 13.9287C64.5469 13.9287 64.9888 14.0239 65.3696 14.2144C65.7554 14.4048 66.0777 14.6782 66.3364 15.0347C66.6001 15.3911 66.7979 15.8159 66.9297 16.3091C67.0664 16.8022 67.1348 17.3491 67.1348 17.9497ZM65.0181 18.1035V17.9497C65.0181 17.6128 64.9888 17.3027 64.9302 17.0195C64.8765 16.7314 64.7886 16.48 64.6665 16.2651C64.5493 16.0503 64.3931 15.8843 64.1978 15.7671C64.0073 15.645 63.7754 15.584 63.502 15.584C63.2139 15.584 62.9673 15.6304 62.7622 15.7231C62.562 15.8159 62.3985 15.9502 62.2715 16.126C62.1446 16.3018 62.0493 16.5117 61.9859 16.7559C61.9224 17 61.8833 17.2759 61.8687 17.5835V18.6016C61.8931 18.9629 61.9614 19.2876 62.0737 19.5757C62.1861 19.8589 62.3594 20.0835 62.5938 20.2495C62.8281 20.4155 63.1358 20.4985 63.5166 20.4985C63.7949 20.4985 64.0293 20.4375 64.2197 20.3154C64.4102 20.1885 64.564 20.0151 64.6812 19.7954C64.8032 19.5757 64.8887 19.3218 64.9375 19.0337C64.9912 18.7456 65.0181 18.4355 65.0181 18.1035ZM72.9032 20.2129V16.6826C72.9032 16.4287 72.8617 16.2114 72.7787 16.0308C72.6956 15.8452 72.5662 15.7012 72.3905 15.5986C72.2196 15.4961 71.9974 15.4448 71.724 15.4448C71.4896 15.4448 71.287 15.4863 71.1161 15.5693C70.9452 15.6475 70.8133 15.7622 70.7205 15.9136C70.6278 16.0601 70.5814 16.2334 70.5814 16.4336H68.472C68.472 16.0967 68.5501 15.7769 68.7064 15.4741C68.8626 15.1714 69.0897 14.9053 69.3875 14.6758C69.6854 14.4414 70.0394 14.2583 70.4496 14.1265C70.8646 13.9946 71.3285 13.9287 71.8412 13.9287C72.4564 13.9287 73.0033 14.0312 73.4818 14.2363C73.9603 14.4414 74.3363 14.749 74.6097 15.1592C74.888 15.5693 75.0272 16.082 75.0272 16.6973V20.0884C75.0272 20.5229 75.054 20.8794 75.1078 21.1577C75.1615 21.4312 75.2396 21.6704 75.3421 21.8755V22H73.2108C73.1082 21.7852 73.0301 21.5166 72.9764 21.1943C72.9276 20.8672 72.9032 20.54 72.9032 20.2129ZM73.1815 17.1733L73.1961 18.3672H72.0169C71.7386 18.3672 71.4969 18.3989 71.2918 18.4624C71.0868 18.5259 70.9183 18.6162 70.7865 18.7334C70.6546 18.8457 70.557 18.9775 70.4935 19.1289C70.4349 19.2803 70.4056 19.4463 70.4056 19.627C70.4056 19.8076 70.4471 19.9712 70.5301 20.1177C70.6131 20.2593 70.7328 20.3716 70.889 20.4546C71.0453 20.5327 71.2284 20.5718 71.4383 20.5718C71.7557 20.5718 72.0316 20.5083 72.266 20.3813C72.5003 20.2544 72.681 20.0981 72.8079 19.9126C72.9398 19.7271 73.0081 19.5513 73.013 19.3853L73.5697 20.2788C73.4915 20.479 73.3841 20.6865 73.2474 20.9014C73.1156 21.1162 72.9471 21.3188 72.742 21.5093C72.537 21.6948 72.2904 21.8486 72.0023 21.9707C71.7142 22.0879 71.3724 22.1465 70.9769 22.1465C70.474 22.1465 70.0174 22.0464 69.6073 21.8462C69.202 21.6411 68.8797 21.3604 68.6405 21.0039C68.4061 20.6426 68.2889 20.2324 68.2889 19.7734C68.2889 19.3584 68.367 18.9897 68.5233 18.6675C68.6795 18.3452 68.909 18.0742 69.2118 17.8545C69.5194 17.6299 69.9027 17.4614 70.3617 17.3491C70.8206 17.2319 71.3529 17.1733 71.9583 17.1733H73.1815ZM76.8332 10.75H78.9425V20.1836L78.7301 22H76.8332V10.75ZM83.9596 17.957V18.1108C83.9596 18.7017 83.8962 19.2437 83.7692 19.7368C83.6471 20.23 83.4567 20.6572 83.1979 21.0186C82.9391 21.375 82.6169 21.6533 82.2311 21.8535C81.8503 22.0488 81.401 22.1465 80.8835 22.1465C80.4001 22.1465 79.9801 22.0488 79.6237 21.8535C79.2721 21.6582 78.9767 21.3823 78.7375 21.0259C78.4982 20.6694 78.3053 20.252 78.1588 19.7734C78.0124 19.2949 77.9025 18.7725 77.8293 18.2061V17.8691C77.9025 17.3027 78.0124 16.7803 78.1588 16.3018C78.3053 15.8232 78.4982 15.4058 78.7375 15.0493C78.9767 14.6929 79.2721 14.417 79.6237 14.2217C79.9753 14.0264 80.3903 13.9287 80.8688 13.9287C81.3913 13.9287 81.8454 14.0288 82.2311 14.229C82.6217 14.4243 82.944 14.7026 83.1979 15.064C83.4567 15.4204 83.6471 15.8452 83.7692 16.3384C83.8962 16.8267 83.9596 17.3662 83.9596 17.957ZM81.8503 18.1108V17.957C81.8503 17.6348 81.8258 17.332 81.777 17.0488C81.7331 16.7607 81.6549 16.5093 81.5426 16.2944C81.4303 16.0747 81.2765 15.9014 81.0812 15.7744C80.8908 15.6475 80.6442 15.584 80.3415 15.584C80.0534 15.584 79.8092 15.6328 79.609 15.7305C79.4088 15.8281 79.2428 15.9648 79.111 16.1406C78.984 16.3164 78.8888 16.5264 78.8254 16.7705C78.7619 17.0098 78.7228 17.2734 78.7082 17.5615V18.521C78.7228 18.9067 78.7863 19.2485 78.8986 19.5464C79.0158 19.8394 79.1916 20.0713 79.4259 20.2422C79.6652 20.4082 79.9753 20.4912 80.3561 20.4912C80.654 20.4912 80.9005 20.4326 81.0959 20.3154C81.2912 20.1982 81.4425 20.0322 81.55 19.8174C81.6623 19.6025 81.7404 19.3511 81.7843 19.063C81.8283 18.77 81.8503 18.4526 81.8503 18.1108ZM89.728 20.2129V16.6826C89.728 16.4287 89.6865 16.2114 89.6035 16.0308C89.5205 15.8452 89.3911 15.7012 89.2153 15.5986C89.0444 15.4961 88.8222 15.4448 88.5488 15.4448C88.3144 15.4448 88.1118 15.4863 87.9409 15.5693C87.77 15.6475 87.6382 15.7622 87.5454 15.9136C87.4526 16.0601 87.4062 16.2334 87.4062 16.4336H85.2969C85.2969 16.0967 85.375 15.7769 85.5312 15.4741C85.6875 15.1714 85.9145 14.9053 86.2124 14.6758C86.5102 14.4414 86.8642 14.2583 87.2744 14.1265C87.6894 13.9946 88.1533 13.9287 88.666 13.9287C89.2812 13.9287 89.8281 14.0312 90.3066 14.2363C90.7851 14.4414 91.1611 14.749 91.4346 15.1592C91.7129 15.5693 91.852 16.082 91.852 16.6973V20.0884C91.852 20.5229 91.8789 20.8794 91.9326 21.1577C91.9863 21.4312 92.0644 21.6704 92.167 21.8755V22H90.0356C89.9331 21.7852 89.855 21.5166 89.8013 21.1943C89.7524 20.8672 89.728 20.54 89.728 20.2129ZM90.0063 17.1733L90.021 18.3672H88.8418C88.5635 18.3672 88.3218 18.3989 88.1167 18.4624C87.9116 18.5259 87.7431 18.6162 87.6113 18.7334C87.4795 18.8457 87.3818 18.9775 87.3183 19.1289C87.2597 19.2803 87.2304 19.4463 87.2304 19.627C87.2304 19.8076 87.272 19.9712 87.355 20.1177C87.438 20.2593 87.5576 20.3716 87.7138 20.4546C87.8701 20.5327 88.0532 20.5718 88.2632 20.5718C88.5805 20.5718 88.8564 20.5083 89.0908 20.3813C89.3252 20.2544 89.5058 20.0981 89.6328 19.9126C89.7646 19.7271 89.833 19.5513 89.8379 19.3853L90.3945 20.2788C90.3164 20.479 90.209 20.6865 90.0722 20.9014C89.9404 21.1162 89.772 21.3188 89.5669 21.5093C89.3618 21.6948 89.1152 21.8486 88.8271 21.9707C88.539 22.0879 88.1972 22.1465 87.8017 22.1465C87.2988 22.1465 86.8423 22.0464 86.4321 21.8462C86.0268 21.6411 85.7046 21.3604 85.4653 21.0039C85.2309 20.6426 85.1138 20.2324 85.1138 19.7734C85.1138 19.3584 85.1919 18.9897 85.3481 18.6675C85.5044 18.3452 85.7339 18.0742 86.0366 17.8545C86.3442 17.6299 86.7275 17.4614 87.1865 17.3491C87.6455 17.2319 88.1777 17.1733 88.7832 17.1733H90.0063ZM97.9427 19.8101C97.9427 19.6587 97.8987 19.522 97.8108 19.3999C97.7229 19.2778 97.5594 19.1655 97.3201 19.063C97.0857 18.9556 96.7464 18.8579 96.3021 18.77C95.9017 18.6821 95.5281 18.5723 95.1814 18.4404C94.8396 18.3037 94.5418 18.1401 94.2879 17.9497C94.0389 17.7593 93.8436 17.5347 93.702 17.2759C93.5604 17.0122 93.4896 16.7119 93.4896 16.375C93.4896 16.043 93.5604 15.7305 93.702 15.4375C93.8484 15.1445 94.056 14.8857 94.3245 14.6611C94.5979 14.4316 94.93 14.2534 95.3206 14.1265C95.7161 13.9946 96.1604 13.9287 96.6536 13.9287C97.3421 13.9287 97.9329 14.0386 98.4261 14.2583C98.9241 14.478 99.305 14.7808 99.5687 15.1665C99.8372 15.5474 99.9715 15.9819 99.9715 16.4702H97.8621C97.8621 16.2651 97.8182 16.082 97.7303 15.9209C97.6473 15.7549 97.5154 15.6255 97.3348 15.5327C97.159 15.4351 96.9295 15.3862 96.6463 15.3862C96.4119 15.3862 96.2093 15.4277 96.0384 15.5107C95.8675 15.5889 95.7356 15.6963 95.6429 15.833C95.555 15.9648 95.511 16.1113 95.511 16.2725C95.511 16.3945 95.5354 16.5044 95.5843 16.6021C95.638 16.6948 95.7234 16.7803 95.8406 16.8584C95.9578 16.9365 96.1092 17.0098 96.2947 17.0781C96.4852 17.1416 96.7195 17.2002 96.9979 17.2539C97.5691 17.3711 98.0794 17.5249 98.5286 17.7153C98.9778 17.9009 99.3343 18.1548 99.5979 18.4771C99.8616 18.7944 99.9935 19.2119 99.9935 19.7295C99.9935 20.0811 99.9153 20.4033 99.7591 20.6963C99.6028 20.9893 99.3782 21.2456 99.0853 21.4653C98.7923 21.6802 98.4407 21.8486 98.0306 21.9707C97.6253 22.0879 97.1688 22.1465 96.6609 22.1465C95.9236 22.1465 95.2986 22.0146 94.7859 21.751C94.2781 21.4873 93.8924 21.1528 93.6287 20.7476C93.3699 20.3374 93.2405 19.9175 93.2405 19.4878H95.24C95.2498 19.7759 95.323 20.0078 95.4598 20.1836C95.6014 20.3594 95.7796 20.4863 95.9944 20.5645C96.2142 20.6426 96.451 20.6816 96.7049 20.6816C96.9783 20.6816 97.2054 20.645 97.386 20.5718C97.5667 20.4937 97.7034 20.3911 97.7962 20.2642C97.8938 20.1323 97.9427 19.981 97.9427 19.8101ZM105.191 22.1465C104.575 22.1465 104.024 22.0488 103.535 21.8535C103.047 21.6533 102.632 21.3774 102.29 21.0259C101.953 20.6743 101.694 20.2666 101.514 19.8027C101.333 19.334 101.243 18.8359 101.243 18.3086V18.0156C101.243 17.415 101.328 16.8657 101.499 16.3677C101.67 15.8696 101.914 15.4375 102.232 15.0713C102.554 14.7051 102.944 14.4243 103.403 14.229C103.862 14.0288 104.38 13.9287 104.956 13.9287C105.518 13.9287 106.016 14.0215 106.45 14.207C106.885 14.3926 107.249 14.6562 107.542 14.998C107.839 15.3398 108.064 15.75 108.215 16.2285C108.367 16.7021 108.442 17.2295 108.442 17.8105V18.6895H102.144V17.2832H106.37V17.1221C106.37 16.8291 106.316 16.5679 106.209 16.3384C106.106 16.104 105.95 15.9185 105.74 15.7817C105.53 15.645 105.261 15.5767 104.934 15.5767C104.656 15.5767 104.417 15.6377 104.216 15.7598C104.016 15.8818 103.853 16.0527 103.726 16.2725C103.604 16.4922 103.511 16.751 103.447 17.0488C103.389 17.3418 103.359 17.6641 103.359 18.0156V18.3086C103.359 18.626 103.403 18.9189 103.491 19.1875C103.584 19.4561 103.713 19.688 103.88 19.8833C104.05 20.0786 104.255 20.23 104.495 20.3374C104.739 20.4448 105.015 20.4985 105.322 20.4985C105.703 20.4985 106.057 20.4253 106.384 20.2788C106.716 20.1274 107.002 19.9004 107.241 19.5977L108.267 20.7109C108.101 20.9502 107.874 21.1797 107.586 21.3994C107.302 21.6191 106.961 21.7998 106.56 21.9414C106.16 22.0781 105.703 22.1465 105.191 22.1465Z" fill="#0F1418"/>
<path d="M114 0H5C2.23858 0 0 2.23858 0 5V27C0 29.7614 2.23858 32 5 32H114C116.761 32 119 29.7614 119 27V5C119 2.23858 116.761 0 114 0Z" fill="url(#paint2_linear_30_40)"/>
<defs>
<linearGradient id="paint0_linear_30_40" x1="278.714" y1="344.877" x2="868.649" y2="599.044" gradientUnits="userSpaceOnUse">
<stop stop-color="#249361"/>
<stop offset="1" stop-color="#3ECF8E"/>
</linearGradient>
<linearGradient id="paint1_linear_30_40" x1="40.5085" y1="-199.892" x2="406.57" y2="507.971" gradientUnits="userSpaceOnUse">
<stop/>
<stop offset="1" stop-opacity="0"/>
</linearGradient>
<linearGradient id="paint2_linear_30_40" x1="0" y1="0" x2="0" y2="32" gradientUnits="userSpaceOnUse">
<stop stop-color="#BBBBBB" stop-opacity="0.1"/>
<stop offset="1" stop-opacity="0.1"/>
</linearGradient>
<clipPath id="clip0_30_40">
<rect width="25" height="25" fill="white" transform="translate(3 3)"/>
</clipPath>
</defs>
</svg>
