<svg width="95" height="21" viewBox="0 0 95 21" fill="none" xmlns="http://www.w3.org/2000/svg">
<path d="M90 0H31V21H90C92.7614 21 95 18.7614 95 16V5C95 2.23858 92.7614 0 90 0Z" fill="white"/>
<path d="M31 0H5C2.23858 0 0 2.23858 0 5V16C0 18.7614 2.23858 21 5 21H31V0Z" fill="black"/>
<path d="M49.6258 12.5156L51.3006 6.89062H52.9314L50.4559 14H49.3816L49.6258 12.5156ZM48.0828 6.89062L49.7527 12.5156L50.0066 14H48.9227L46.4617 6.89062H48.0828ZM56.0202 14.0977C55.61 14.0977 55.2422 14.0326 54.9167 13.9023C54.5912 13.7689 54.3145 13.585 54.0866 13.3506C53.862 13.1162 53.6895 12.8444 53.569 12.5352C53.4486 12.2227 53.3884 11.8906 53.3884 11.5391V11.3438C53.3884 10.9434 53.4453 10.5771 53.5593 10.2451C53.6732 9.91309 53.836 9.625 54.0475 9.38086C54.2624 9.13672 54.5228 8.94954 54.8288 8.81934C55.1348 8.68587 55.4798 8.61914 55.8639 8.61914C56.2383 8.61914 56.5703 8.68099 56.86 8.80469C57.1498 8.92839 57.3923 9.10417 57.5876 9.33203C57.7861 9.5599 57.9359 9.83333 58.0368 10.1523C58.1377 10.4681 58.1882 10.8197 58.1882 11.207V11.793H53.9889V10.8555H56.8063V10.748C56.8063 10.5527 56.7705 10.3786 56.6989 10.2256C56.6305 10.0693 56.5264 9.94564 56.3864 9.85449C56.2464 9.76335 56.0674 9.71777 55.8493 9.71777C55.6637 9.71777 55.5042 9.75846 55.3708 9.83984C55.2373 9.92122 55.1283 10.0352 55.0436 10.1816C54.9623 10.3281 54.9004 10.5007 54.8581 10.6992C54.819 10.8945 54.7995 11.1094 54.7995 11.3438V11.5391C54.7995 11.7507 54.8288 11.946 54.8874 12.125C54.9492 12.304 55.0355 12.4587 55.1462 12.5889C55.2601 12.7191 55.3968 12.82 55.5563 12.8916C55.7191 12.9632 55.903 12.999 56.1081 12.999C56.362 12.999 56.598 12.9502 56.8161 12.8525C57.0374 12.7516 57.2279 12.6003 57.3874 12.3984L58.071 13.1406C57.9603 13.3001 57.8089 13.4531 57.6169 13.5996C57.4281 13.7461 57.2002 13.8665 56.9333 13.9609C56.6664 14.0521 56.362 14.0977 56.0202 14.0977ZM60.5152 9.86914V14H59.1089V8.7168H60.4322L60.5152 9.86914ZM62.107 8.68262L62.0826 9.98633C62.0142 9.97656 61.9312 9.96842 61.8336 9.96191C61.7392 9.95215 61.6529 9.94727 61.5748 9.94727C61.3762 9.94727 61.2037 9.97331 61.0572 10.0254C60.914 10.0742 60.7935 10.1475 60.6959 10.2451C60.6015 10.3428 60.5298 10.4616 60.481 10.6016C60.4354 10.7415 60.4094 10.901 60.4029 11.0801L60.1197 10.9922C60.1197 10.6504 60.1539 10.3363 60.2222 10.0498C60.2906 9.76009 60.3899 9.50781 60.5201 9.29297C60.6535 9.07812 60.8163 8.91211 61.0084 8.79492C61.2004 8.67773 61.4201 8.61914 61.6675 8.61914C61.7457 8.61914 61.8254 8.62565 61.9068 8.63867C61.9882 8.64844 62.0549 8.66309 62.107 8.68262ZM64.976 12.999C65.1485 12.999 65.3015 12.9665 65.435 12.9014C65.5685 12.833 65.6726 12.7386 65.7475 12.6182C65.8256 12.4945 65.8663 12.3496 65.8696 12.1836H67.1928C67.1896 12.5547 67.0903 12.8851 66.895 13.1748C66.6996 13.4613 66.4376 13.6875 66.1088 13.8535C65.7801 14.0163 65.4122 14.0977 65.0053 14.0977C64.5952 14.0977 64.2371 14.0293 63.9311 13.8926C63.6284 13.7559 63.3761 13.5671 63.1743 13.3262C62.9724 13.082 62.8211 12.7988 62.7202 12.4766C62.6192 12.151 62.5688 11.8027 62.5688 11.4316V11.29C62.5688 10.9157 62.6192 10.5674 62.7202 10.2451C62.8211 9.9196 62.9724 9.63639 63.1743 9.39551C63.3761 9.15137 63.6284 8.96094 63.9311 8.82422C64.2338 8.6875 64.5886 8.61914 64.9955 8.61914C65.4285 8.61914 65.8077 8.70215 66.1332 8.86816C66.462 9.03418 66.7192 9.27181 66.9047 9.58105C67.0935 9.88704 67.1896 10.25 67.1928 10.6699H65.8696C65.8663 10.4941 65.8289 10.3346 65.7573 10.1914C65.6889 10.0482 65.588 9.93424 65.4545 9.84961C65.3243 9.76172 65.1632 9.71777 64.9711 9.71777C64.7661 9.71777 64.5984 9.76172 64.4682 9.84961C64.338 9.93424 64.2371 10.0514 64.1655 10.2012C64.0939 10.3477 64.0434 10.5153 64.0141 10.7041C63.9881 10.8896 63.975 11.085 63.975 11.29V11.4316C63.975 11.6367 63.9881 11.8337 64.0141 12.0225C64.0401 12.2113 64.089 12.3789 64.1606 12.5254C64.2355 12.6719 64.338 12.7874 64.4682 12.8721C64.5984 12.9567 64.7677 12.999 64.976 12.999ZM70.5599 14.0977C70.1497 14.0977 69.7819 14.0326 69.4564 13.9023C69.1308 13.7689 68.8542 13.585 68.6263 13.3506C68.4017 13.1162 68.2292 12.8444 68.1087 12.5352C67.9883 12.2227 67.928 11.8906 67.928 11.5391V11.3438C67.928 10.9434 67.985 10.5771 68.0989 10.2451C68.2129 9.91309 68.3756 9.625 68.5872 9.38086C68.8021 9.13672 69.0625 8.94954 69.3685 8.81934C69.6745 8.68587 70.0195 8.61914 70.4036 8.61914C70.778 8.61914 71.11 8.68099 71.3997 8.80469C71.6894 8.92839 71.932 9.10417 72.1273 9.33203C72.3258 9.5599 72.4756 9.83333 72.5765 10.1523C72.6774 10.4681 72.7279 10.8197 72.7279 11.207V11.793H68.5286V10.8555H71.346V10.748C71.346 10.5527 71.3102 10.3786 71.2386 10.2256C71.1702 10.0693 71.0661 9.94564 70.9261 9.85449C70.7861 9.76335 70.6071 9.71777 70.389 9.71777C70.2034 9.71777 70.0439 9.75846 69.9105 9.83984C69.777 9.92122 69.668 10.0352 69.5833 10.1816C69.5019 10.3281 69.4401 10.5007 69.3978 10.6992C69.3587 10.8945 69.3392 11.1094 69.3392 11.3438V11.5391C69.3392 11.7507 69.3685 11.946 69.4271 12.125C69.4889 12.304 69.5752 12.4587 69.6859 12.5889C69.7998 12.7191 69.9365 12.82 70.096 12.8916C70.2588 12.9632 70.4427 12.999 70.6478 12.999C70.9017 12.999 71.1377 12.9502 71.3558 12.8525C71.5771 12.7516 71.7676 12.6003 71.9271 12.3984L72.6107 13.1406C72.5 13.3001 72.3486 13.4531 72.1566 13.5996C71.9678 13.7461 71.7399 13.8665 71.473 13.9609C71.206 14.0521 70.9017 14.0977 70.5599 14.0977ZM75.133 6.5V14H73.7219V6.5H75.133Z" fill="black"/>
<path d="M90 0H5C2.23858 0 0 2.23858 0 5V16C0 18.7614 2.23857 21 5 21H90C92.7614 21 95 18.7614 95 16V5C95 2.23858 92.7614 0 90 0Z" fill="url(#paint0_linear_50_340)"/>
<path fill-rule="evenodd" clip-rule="evenodd" d="M16 3L24 17H8L16 3Z" fill="white"/>
<defs>
<linearGradient id="paint0_linear_50_340" x1="0" y1="0" x2="0" y2="21" gradientUnits="userSpaceOnUse">
<stop stop-color="#BBBBBB" stop-opacity="0.1"/>
<stop offset="1" stop-opacity="0.1"/>
</linearGradient>
</defs>
</svg>
