<svg width="97" height="21" viewBox="0 0 97 21" fill="none" xmlns="http://www.w3.org/2000/svg">
<path d="M92 0H31V21H92C94.7614 21 97 18.7614 97 16V5C97 2.23858 94.7614 0 92 0Z" fill="white"/>
<path d="M31 0H5C2.23858 0 0 2.23858 0 5V16C0 18.7614 2.23858 21 5 21H31V0Z" fill="#FD4F31"/>
<path d="M50.556 12.8574V14H46.9769V12.8574H50.556ZM47.4505 6.89062V14H45.9857V6.89062H47.4505ZM54.4553 12.8086V10.4551C54.4553 10.2858 54.4276 10.141 54.3723 10.0205C54.317 9.89681 54.2307 9.80078 54.1135 9.73242C53.9996 9.66406 53.8515 9.62988 53.6692 9.62988C53.5129 9.62988 53.3778 9.65755 53.2639 9.71289C53.15 9.76497 53.0621 9.84147 53.0002 9.94238C52.9384 10.04 52.9075 10.1556 52.9075 10.2891H51.5012C51.5012 10.0645 51.5533 9.85124 51.6575 9.64941C51.7616 9.44759 51.913 9.27018 52.1116 9.11719C52.3101 8.96094 52.5461 8.83887 52.8196 8.75098C53.0963 8.66309 53.4055 8.61914 53.7473 8.61914C54.1575 8.61914 54.522 8.6875 54.8411 8.82422C55.1601 8.96094 55.4107 9.16602 55.593 9.43945C55.7786 9.71289 55.8713 10.0547 55.8713 10.4648V12.7256C55.8713 13.0153 55.8892 13.2529 55.925 13.4385C55.9608 13.6208 56.0129 13.7803 56.0813 13.917V14H54.6604C54.592 13.8568 54.5399 13.6777 54.5041 13.4629C54.4716 13.2448 54.4553 13.0267 54.4553 12.8086ZM54.6409 10.7822L54.6506 11.5781H53.8645C53.6789 11.5781 53.5178 11.5993 53.3811 11.6416C53.2444 11.6839 53.1321 11.7441 53.0442 11.8223C52.9563 11.8971 52.8912 11.985 52.8489 12.0859C52.8098 12.1868 52.7903 12.2975 52.7903 12.418C52.7903 12.5384 52.8179 12.6475 52.8733 12.7451C52.9286 12.8395 53.0084 12.9144 53.1125 12.9697C53.2167 13.0218 53.3388 13.0479 53.4787 13.0479C53.6903 13.0479 53.8743 13.0055 54.0305 12.9209C54.1868 12.8363 54.3072 12.7321 54.3918 12.6084C54.4797 12.4847 54.5253 12.3675 54.5286 12.2568L54.8996 12.8525C54.8476 12.986 54.7759 13.1243 54.6848 13.2676C54.5969 13.4108 54.4846 13.5459 54.3479 13.6729C54.2112 13.7965 54.0468 13.8991 53.8547 13.9805C53.6627 14.0586 53.4348 14.0977 53.1711 14.0977C52.8358 14.0977 52.5315 14.0309 52.258 13.8975C51.9879 13.7607 51.773 13.5736 51.6135 13.3359C51.4573 13.0951 51.3791 12.8216 51.3791 12.5156C51.3791 12.2389 51.4312 11.9932 51.5354 11.7783C51.6396 11.5635 51.7926 11.3828 51.9944 11.2363C52.1995 11.0866 52.455 10.9743 52.761 10.8994C53.067 10.8213 53.4218 10.7822 53.8254 10.7822H54.6409ZM58.4816 9.86914V14H57.0753V8.7168H58.3986L58.4816 9.86914ZM60.0734 8.68262L60.0489 9.98633C59.9806 9.97656 59.8976 9.96842 59.7999 9.96191C59.7055 9.95215 59.6193 9.94727 59.5411 9.94727C59.3426 9.94727 59.17 9.97331 59.0236 10.0254C58.8803 10.0742 58.7599 10.1475 58.6622 10.2451C58.5678 10.3428 58.4962 10.4616 58.4474 10.6016C58.4018 10.7415 58.3758 10.901 58.3693 11.0801L58.0861 10.9922C58.0861 10.6504 58.1202 10.3363 58.1886 10.0498C58.257 9.76009 58.3562 9.50781 58.4864 9.29297C58.6199 9.07812 58.7827 8.91211 58.9747 8.79492C59.1668 8.67773 59.3865 8.61914 59.6339 8.61914C59.712 8.61914 59.7918 8.62565 59.8732 8.63867C59.9545 8.64844 60.0213 8.66309 60.0734 8.68262ZM63.543 12.8086V10.4551C63.543 10.2858 63.5153 10.141 63.46 10.0205C63.4046 9.89681 63.3184 9.80078 63.2012 9.73242C63.0872 9.66406 62.9391 9.62988 62.7568 9.62988C62.6006 9.62988 62.4655 9.65755 62.3516 9.71289C62.2376 9.76497 62.1497 9.84147 62.0879 9.94238C62.026 10.04 61.9951 10.1556 61.9951 10.2891H60.5889C60.5889 10.0645 60.641 9.85124 60.7451 9.64941C60.8493 9.44759 61.0007 9.27018 61.1992 9.11719C61.3978 8.96094 61.6338 8.83887 61.9072 8.75098C62.1839 8.66309 62.4932 8.61914 62.835 8.61914C63.2451 8.61914 63.6097 8.6875 63.9287 8.82422C64.2477 8.96094 64.4984 9.16602 64.6807 9.43945C64.8662 9.71289 64.959 10.0547 64.959 10.4648V12.7256C64.959 13.0153 64.9769 13.2529 65.0127 13.4385C65.0485 13.6208 65.1006 13.7803 65.1689 13.917V14H63.748C63.6797 13.8568 63.6276 13.6777 63.5918 13.4629C63.5592 13.2448 63.543 13.0267 63.543 12.8086ZM63.7285 10.7822L63.7383 11.5781H62.9521C62.7666 11.5781 62.6055 11.5993 62.4688 11.6416C62.332 11.6839 62.2197 11.7441 62.1318 11.8223C62.0439 11.8971 61.9788 11.985 61.9365 12.0859C61.8975 12.1868 61.8779 12.2975 61.8779 12.418C61.8779 12.5384 61.9056 12.6475 61.9609 12.7451C62.0163 12.8395 62.096 12.9144 62.2002 12.9697C62.3044 13.0218 62.4264 13.0479 62.5664 13.0479C62.778 13.0479 62.9619 13.0055 63.1182 12.9209C63.2744 12.8363 63.3949 12.7321 63.4795 12.6084C63.5674 12.4847 63.613 12.3675 63.6162 12.2568L63.9873 12.8525C63.9352 12.986 63.8636 13.1243 63.7725 13.2676C63.6846 13.4108 63.5723 13.5459 63.4355 13.6729C63.2988 13.7965 63.1344 13.8991 62.9424 13.9805C62.7503 14.0586 62.5225 14.0977 62.2588 14.0977C61.9235 14.0977 61.6191 14.0309 61.3457 13.8975C61.0755 13.7607 60.8607 13.5736 60.7012 13.3359C60.5449 13.0951 60.4668 12.8216 60.4668 12.5156C60.4668 12.2389 60.5189 11.9932 60.623 11.7783C60.7272 11.5635 60.8802 11.3828 61.082 11.2363C61.2871 11.0866 61.5426 10.9743 61.8486 10.8994C62.1546 10.8213 62.5094 10.7822 62.9131 10.7822H63.7285ZM67.8817 12.9746L69.0536 8.7168H70.5233L68.7411 14H67.8524L67.8817 12.9746ZM67.0761 8.7168L68.2528 12.9795L68.2772 14H67.3837L65.6014 8.7168H67.0761ZM73.6365 14.0977C73.2263 14.0977 72.8585 14.0326 72.533 13.9023C72.2074 13.7689 71.9308 13.585 71.7029 13.3506C71.4783 13.1162 71.3058 12.8444 71.1853 12.5352C71.0649 12.2227 71.0046 11.8906 71.0046 11.5391V11.3438C71.0046 10.9434 71.0616 10.5771 71.1755 10.2451C71.2895 9.91309 71.4522 9.625 71.6638 9.38086C71.8787 9.13672 72.1391 8.94954 72.4451 8.81934C72.7511 8.68587 73.0961 8.61914 73.4802 8.61914C73.8546 8.61914 74.1866 8.68099 74.4763 8.80469C74.766 8.92839 75.0086 9.10417 75.2039 9.33203C75.4024 9.5599 75.5522 9.83333 75.6531 10.1523C75.754 10.4681 75.8045 10.8197 75.8045 11.207V11.793H71.6052V10.8555H74.4226V10.748C74.4226 10.5527 74.3868 10.3786 74.3152 10.2256C74.2468 10.0693 74.1427 9.94564 74.0027 9.85449C73.8627 9.76335 73.6837 9.71777 73.4656 9.71777C73.28 9.71777 73.1205 9.75846 72.9871 9.83984C72.8536 9.92122 72.7446 10.0352 72.6599 10.1816C72.5785 10.3281 72.5167 10.5007 72.4744 10.6992C72.4353 10.8945 72.4158 11.1094 72.4158 11.3438V11.5391C72.4158 11.7507 72.4451 11.946 72.5037 12.125C72.5655 12.304 72.6518 12.4587 72.7625 12.5889C72.8764 12.7191 73.0131 12.82 73.1726 12.8916C73.3354 12.9632 73.5193 12.999 73.7244 12.999C73.9783 12.999 74.2143 12.9502 74.4324 12.8525C74.6537 12.7516 74.8442 12.6003 75.0037 12.3984L75.6873 13.1406C75.5766 13.3001 75.4252 13.4531 75.2332 13.5996C75.0444 13.7461 74.8165 13.8665 74.5496 13.9609C74.2826 14.0521 73.9783 14.0977 73.6365 14.0977ZM78.2096 6.5V14H76.7985V6.5H78.2096Z" fill="#0F1418"/>
<path d="M92 0H5C2.23858 0 0 2.23858 0 5V16C0 18.7614 2.23858 21 5 21H92C94.7614 21 97 18.7614 97 16V5C97 2.23858 94.7614 0 92 0Z" fill="url(#paint0_linear_50_146)"/>
<path d="M23.9905 6.38751C23.9961 6.40745 23.9989 6.42802 23.9989 6.4487V9.66279C23.9989 9.74677 23.9527 9.82432 23.8775 9.86609L21.0958 11.4193V14.4977C21.0958 14.5389 21.0847 14.5794 21.0635 14.6151C21.0423 14.6508 21.0118 14.6804 20.975 14.7011L15.1683 17.9427C15.155 17.95 15.1405 17.9547 15.126 17.9597C15.1206 17.9614 15.1155 17.9647 15.1097 17.9661C15.0691 17.9765 15.0265 17.9765 14.9859 17.9661C14.9792 17.9644 14.9732 17.9609 14.9668 17.9585C14.9535 17.9538 14.9396 17.9497 14.927 17.9427L9.12146 14.701C9.08456 14.6805 9.05391 14.6509 9.03259 14.6152C9.01126 14.5795 9.00002 14.539 9 14.4977V4.85546C9 4.83432 9.00305 4.81381 9.00844 4.79393C9.01025 4.78716 9.01447 4.78103 9.01693 4.77427C9.02144 4.76199 9.02572 4.74938 9.03234 4.73796C9.03685 4.73035 9.04347 4.72421 9.04892 4.71717C9.05589 4.70779 9.06222 4.69813 9.07037 4.68989C9.07734 4.68319 9.08642 4.67819 9.09427 4.67234C9.10306 4.66529 9.11085 4.65768 9.12081 4.65211H9.1211L12.024 3.03131C12.0607 3.0108 12.1024 3 12.1448 3C12.1872 3 12.2289 3.0108 12.2657 3.03131L15.1685 4.65211H15.1691C15.1788 4.65802 15.187 4.66529 15.1957 4.67205C15.2036 4.6779 15.2124 4.68319 15.2193 4.68967C15.2278 4.69813 15.2338 4.70785 15.241 4.71717C15.2462 4.72421 15.2532 4.73035 15.2574 4.73796C15.2643 4.74966 15.2682 4.76199 15.2731 4.77432C15.2755 4.78103 15.2797 4.78716 15.2815 4.79421C15.2871 4.81415 15.2899 4.83478 15.29 4.85546V10.8778L17.7089 9.52711V6.44842C17.7089 6.42796 17.712 6.40711 17.7174 6.38751C17.7195 6.38046 17.7235 6.37432 17.7259 6.36762C17.7307 6.35529 17.7349 6.34262 17.7416 6.33126C17.7461 6.32364 17.7527 6.31751 17.7579 6.31046C17.7651 6.30109 17.7712 6.29143 17.7796 6.28319C17.7866 6.27648 17.7954 6.27148 17.8032 6.26563C17.8123 6.25859 17.8201 6.25097 17.8298 6.2454H17.8301L20.7333 4.62461C20.77 4.60407 20.8117 4.59325 20.8541 4.59325C20.8965 4.59325 20.9382 4.60407 20.975 4.62461L23.8778 6.2454C23.8881 6.25126 23.8959 6.25859 23.905 6.26529C23.9125 6.2712 23.9213 6.27648 23.9283 6.2829C23.9367 6.29143 23.9428 6.30109 23.95 6.31046C23.9555 6.31751 23.9621 6.32364 23.9664 6.33126C23.9733 6.34262 23.9772 6.35529 23.982 6.36762C23.9848 6.37432 23.9887 6.38046 23.9905 6.38751ZM23.515 9.52716V6.85444L22.4992 7.42154L21.0958 8.20518V10.8779L23.5153 9.52716H23.515ZM20.6122 14.3621V11.6875L19.2317 12.4521L15.2897 14.6339V17.3336L20.6122 14.3621ZM9.48389 5.26114V14.3621L14.8058 17.3334V14.6342L12.0256 13.1083L12.0247 13.1077L12.0235 13.1072C12.0141 13.1019 12.0062 13.0943 11.9975 13.0878C11.9899 13.0819 11.9812 13.0773 11.9745 13.0708L11.9739 13.0699C11.9661 13.0626 11.9606 13.0535 11.954 13.0453C11.9479 13.0374 11.9407 13.0307 11.9359 13.0225L11.9356 13.0216C11.9301 13.0128 11.9268 13.0023 11.9229 12.9923C11.9189 12.9835 11.9138 12.9753 11.9114 12.966V12.9657C11.9084 12.9546 11.9078 12.9428 11.9066 12.9314C11.9054 12.9226 11.9029 12.9138 11.9029 12.905V6.61194L10.4998 5.82796L9.48389 5.26148V5.26114ZM12.1451 3.50529L9.72645 4.85546L12.1446 6.20557L14.5629 4.85512L12.1446 3.50529H12.1451ZM13.403 11.9313L14.8061 11.148V5.26114L13.7903 5.8283L12.3868 6.61188V12.4987L13.403 11.9313ZM20.8541 5.09859L18.4357 6.4487L20.8541 7.79887L23.2721 6.44842L20.8541 5.09859ZM20.6121 8.20518L19.2087 7.42154L18.1929 6.85444V9.52716L19.596 10.3105L20.6122 10.8779L20.6121 8.20518ZM15.0474 14.2282L18.5946 12.2644L20.3678 11.283L17.9512 9.93376L15.1688 11.4872L12.633 12.903L15.0474 14.2282Z" fill="white"/>
<defs>
<linearGradient id="paint0_linear_50_146" x1="0" y1="0" x2="0" y2="21" gradientUnits="userSpaceOnUse">
<stop stop-color="#BBBBBB" stop-opacity="0.1"/>
<stop offset="1" stop-opacity="0.1"/>
</linearGradient>
</defs>
</svg>
