<svg width="92" height="32" viewBox="0 0 92 32" fill="none" xmlns="http://www.w3.org/2000/svg">
<path d="M87 0H31V32H87C89.7614 32 92 29.7614 92 27V5C92 2.23858 89.7614 0 87 0Z" fill="#3C92C7"/>
<path d="M31 0H5C2.23858 0 0 2.23858 0 5V27C0 29.7614 2.23858 32 5 32H31V0Z" fill="#3C92C7"/>
<path d="M25.0599 26.6664L16.5158 29L7.97164 26.6664L6 5H27.0319L25.0599 26.6664Z" fill="white"/>
<path d="M16.5158 6.755V27.1388L16.5351 27.1442L23.4495 25.2556L25.0454 6.755H16.5158Z" fill="white"/>
<path d="M16.5082 12.1723L10.3929 14.7557L10.5957 17.3134L16.5082 14.7492L22.7975 12.0218L23.0583 9.40527L16.5082 12.1723Z" fill="#3C92C7"/>
<path d="M10.3929 14.7558L10.5956 17.3136L16.5082 14.7494V12.1725L10.3929 14.7558Z" fill="#3C92C7"/>
<path d="M23.0583 9.40552L16.5081 12.1725V14.7494L22.7975 12.0219L23.0583 9.40552Z" fill="#3C92C7"/>
<path d="M10.4023 14.7557L10.6051 17.3135L19.6771 17.3427L19.4741 20.753L16.489 21.6055L13.6193 20.8705L13.4454 18.7538H10.779L11.1268 22.8402L16.5179 24.4571L21.8798 22.8696L22.5755 14.7557H10.4023Z" fill="#3C92C7"/>
<path d="M16.5082 14.7557H10.3929L10.5957 17.3135L16.5082 17.3325V14.7557ZM16.5082 21.5974L16.4792 21.6055L13.61 20.8706L13.4361 18.7538H10.7697L11.1175 22.8403L16.5082 24.4572V21.5974Z" fill="#3C92C7"/>
<path d="M9.84216 9.40552H23.0583L22.7975 12.022H10.1609L9.84216 9.40552Z" fill="#3C92C7"/>
<path opacity="0.05" d="M16.5082 9.40552H9.84216L10.1609 12.022H16.5082V9.40552Z" fill="#3C92C7"/>
<path d="M49.9068 17.4624H52.0967C52.0528 18.1802 51.855 18.8174 51.5034 19.374C51.1568 19.9307 50.6709 20.3652 50.0459 20.6777C49.4258 20.9902 48.6787 21.1465 47.8047 21.1465C47.1211 21.1465 46.5083 21.0293 45.9663 20.7949C45.4243 20.5557 44.9605 20.2139 44.5747 19.7695C44.1939 19.3252 43.9033 18.7881 43.7031 18.1582C43.5029 17.5283 43.4029 16.8228 43.4029 16.0415V15.3018C43.4029 14.5205 43.5054 13.8149 43.7105 13.1851C43.9204 12.5503 44.2183 12.0107 44.604 11.5664C44.9946 11.1221 45.461 10.7803 46.0029 10.541C46.5449 10.3018 47.1504 10.1821 47.8194 10.1821C48.708 10.1821 49.4575 10.3433 50.0679 10.6655C50.6831 10.9878 51.1592 11.4321 51.4961 11.9985C51.8379 12.5649 52.043 13.2095 52.1113 13.9321H49.9141C49.8897 13.5024 49.8042 13.1387 49.6577 12.8408C49.5112 12.5381 49.2891 12.311 48.9912 12.1597C48.6983 12.0034 48.3076 11.9253 47.8194 11.9253C47.4531 11.9253 47.1333 11.9937 46.8599 12.1304C46.5864 12.2671 46.357 12.4746 46.1714 12.7529C45.9859 13.0312 45.8467 13.3828 45.7539 13.8076C45.666 14.2275 45.6221 14.7207 45.6221 15.2871V16.0415C45.6221 16.5933 45.6636 17.0791 45.7466 17.499C45.8296 17.9141 45.9566 18.2656 46.1275 18.5537C46.3032 18.8369 46.5279 19.0518 46.8013 19.1982C47.0796 19.3398 47.4141 19.4106 47.8047 19.4106C48.2637 19.4106 48.6421 19.3374 48.94 19.1909C49.2378 19.0444 49.4649 18.8271 49.6211 18.5391C49.7822 18.251 49.8775 17.8921 49.9068 17.4624ZM59.2713 18.2095C59.2713 18.019 59.242 17.8481 59.1834 17.6968C59.1297 17.5405 59.0272 17.3989 58.8758 17.272C58.7245 17.1401 58.5121 17.0107 58.2386 16.8838C57.9652 16.7568 57.6112 16.625 57.1766 16.4883C56.6932 16.332 56.2342 16.1562 55.7996 15.9609C55.37 15.7656 54.9891 15.5386 54.6571 15.2798C54.3299 15.0161 54.0711 14.7109 53.8807 14.3643C53.6952 14.0176 53.6024 13.6147 53.6024 13.1558C53.6024 12.7114 53.7 12.3086 53.8954 11.9473C54.0907 11.5811 54.3641 11.2686 54.7157 11.0098C55.0672 10.7461 55.4823 10.5435 55.9608 10.4019C56.4442 10.2603 56.974 10.1895 57.5501 10.1895C58.3363 10.1895 59.0223 10.3311 59.6082 10.6143C60.1942 10.8975 60.6483 11.2856 60.9705 11.7788C61.2977 12.272 61.4613 12.8359 61.4613 13.4707H59.2787C59.2787 13.1582 59.2127 12.8848 59.0809 12.6504C58.9539 12.4111 58.7586 12.2231 58.495 12.0864C58.2362 11.9497 57.909 11.8813 57.5135 11.8813C57.1327 11.8813 56.8153 11.9399 56.5614 12.0571C56.3075 12.1694 56.117 12.3232 55.9901 12.5186C55.8631 12.709 55.7996 12.9238 55.7996 13.1631C55.7996 13.3438 55.8436 13.5073 55.9315 13.6538C56.0243 13.8003 56.161 13.937 56.3416 14.064C56.5223 14.1909 56.7445 14.3105 57.0081 14.4229C57.2718 14.5352 57.577 14.645 57.9237 14.7524C58.5047 14.9282 59.015 15.126 59.4544 15.3457C59.8988 15.5654 60.2699 15.812 60.5677 16.0854C60.8656 16.3589 61.0902 16.6689 61.2415 17.0156C61.3929 17.3623 61.4686 17.7554 61.4686 18.1948C61.4686 18.6587 61.3783 19.0737 61.1976 19.4399C61.0169 19.8062 60.7557 20.1162 60.4139 20.3701C60.0721 20.624 59.6644 20.8169 59.1908 20.9487C58.7171 21.0806 58.1873 21.1465 57.6014 21.1465C57.0741 21.1465 56.554 21.0781 56.0413 20.9414C55.5287 20.7998 55.0623 20.5874 54.6424 20.3042C54.2274 20.021 53.8954 19.6597 53.6463 19.2202C53.3973 18.7808 53.2728 18.2607 53.2728 17.6602H55.4774C55.4774 17.9922 55.5287 18.2729 55.6312 18.5024C55.7337 18.7319 55.8778 18.9175 56.0633 19.0591C56.2537 19.2007 56.4784 19.3032 56.7371 19.3667C57.0008 19.4302 57.2889 19.4619 57.6014 19.4619C57.9823 19.4619 58.2948 19.4082 58.5389 19.3008C58.7879 19.1934 58.971 19.0444 59.0882 18.854C59.2103 18.6636 59.2713 18.4487 59.2713 18.2095ZM68.6945 18.2095C68.6945 18.019 68.6652 17.8481 68.6066 17.6968C68.5529 17.5405 68.4504 17.3989 68.299 17.272C68.1476 17.1401 67.9352 17.0107 67.6618 16.8838C67.3883 16.7568 67.0343 16.625 66.5998 16.4883C66.1164 16.332 65.6574 16.1562 65.2228 15.9609C64.7931 15.7656 64.4123 15.5386 64.0802 15.2798C63.7531 15.0161 63.4943 14.7109 63.3039 14.3643C63.1183 14.0176 63.0255 13.6147 63.0255 13.1558C63.0255 12.7114 63.1232 12.3086 63.3185 11.9473C63.5138 11.5811 63.7873 11.2686 64.1388 11.0098C64.4904 10.7461 64.9054 10.5435 65.3839 10.4019C65.8673 10.2603 66.3971 10.1895 66.9733 10.1895C67.7594 10.1895 68.4455 10.3311 69.0314 10.6143C69.6173 10.8975 70.0714 11.2856 70.3937 11.7788C70.7209 12.272 70.8844 12.8359 70.8844 13.4707H68.7018C68.7018 13.1582 68.6359 12.8848 68.5041 12.6504C68.3771 12.4111 68.1818 12.2231 67.9181 12.0864C67.6593 11.9497 67.3322 11.8813 66.9367 11.8813C66.5558 11.8813 66.2384 11.9399 65.9845 12.0571C65.7306 12.1694 65.5402 12.3232 65.4132 12.5186C65.2863 12.709 65.2228 12.9238 65.2228 13.1631C65.2228 13.3438 65.2668 13.5073 65.3546 13.6538C65.4474 13.8003 65.5841 13.937 65.7648 14.064C65.9455 14.1909 66.1676 14.3105 66.4313 14.4229C66.695 14.5352 67.0002 14.645 67.3468 14.7524C67.9279 14.9282 68.4381 15.126 68.8776 15.3457C69.3219 15.5654 69.693 15.812 69.9909 16.0854C70.2887 16.3589 70.5133 16.6689 70.6647 17.0156C70.8161 17.3623 70.8918 17.7554 70.8918 18.1948C70.8918 18.6587 70.8014 19.0737 70.6208 19.4399C70.4401 19.8062 70.1789 20.1162 69.8371 20.3701C69.4953 20.624 69.0876 20.8169 68.6139 20.9487C68.1403 21.0806 67.6105 21.1465 67.0246 21.1465C66.4972 21.1465 65.9772 21.0781 65.4645 20.9414C64.9518 20.7998 64.4855 20.5874 64.0656 20.3042C63.6505 20.021 63.3185 19.6597 63.0695 19.2202C62.8205 18.7808 62.696 18.2607 62.696 17.6602H64.9005C64.9005 17.9922 64.9518 18.2729 65.0544 18.5024C65.1569 18.7319 65.3009 18.9175 65.4865 19.0591C65.6769 19.2007 65.9015 19.3032 66.1603 19.3667C66.424 19.4302 66.7121 19.4619 67.0246 19.4619C67.4054 19.4619 67.7179 19.4082 67.9621 19.3008C68.2111 19.1934 68.3942 19.0444 68.5114 18.854C68.6335 18.6636 68.6945 18.4487 68.6945 18.2095ZM74.5068 14.7524H75.6347C75.9961 14.7524 76.2939 14.6914 76.5283 14.5693C76.7627 14.4424 76.936 14.2666 77.0483 14.042C77.1655 13.8125 77.2241 13.5464 77.2241 13.2437C77.2241 12.9702 77.1704 12.7285 77.063 12.5186C76.9604 12.3037 76.8017 12.1377 76.5869 12.0205C76.3721 11.8984 76.1011 11.8374 75.7739 11.8374C75.5151 11.8374 75.2759 11.8887 75.0561 11.9912C74.8364 12.0938 74.6606 12.2378 74.5288 12.4233C74.397 12.6089 74.331 12.8335 74.331 13.0972H72.2143C72.2143 12.5112 72.3706 12.001 72.6831 11.5664C73.0005 11.1318 73.4253 10.7925 73.9575 10.5483C74.4897 10.3042 75.0757 10.1821 75.7153 10.1821C76.438 10.1821 77.0703 10.2993 77.6123 10.5337C78.1543 10.7632 78.5766 11.1025 78.8794 11.5518C79.1821 12.001 79.3335 12.5576 79.3335 13.2217C79.3335 13.5586 79.2554 13.8857 79.0991 14.2031C78.9429 14.5156 78.7182 14.7988 78.4253 15.0527C78.1372 15.3018 77.7856 15.502 77.3706 15.6533C76.9555 15.7998 76.4892 15.873 75.9717 15.873H74.5068V14.7524ZM74.5068 16.3564V15.2651H75.9717C76.5527 15.2651 77.063 15.3311 77.5024 15.4629C77.9419 15.5947 78.3105 15.7852 78.6084 16.0342C78.9062 16.2783 79.1308 16.5688 79.2822 16.9058C79.4336 17.2378 79.5093 17.6064 79.5093 18.0117C79.5093 18.5098 79.414 18.9541 79.2236 19.3447C79.0332 19.7305 78.7646 20.0576 78.4179 20.3262C78.0762 20.5947 77.6758 20.7998 77.2168 20.9414C76.7578 21.0781 76.2573 21.1465 75.7153 21.1465C75.2661 21.1465 74.8242 21.0854 74.3896 20.9634C73.9599 20.8364 73.5693 20.6484 73.2178 20.3994C72.8711 20.1455 72.5928 19.8281 72.3828 19.4473C72.1777 19.0615 72.0752 18.605 72.0752 18.0776H74.1919C74.1919 18.3511 74.2602 18.5952 74.397 18.8101C74.5337 19.0249 74.7217 19.1934 74.9609 19.3154C75.2051 19.4375 75.4761 19.4985 75.7739 19.4985C76.1108 19.4985 76.3989 19.4375 76.6382 19.3154C76.8823 19.1885 77.0679 19.0127 77.1948 18.7881C77.3266 18.5586 77.3926 18.2925 77.3926 17.9897C77.3926 17.5991 77.3218 17.2866 77.1802 17.0522C77.0386 16.813 76.8359 16.6372 76.5722 16.5249C76.3086 16.4126 75.9961 16.3564 75.6347 16.3564H74.5068Z" fill="white"/>
<path d="M87 0H5C2.23858 0 0 2.23858 0 5V27C0 29.7614 2.23857 32 5 32H87C89.7614 32 92 29.7614 92 27V5C92 2.23858 89.7614 0 87 0Z" fill="url(#paint0_linear_17_84)"/>
<defs>
<linearGradient id="paint0_linear_17_84" x1="0" y1="0" x2="0" y2="32" gradientUnits="userSpaceOnUse">
<stop stop-color="#BBBBBB" stop-opacity="0.1"/>
<stop offset="1" stop-opacity="0.1"/>
</linearGradient>
</defs>
</svg>
