<svg width="100" height="32" viewBox="0 0 100 32" fill="none" xmlns="http://www.w3.org/2000/svg">
<path d="M95 0H31V32H95C97.7614 32 100 29.7614 100 27V5C100 2.23858 97.7614 0 95 0Z" fill="#E44D26"/>
<path d="M31 0H5C2.23858 0 0 2.23858 0 5V27C0 29.7614 2.23858 32 5 32H31V0Z" fill="#E44D26"/>
<path d="M6 4L7.86964 25.2036L16.2589 28L24.7018 25.2036L26.5714 4H6ZM22.5107 10.8518H12.6643L12.8839 13.4982H22.2911L21.5625 21.4482L16.3179 22.8946V22.9107H16.2589L10.9714 21.4482L10.65 17.3875H13.2054L13.3929 19.4286L16.2589 20.2054L19.1357 19.4286L19.4571 16.0964H10.5161L9.83036 8.29643H22.7464L22.5107 10.8518Z" fill="white"/>
<path d="M52.8301 14.6792V16.3931H47.2637V14.6792H52.8301ZM47.9155 10.3359V21H45.7183V10.3359H47.9155ZM54.3975 10.3359V21H52.2075V10.3359H54.3975ZM61.0374 10.3359V21H58.8475V10.3359H61.0374ZM64.3187 10.3359V12.0571H55.6175V10.3359H64.3187ZM66.7546 10.3359H68.6149L71.3542 18.1655L74.0934 10.3359H75.9538L72.1012 21H70.6071L66.7546 10.3359ZM65.7511 10.3359H67.6042L67.9411 17.9678V21H65.7511V10.3359ZM75.1042 10.3359H76.9645V21H74.7672V17.9678L75.1042 10.3359ZM85.9263 19.2861V21H80.5576V19.2861H85.9263ZM81.268 10.3359V21H79.0708V10.3359H81.268Z" fill="white"/>
<path d="M95 0H5C2.23858 0 0 2.23858 0 5V27C0 29.7614 2.23858 32 5 32H95C97.7614 32 100 29.7614 100 27V5C100 2.23858 97.7614 0 95 0Z" fill="url(#paint0_linear_2_938)"/>
<defs>
<linearGradient id="paint0_linear_2_938" x1="0" y1="0" x2="0" y2="32" gradientUnits="userSpaceOnUse">
<stop stop-color="#BBBBBB" stop-opacity="0.1"/>
<stop offset="1" stop-opacity="0.1"/>
</linearGradient>
</defs>
</svg>
