<svg width="97" height="21" viewBox="0 0 97 21" fill="none" xmlns="http://www.w3.org/2000/svg">
<path d="M92 0H5C2.23858 0 0 2.23858 0 5V16C0 18.7614 2.23858 21 5 21H92C94.7614 21 97 18.7614 97 16V5C97 2.23858 94.7614 0 92 0Z" fill="#F1C731"/>
<path d="M38.8448 11.8174V6.89062H40.3047V11.8174C40.3047 12.2926 40.2006 12.7012 39.9922 13.043C39.7839 13.3815 39.4991 13.6419 39.1377 13.8242C38.7797 14.0065 38.376 14.0977 37.9268 14.0977C37.4613 14.0977 37.0495 14.0195 36.6914 13.8633C36.3334 13.707 36.0518 13.4678 35.8467 13.1455C35.6416 12.82 35.5391 12.4082 35.5391 11.9102H37.0088C37.0088 12.1706 37.0446 12.3773 37.1162 12.5303C37.1911 12.6833 37.2969 12.7923 37.4336 12.8574C37.5704 12.9225 37.7347 12.9551 37.9268 12.9551C38.1123 12.9551 38.2735 12.9111 38.4102 12.8232C38.5469 12.7354 38.6527 12.6068 38.7276 12.4375C38.8057 12.2682 38.8448 12.0615 38.8448 11.8174ZM44.6142 12.8086V10.4551C44.6142 10.2858 44.5865 10.141 44.5312 10.0205C44.4758 9.89681 44.3896 9.80078 44.2724 9.73242C44.1584 9.66406 44.0103 9.62988 43.828 9.62988C43.6718 9.62988 43.5367 9.65755 43.4228 9.71289C43.3088 9.76497 43.2209 9.84147 43.1591 9.94238C43.0973 10.04 43.0663 10.1556 43.0663 10.2891H41.6601C41.6601 10.0645 41.7122 9.85124 41.8163 9.64941C41.9205 9.44759 42.0719 9.27018 42.2704 9.11719C42.469 8.96094 42.705 8.83887 42.9784 8.75098C43.2551 8.66309 43.5644 8.61914 43.9062 8.61914C44.3163 8.61914 44.6809 8.6875 44.9999 8.82422C45.3189 8.96094 45.5696 9.16602 45.7519 9.43945C45.9374 9.71289 46.0302 10.0547 46.0302 10.4648V12.7256C46.0302 13.0153 46.0481 13.2529 46.0839 13.4385C46.1197 13.6208 46.1718 13.7803 46.2402 13.917V14H44.8193C44.7509 13.8568 44.6988 13.6777 44.663 13.4629C44.6305 13.2448 44.6142 13.0267 44.6142 12.8086ZM44.7997 10.7822L44.8095 11.5781H44.0234C43.8378 11.5781 43.6767 11.5993 43.54 11.6416C43.4032 11.6839 43.2909 11.7441 43.203 11.8223C43.1152 11.8971 43.0501 11.985 43.0077 12.0859C42.9687 12.1868 42.9491 12.2975 42.9491 12.418C42.9491 12.5384 42.9768 12.6475 43.0321 12.7451C43.0875 12.8395 43.1672 12.9144 43.2714 12.9697C43.3756 13.0218 43.4976 13.0479 43.6376 13.0479C43.8492 13.0479 44.0331 13.0055 44.1894 12.9209C44.3456 12.8363 44.4661 12.7321 44.5507 12.6084C44.6386 12.4847 44.6842 12.3675 44.6874 12.2568L45.0585 12.8525C45.0064 12.986 44.9348 13.1243 44.8437 13.2676C44.7558 13.4108 44.6435 13.5459 44.5068 13.6729C44.37 13.7965 44.2057 13.8991 44.0136 13.9805C43.8215 14.0586 43.5937 14.0977 43.33 14.0977C42.9947 14.0977 42.6904 14.0309 42.4169 13.8975C42.1467 13.7607 41.9319 13.5736 41.7724 13.3359C41.6161 13.0951 41.538 12.8216 41.538 12.5156C41.538 12.2389 41.5901 11.9932 41.6943 11.7783C41.7984 11.5635 41.9514 11.3828 42.1532 11.2363C42.3583 11.0866 42.6139 10.9743 42.9198 10.8994C43.2258 10.8213 43.5807 10.7822 43.9843 10.7822H44.7997ZM48.9529 12.9746L50.1248 8.7168H51.5945L49.8123 14H48.9236L48.9529 12.9746ZM48.1473 8.7168L49.324 12.9795L49.3484 14H48.4549L46.6727 8.7168H48.1473ZM55.1179 12.8086V10.4551C55.1179 10.2858 55.0902 10.141 55.0348 10.0205C54.9795 9.89681 54.8932 9.80078 54.7761 9.73242C54.6621 9.66406 54.514 9.62988 54.3317 9.62988C54.1755 9.62988 54.0404 9.65755 53.9264 9.71289C53.8125 9.76497 53.7246 9.84147 53.6628 9.94238C53.6009 10.04 53.57 10.1556 53.57 10.2891H52.1637C52.1637 10.0645 52.2158 9.85124 52.32 9.64941C52.4242 9.44759 52.5755 9.27018 52.7741 9.11719C52.9727 8.96094 53.2087 8.83887 53.4821 8.75098C53.7588 8.66309 54.068 8.61914 54.4098 8.61914C54.82 8.61914 55.1846 8.6875 55.5036 8.82422C55.8226 8.96094 56.0733 9.16602 56.2555 9.43945C56.4411 9.71289 56.5339 10.0547 56.5339 10.4648V12.7256C56.5339 13.0153 56.5518 13.2529 56.5876 13.4385C56.6234 13.6208 56.6755 13.7803 56.7438 13.917V14H55.3229C55.2546 13.8568 55.2025 13.6777 55.1667 13.4629C55.1341 13.2448 55.1179 13.0267 55.1179 12.8086ZM55.3034 10.7822L55.3132 11.5781H54.527C54.3415 11.5781 54.1804 11.5993 54.0436 11.6416C53.9069 11.6839 53.7946 11.7441 53.7067 11.8223C53.6188 11.8971 53.5537 11.985 53.5114 12.0859C53.4723 12.1868 53.4528 12.2975 53.4528 12.418C53.4528 12.5384 53.4805 12.6475 53.5358 12.7451C53.5912 12.8395 53.6709 12.9144 53.7751 12.9697C53.8792 13.0218 54.0013 13.0479 54.1413 13.0479C54.3529 13.0479 54.5368 13.0055 54.693 12.9209C54.8493 12.8363 54.9697 12.7321 55.0544 12.6084C55.1423 12.4847 55.1878 12.3675 55.1911 12.2568L55.5622 12.8525C55.5101 12.986 55.4385 13.1243 55.3473 13.2676C55.2595 13.4108 55.1471 13.5459 55.0104 13.6729C54.8737 13.7965 54.7093 13.8991 54.5173 13.9805C54.3252 14.0586 54.0973 14.0977 53.8337 14.0977C53.4984 14.0977 53.194 14.0309 52.9206 13.8975C52.6504 13.7607 52.4356 13.5736 52.2761 13.3359C52.1198 13.0951 52.0417 12.8216 52.0417 12.5156C52.0417 12.2389 52.0938 11.9932 52.1979 11.7783C52.3021 11.5635 52.4551 11.3828 52.6569 11.2363C52.862 11.0866 53.1175 10.9743 53.4235 10.8994C53.7295 10.8213 54.0843 10.7822 54.488 10.7822H55.3034ZM61.7027 12.1396C61.7027 12.0127 61.6832 11.8988 61.6441 11.7979C61.6083 11.6937 61.5399 11.5993 61.439 11.5146C61.3381 11.4268 61.1965 11.3405 61.0142 11.2559C60.8319 11.1712 60.5959 11.0833 60.3062 10.9922C59.9839 10.888 59.678 10.7708 59.3882 10.6406C59.1018 10.5104 58.8479 10.359 58.6265 10.1865C58.4084 10.0107 58.2359 9.80729 58.1089 9.57617C57.9852 9.34505 57.9234 9.0765 57.9234 8.77051C57.9234 8.47428 57.9885 8.20573 58.1187 7.96484C58.2489 7.7207 58.4312 7.51237 58.6656 7.33984C58.9 7.16406 59.1767 7.02897 59.4957 6.93457C59.8179 6.84017 60.1711 6.79297 60.5552 6.79297C61.0793 6.79297 61.5367 6.88737 61.9273 7.07617C62.3179 7.26497 62.6207 7.52376 62.8355 7.85254C63.0536 8.18132 63.1627 8.55729 63.1627 8.98047H61.7076C61.7076 8.77214 61.6636 8.58984 61.5757 8.43359C61.4911 8.27409 61.3609 8.14876 61.1851 8.05762C61.0126 7.96647 60.7945 7.9209 60.5308 7.9209C60.2769 7.9209 60.0653 7.95996 59.8961 8.03809C59.7268 8.11296 59.5998 8.21549 59.5152 8.3457C59.4306 8.47266 59.3882 8.61589 59.3882 8.77539C59.3882 8.89583 59.4175 9.00488 59.4761 9.10254C59.538 9.2002 59.6291 9.29134 59.7496 9.37598C59.87 9.46061 60.0181 9.54036 60.1939 9.61523C60.3697 9.6901 60.5731 9.76335 60.8043 9.83496C61.1916 9.95215 61.5318 10.084 61.8248 10.2305C62.121 10.377 62.3684 10.5413 62.567 10.7236C62.7655 10.9059 62.9153 11.1126 63.0162 11.3438C63.1171 11.5749 63.1675 11.8369 63.1675 12.1299C63.1675 12.4391 63.1073 12.7158 62.9869 12.96C62.8664 13.2041 62.6923 13.4108 62.4644 13.5801C62.2365 13.7493 61.9647 13.8779 61.649 13.9658C61.3332 14.0537 60.98 14.0977 60.5894 14.0977C60.2379 14.0977 59.8912 14.0521 59.5494 13.9609C59.2076 13.8665 58.8967 13.7249 58.6168 13.5361C58.3401 13.3473 58.1187 13.1064 57.9527 12.8135C57.7867 12.5205 57.7037 12.1738 57.7037 11.7734H59.1734C59.1734 11.9948 59.2076 12.182 59.2759 12.335C59.3443 12.488 59.4403 12.6117 59.564 12.7061C59.691 12.8005 59.8407 12.8688 60.0132 12.9111C60.189 12.9535 60.3811 12.9746 60.5894 12.9746C60.8433 12.9746 61.0517 12.9388 61.2144 12.8672C61.3804 12.7956 61.5025 12.6963 61.5806 12.5693C61.662 12.4424 61.7027 12.2992 61.7027 12.1396ZM66.5541 12.999C66.7267 12.999 66.8797 12.9665 67.0131 12.9014C67.1466 12.833 67.2508 12.7386 67.3256 12.6182C67.4037 12.4945 67.4444 12.3496 67.4477 12.1836H68.7709C68.7677 12.5547 68.6684 12.8851 68.4731 13.1748C68.2778 13.4613 68.0157 13.6875 67.687 13.8535C67.3582 14.0163 66.9903 14.0977 66.5834 14.0977C66.1733 14.0977 65.8152 14.0293 65.5092 13.8926C65.2065 13.7559 64.9542 13.5671 64.7524 13.3262C64.5506 13.082 64.3992 12.7988 64.2983 12.4766C64.1974 12.151 64.1469 11.8027 64.1469 11.4316V11.29C64.1469 10.9157 64.1974 10.5674 64.2983 10.2451C64.3992 9.9196 64.5506 9.63639 64.7524 9.39551C64.9542 9.15137 65.2065 8.96094 65.5092 8.82422C65.812 8.6875 66.1668 8.61914 66.5737 8.61914C67.0066 8.61914 67.3858 8.70215 67.7114 8.86816C68.0401 9.03418 68.2973 9.27181 68.4828 9.58105C68.6717 9.88704 68.7677 10.25 68.7709 10.6699H67.4477C67.4444 10.4941 67.407 10.3346 67.3354 10.1914C67.267 10.0482 67.1661 9.93424 67.0327 9.84961C66.9024 9.76172 66.7413 9.71777 66.5493 9.71777C66.3442 9.71777 66.1765 9.76172 66.0463 9.84961C65.9161 9.93424 65.8152 10.0514 65.7436 10.2012C65.672 10.3477 65.6215 10.5153 65.5922 10.7041C65.5662 10.8896 65.5532 11.085 65.5532 11.29V11.4316C65.5532 11.6367 65.5662 11.8337 65.5922 12.0225C65.6183 12.2113 65.6671 12.3789 65.7387 12.5254C65.8136 12.6719 65.9161 12.7874 66.0463 12.8721C66.1765 12.9567 66.3458 12.999 66.5541 12.999ZM71.1126 9.86914V14H69.7064V8.7168H71.0296L71.1126 9.86914ZM72.7044 8.68262L72.68 9.98633C72.6116 9.97656 72.5286 9.96842 72.431 9.96191C72.3366 9.95215 72.2503 9.94727 72.1722 9.94727C71.9736 9.94727 71.8011 9.97331 71.6546 10.0254C71.5114 10.0742 71.3909 10.1475 71.2933 10.2451C71.1989 10.3428 71.1273 10.4616 71.0784 10.6016C71.0329 10.7415 71.0068 10.901 71.0003 11.0801L70.7171 10.9922C70.7171 10.6504 70.7513 10.3363 70.8196 10.0498C70.888 9.76009 70.9873 9.50781 71.1175 9.29297C71.251 9.07812 71.4137 8.91211 71.6058 8.79492C71.7978 8.67773 72.0176 8.61914 72.265 8.61914C72.3431 8.61914 72.4228 8.62565 72.5042 8.63867C72.5856 8.64844 72.6523 8.66309 72.7044 8.68262ZM74.9729 8.7168V14H73.5617V8.7168H74.9729ZM73.4738 7.33984C73.4738 7.13477 73.5454 6.96549 73.6887 6.83203C73.8319 6.69857 74.024 6.63184 74.2648 6.63184C74.5025 6.63184 74.6929 6.69857 74.8361 6.83203C74.9826 6.96549 75.0559 7.13477 75.0559 7.33984C75.0559 7.54492 74.9826 7.71419 74.8361 7.84766C74.6929 7.98112 74.5025 8.04785 74.2648 8.04785C74.024 8.04785 73.8319 7.98112 73.6887 7.84766C73.5454 7.71419 73.4738 7.54492 73.4738 7.33984ZM77.6612 9.73242V16.0312H76.255V8.7168H77.5587L77.6612 9.73242ZM81.0059 11.2998V11.4023C81.0059 11.7865 80.9604 12.1429 80.8692 12.4717C80.7813 12.8005 80.6511 13.0869 80.4786 13.3311C80.3061 13.5719 80.0912 13.7607 79.8341 13.8975C79.5802 14.0309 79.2872 14.0977 78.9552 14.0977C78.6329 14.0977 78.3529 14.0326 78.1153 13.9023C77.8777 13.7721 77.6775 13.5898 77.5147 13.3555C77.3552 13.1178 77.2266 12.8428 77.129 12.5303C77.0313 12.2178 76.9565 11.8825 76.9044 11.5244V11.2559C76.9565 10.8717 77.0313 10.5202 77.129 10.2012C77.2266 9.87891 77.3552 9.60059 77.5147 9.36621C77.6775 9.12858 77.8761 8.94466 78.1104 8.81445C78.3481 8.68424 78.6264 8.61914 78.9454 8.61914C79.2807 8.61914 79.5753 8.68262 79.8292 8.80957C80.0863 8.93652 80.3012 9.11882 80.4737 9.35645C80.6495 9.59408 80.7813 9.87728 80.8692 10.2061C80.9604 10.5348 81.0059 10.8994 81.0059 11.2998ZM79.5948 11.4023V11.2998C79.5948 11.0752 79.5753 10.8685 79.5362 10.6797C79.5004 10.4876 79.4418 10.32 79.3604 10.1768C79.2823 10.0335 79.1781 9.92285 79.0479 9.84473C78.921 9.76335 78.7664 9.72266 78.5841 9.72266C78.392 9.72266 78.2276 9.75358 78.0909 9.81543C77.9574 9.87728 77.8484 9.9668 77.7637 10.084C77.6791 10.2012 77.6156 10.3411 77.5733 10.5039C77.531 10.6667 77.505 10.8506 77.4952 11.0557V11.7344C77.5115 11.9753 77.557 12.1917 77.6319 12.3838C77.7068 12.5726 77.8223 12.7223 77.9786 12.833C78.1348 12.9437 78.3399 12.999 78.5938 12.999C78.7794 12.999 78.9356 12.9583 79.0626 12.877C79.1895 12.7923 79.2921 12.6768 79.3702 12.5303C79.4516 12.3838 79.5085 12.2145 79.5411 12.0225C79.5769 11.8304 79.5948 11.6237 79.5948 11.4023ZM84.5879 8.7168V9.71289H81.5117V8.7168H84.5879ZM82.2734 7.41309H83.6796V12.4082C83.6796 12.5612 83.6992 12.6784 83.7382 12.7598C83.7806 12.8411 83.8424 12.8981 83.9238 12.9307C84.0052 12.96 84.1077 12.9746 84.2314 12.9746C84.3193 12.9746 84.3974 12.9714 84.4658 12.9648C84.5374 12.9551 84.5976 12.9453 84.6464 12.9355L84.6513 13.9707C84.5309 14.0098 84.4007 14.0407 84.2607 14.0635C84.1207 14.0863 83.9661 14.0977 83.7968 14.0977C83.4876 14.0977 83.2174 14.0472 82.9863 13.9463C82.7584 13.8421 82.5826 13.6761 82.4589 13.4482C82.3352 13.2204 82.2734 12.9209 82.2734 12.5498V7.41309Z" fill="black"/>
<g clip-path="url(#clip0_39_26)">
<path d="M10 3H25V18H10V3Z" fill="black"/>
<path d="M13.9441 15.5351L15.0919 14.8405C15.3134 15.2331 15.5148 15.5653 15.9981 15.5653C16.4612 15.5653 16.7533 15.3842 16.7533 14.6794V9.88653H18.1629V14.6993C18.1629 16.1593 17.3071 16.8239 16.0585 16.8239C14.9308 16.8239 14.2763 16.2399 13.944 15.535M18.9286 15.3841L20.0763 14.7196C20.3785 15.213 20.7712 15.5755 21.4659 15.5755C22.05 15.5755 22.4224 15.2834 22.4224 14.8807C22.4224 14.3974 22.0398 14.2262 21.3954 13.9443L21.043 13.7932C20.026 13.3603 19.3514 12.8166 19.3514 11.6687C19.3514 10.6115 20.1569 9.80591 21.4156 9.80591C22.3117 9.80591 22.9561 10.1181 23.4193 10.9337L22.3217 11.6385C22.08 11.2056 21.8183 11.0344 21.4155 11.0344C21.0027 11.0344 20.7409 11.2962 20.7409 11.6385C20.7409 12.0614 21.0027 12.2327 21.6068 12.4945L21.9592 12.6455C23.1574 13.1591 23.832 13.6826 23.832 14.8606C23.832 16.1293 22.8352 16.824 21.496 16.824C20.1871 16.824 19.3413 16.1998 18.9285 15.3842" fill="#F1C731"/>
</g>
<defs>
<clipPath id="clip0_39_26">
<rect width="15" height="15" fill="white" transform="translate(10 3)"/>
</clipPath>
</defs>
</svg>
