<svg width="97" height="26" viewBox="0 0 97 26" fill="none" xmlns="http://www.w3.org/2000/svg">
<path d="M92 0H5C2.23858 0 0 2.23858 0 5V16C0 18.7614 2.23858 21 5 21H92C94.7614 21 97 18.7614 97 16V5C97 2.23858 94.7614 0 92 0Z" fill="#8993BE"/>
<g filter="url(#filter0_d_50_138)">
<path d="M17.5 3.74866C24.1953 3.74866 29.3438 6.96613 29.3438 10.5C29.3438 14.0339 24.1914 17.2513 17.5 17.2513C10.8047 17.2513 5.65625 14.0339 5.65625 10.5C5.65625 6.96613 10.8086 3.74866 17.5 3.74866ZM17.5 3C10.5977 3 5 6.35562 5 10.5C5 14.6444 10.5977 18 17.5 18C24.4023 18 30 14.6444 30 10.5C30 6.35562 24.4023 3 17.5 3ZM13.5234 9.8984C13.2148 11.7032 12.125 11.516 10.7852 11.516L11.3203 8.36988C12.8047 8.36988 13.8125 8.18717 13.5234 9.8984ZM8.80469 14.7023H10.2383L10.5781 12.7059C12.1836 12.7059 13.1797 12.8396 14.1016 11.8547C15.1211 10.7852 15.3867 8.88235 14.6602 7.9287C14.2813 7.42959 13.6719 7.18449 12.8438 7.18449H10.082L8.80469 14.7023ZM16.0586 5.1836H17.4844L17.1445 7.18004C18.375 7.18004 19.5156 7.07754 20.0664 7.65686C20.6445 8.26292 20.3672 9.03832 19.7422 12.697H18.2969C18.8984 9.15865 19.0117 8.86453 18.793 8.59715C18.582 8.33868 18.1016 8.39216 16.9414 8.39216L16.207 12.697H14.7812L16.0586 5.1836V5.1836ZM24.7266 9.8984C24.4141 11.7299 23.293 11.516 21.9883 11.516L22.5234 8.36988C24.0156 8.36988 25.0156 8.18717 24.7266 9.8984V9.8984ZM20.0078 14.7023H21.4453L21.7852 12.7059C23.4727 12.7059 24.4063 12.8173 25.3086 11.8547C26.3281 10.7852 26.5938 8.88235 25.8672 7.9287C25.4883 7.42959 24.8789 7.18449 24.0508 7.18449H21.2891L20.0078 14.7023V14.7023Z" fill="black"/>
</g>
<path d="M53.9562 11.4658H52.1446V10.3232H53.9562C54.2361 10.3232 54.464 10.2777 54.6398 10.1865C54.8155 10.0921 54.9441 9.96191 55.0255 9.7959C55.1069 9.62988 55.1476 9.44271 55.1476 9.23438C55.1476 9.02279 55.1069 8.82585 55.0255 8.64355C54.9441 8.46126 54.8155 8.31478 54.6398 8.2041C54.464 8.09342 54.2361 8.03809 53.9562 8.03809H52.6525V14H51.1876V6.89062H53.9562C54.5128 6.89062 54.9897 6.99154 55.3868 7.19336C55.7872 7.39193 56.0932 7.66699 56.3048 8.01855C56.5164 8.37012 56.6222 8.77214 56.6222 9.22461C56.6222 9.68359 56.5164 10.0807 56.3048 10.416C56.0932 10.7513 55.7872 11.0101 55.3868 11.1924C54.9897 11.3747 54.5128 11.4658 53.9562 11.4658ZM62.8457 9.78613V10.9287H59.1348V9.78613H62.8457ZM59.5693 6.89062V14H58.1045V6.89062H59.5693ZM63.8906 6.89062V14H62.4307V6.89062H63.8906ZM68.4052 11.4658H66.5936V10.3232H68.4052C68.6851 10.3232 68.913 10.2777 69.0888 10.1865C69.2645 10.0921 69.3931 9.96191 69.4745 9.7959C69.5559 9.62988 69.5966 9.44271 69.5966 9.23438C69.5966 9.02279 69.5559 8.82585 69.4745 8.64355C69.3931 8.46126 69.2645 8.31478 69.0888 8.2041C68.913 8.09342 68.6851 8.03809 68.4052 8.03809H67.1014V14H65.6366V6.89062H68.4052C68.9618 6.89062 69.4387 6.99154 69.8358 7.19336C70.2362 7.39193 70.5422 7.66699 70.7538 8.01855C70.9654 8.37012 71.0712 8.77214 71.0712 9.22461C71.0712 9.68359 70.9654 10.0807 70.7538 10.416C70.5422 10.7513 70.2362 11.0101 69.8358 11.1924C69.4387 11.3747 68.9618 11.4658 68.4052 11.4658Z" fill="black"/>
<defs>
<filter id="filter0_d_50_138" x="1" y="3" width="33" height="23" filterUnits="userSpaceOnUse" color-interpolation-filters="sRGB">
<feFlood flood-opacity="0" result="BackgroundImageFix"/>
<feColorMatrix in="SourceAlpha" type="matrix" values="0 0 0 0 0 0 0 0 0 0 0 0 0 0 0 0 0 0 127 0" result="hardAlpha"/>
<feOffset dy="4"/>
<feGaussianBlur stdDeviation="2"/>
<feComposite in2="hardAlpha" operator="out"/>
<feColorMatrix type="matrix" values="0 0 0 0 0 0 0 0 0 0 0 0 0 0 0 0 0 0 0.25 0"/>
<feBlend mode="normal" in2="BackgroundImageFix" result="effect1_dropShadow_50_138"/>
<feBlend mode="normal" in="SourceGraphic" in2="effect1_dropShadow_50_138" result="shape"/>
</filter>
</defs>
</svg>
