<svg width="97" height="21" viewBox="0 0 97 21" fill="none" xmlns="http://www.w3.org/2000/svg">
<path d="M92 0H5C2.23858 0 0 2.23858 0 5V16C0 18.7614 2.23858 21 5 21H92C94.7614 21 97 18.7614 97 16V5C97 2.23858 94.7614 0 92 0Z" fill="#007ACC"/>
<path d="M38.8057 6.89062V14H37.3457V6.89062H38.8057ZM40.9932 6.89062V8.03809H35.1924V6.89062H40.9932ZM43.2226 13.4043L44.6239 8.7168H46.1327L44.0087 14.7959C43.9631 14.9294 43.9013 15.0726 43.8232 15.2256C43.7483 15.3786 43.6458 15.5234 43.5155 15.6602C43.3886 15.8001 43.2275 15.9141 43.0321 16.002C42.8401 16.0898 42.6041 16.1338 42.3241 16.1338C42.1907 16.1338 42.0816 16.1257 41.997 16.1094C41.9124 16.0931 41.8114 16.0703 41.6943 16.041V15.0107C41.7301 15.0107 41.7675 15.0107 41.8066 15.0107C41.8456 15.014 41.8831 15.0156 41.9189 15.0156C42.1044 15.0156 42.2558 14.9945 42.373 14.9521C42.4902 14.9098 42.5846 14.8447 42.6562 14.7568C42.7278 14.6722 42.7848 14.5615 42.8271 14.4248L43.2226 13.4043ZM42.6366 8.7168L43.7841 12.5449L43.9843 14.0342L43.0273 14.1367L41.1279 8.7168H42.6366ZM48.2205 9.73242V16.0312H46.8143V8.7168H48.118L48.2205 9.73242ZM51.5652 11.2998V11.4023C51.5652 11.7865 51.5197 12.1429 51.4285 12.4717C51.3406 12.8005 51.2104 13.0869 51.0379 13.3311C50.8654 13.5719 50.6505 13.7607 50.3934 13.8975C50.1395 14.0309 49.8465 14.0977 49.5145 14.0977C49.1922 14.0977 48.9122 14.0326 48.6746 13.9023C48.437 13.7721 48.2368 13.5898 48.074 13.3555C47.9145 13.1178 47.7859 12.8428 47.6883 12.5303C47.5906 12.2178 47.5158 11.8825 47.4637 11.5244V11.2559C47.5158 10.8717 47.5906 10.5202 47.6883 10.2012C47.7859 9.87891 47.9145 9.60059 48.074 9.36621C48.2368 9.12858 48.4354 8.94466 48.6697 8.81445C48.9074 8.68424 49.1857 8.61914 49.5047 8.61914C49.84 8.61914 50.1346 8.68262 50.3885 8.80957C50.6456 8.93652 50.8605 9.11882 51.033 9.35645C51.2088 9.59408 51.3406 9.87728 51.4285 10.2061C51.5197 10.5348 51.5652 10.8994 51.5652 11.2998ZM50.1541 11.4023V11.2998C50.1541 11.0752 50.1346 10.8685 50.0955 10.6797C50.0597 10.4876 50.0011 10.32 49.9197 10.1768C49.8416 10.0335 49.7374 9.92285 49.6072 9.84473C49.4803 9.76335 49.3256 9.72266 49.1434 9.72266C48.9513 9.72266 48.7869 9.75358 48.6502 9.81543C48.5167 9.87728 48.4077 9.9668 48.323 10.084C48.2384 10.2012 48.1749 10.3411 48.1326 10.5039C48.0903 10.6667 48.0643 10.8506 48.0545 11.0557V11.7344C48.0708 11.9753 48.1163 12.1917 48.1912 12.3838C48.2661 12.5726 48.3816 12.7223 48.5379 12.833C48.6941 12.9437 48.8992 12.999 49.1531 12.999C49.3387 12.999 49.4949 12.9583 49.6219 12.877C49.7488 12.7923 49.8514 12.6768 49.9295 12.5303C50.0109 12.3838 50.0678 12.2145 50.1004 12.0225C50.1362 11.8304 50.1541 11.6237 50.1541 11.4023ZM54.9909 14.0977C54.5807 14.0977 54.2129 14.0326 53.8874 13.9023C53.5619 13.7689 53.2852 13.585 53.0573 13.3506C52.8327 13.1162 52.6602 12.8444 52.5397 12.5352C52.4193 12.2227 52.3591 11.8906 52.3591 11.5391V11.3438C52.3591 10.9434 52.416 10.5771 52.53 10.2451C52.6439 9.91309 52.8067 9.625 53.0182 9.38086C53.2331 9.13672 53.4935 8.94954 53.7995 8.81934C54.1055 8.68587 54.4505 8.61914 54.8346 8.61914C55.209 8.61914 55.541 8.68099 55.8307 8.80469C56.1205 8.92839 56.363 9.10417 56.5583 9.33203C56.7568 9.5599 56.9066 9.83333 57.0075 10.1523C57.1084 10.4681 57.1589 10.8197 57.1589 11.207V11.793H52.9596V10.8555H55.777V10.748C55.777 10.5527 55.7412 10.3786 55.6696 10.2256C55.6012 10.0693 55.4971 9.94564 55.3571 9.85449C55.2171 9.76335 55.0381 9.71777 54.82 9.71777C54.6345 9.71777 54.4749 9.75846 54.3415 9.83984C54.208 9.92122 54.099 10.0352 54.0143 10.1816C53.933 10.3281 53.8711 10.5007 53.8288 10.6992C53.7897 10.8945 53.7702 11.1094 53.7702 11.3438V11.5391C53.7702 11.7507 53.7995 11.946 53.8581 12.125C53.9199 12.304 54.0062 12.4587 54.1169 12.5889C54.2308 12.7191 54.3675 12.82 54.527 12.8916C54.6898 12.9632 54.8737 12.999 55.0788 12.999C55.3327 12.999 55.5687 12.9502 55.7868 12.8525C56.0082 12.7516 56.1986 12.6003 56.3581 12.3984L57.0417 13.1406C56.931 13.3001 56.7796 13.4531 56.5876 13.5996C56.3988 13.7461 56.1709 13.8665 55.904 13.9609C55.6371 14.0521 55.3327 14.0977 54.9909 14.0977ZM62.0445 12.1396C62.0445 12.0127 62.025 11.8988 61.9859 11.7979C61.9501 11.6937 61.8817 11.5993 61.7808 11.5146C61.6799 11.4268 61.5383 11.3405 61.356 11.2559C61.1737 11.1712 60.9377 11.0833 60.648 10.9922C60.3257 10.888 60.0198 10.7708 59.73 10.6406C59.4436 10.5104 59.1897 10.359 58.9683 10.1865C58.7502 10.0107 58.5777 9.80729 58.4507 9.57617C58.327 9.34505 58.2652 9.0765 58.2652 8.77051C58.2652 8.47428 58.3303 8.20573 58.4605 7.96484C58.5907 7.7207 58.773 7.51237 59.0074 7.33984C59.2418 7.16406 59.5184 7.02897 59.8375 6.93457C60.1597 6.84017 60.5129 6.79297 60.897 6.79297C61.4211 6.79297 61.8785 6.88737 62.2691 7.07617C62.6597 7.26497 62.9625 7.52376 63.1773 7.85254C63.3954 8.18132 63.5045 8.55729 63.5045 8.98047H62.0494C62.0494 8.77214 62.0054 8.58984 61.9175 8.43359C61.8329 8.27409 61.7027 8.14876 61.5269 8.05762C61.3544 7.96647 61.1363 7.9209 60.8726 7.9209C60.6187 7.9209 60.4071 7.95996 60.2379 8.03809C60.0686 8.11296 59.9416 8.21549 59.857 8.3457C59.7724 8.47266 59.73 8.61589 59.73 8.77539C59.73 8.89583 59.7593 9.00488 59.8179 9.10254C59.8798 9.2002 59.9709 9.29134 60.0914 9.37598C60.2118 9.46061 60.3599 9.54036 60.5357 9.61523C60.7115 9.6901 60.9149 9.76335 61.1461 9.83496C61.5334 9.95215 61.8736 10.084 62.1666 10.2305C62.4628 10.377 62.7102 10.5413 62.9087 10.7236C63.1073 10.9059 63.2571 11.1126 63.358 11.3438C63.4589 11.5749 63.5093 11.8369 63.5093 12.1299C63.5093 12.4391 63.4491 12.7158 63.3287 12.96C63.2082 13.2041 63.0341 13.4108 62.8062 13.5801C62.5783 13.7493 62.3065 13.8779 61.9908 13.9658C61.675 14.0537 61.3218 14.0977 60.9312 14.0977C60.5796 14.0977 60.233 14.0521 59.8912 13.9609C59.5494 13.8665 59.2385 13.7249 58.9586 13.5361C58.6819 13.3473 58.4605 13.1064 58.2945 12.8135C58.1285 12.5205 58.0455 12.1738 58.0455 11.7734H59.5152C59.5152 11.9948 59.5494 12.182 59.6177 12.335C59.6861 12.488 59.7821 12.6117 59.9058 12.7061C60.0328 12.8005 60.1825 12.8688 60.355 12.9111C60.5308 12.9535 60.7229 12.9746 60.9312 12.9746C61.1851 12.9746 61.3934 12.9388 61.5562 12.8672C61.7222 12.7956 61.8443 12.6963 61.9224 12.5693C62.0038 12.4424 62.0445 12.2992 62.0445 12.1396ZM66.8959 12.999C67.0685 12.999 67.2215 12.9665 67.3549 12.9014C67.4884 12.833 67.5925 12.7386 67.6674 12.6182C67.7455 12.4945 67.7862 12.3496 67.7895 12.1836H69.1127C69.1095 12.5547 69.0102 12.8851 68.8149 13.1748C68.6196 13.4613 68.3575 13.6875 68.0287 13.8535C67.7 14.0163 67.3321 14.0977 66.9252 14.0977C66.5151 14.0977 66.157 14.0293 65.851 13.8926C65.5483 13.7559 65.296 13.5671 65.0942 13.3262C64.8924 13.082 64.741 12.7988 64.6401 12.4766C64.5392 12.151 64.4887 11.8027 64.4887 11.4316V11.29C64.4887 10.9157 64.5392 10.5674 64.6401 10.2451C64.741 9.9196 64.8924 9.63639 65.0942 9.39551C65.296 9.15137 65.5483 8.96094 65.851 8.82422C66.1537 8.6875 66.5086 8.61914 66.9155 8.61914C67.3484 8.61914 67.7276 8.70215 68.0532 8.86816C68.3819 9.03418 68.6391 9.27181 68.8246 9.58105C69.0134 9.88704 69.1095 10.25 69.1127 10.6699H67.7895C67.7862 10.4941 67.7488 10.3346 67.6772 10.1914C67.6088 10.0482 67.5079 9.93424 67.3745 9.84961C67.2442 9.76172 67.0831 9.71777 66.8911 9.71777C66.686 9.71777 66.5183 9.76172 66.3881 9.84961C66.2579 9.93424 66.157 10.0514 66.0854 10.2012C66.0138 10.3477 65.9633 10.5153 65.934 10.7041C65.908 10.8896 65.895 11.085 65.895 11.29V11.4316C65.895 11.6367 65.908 11.8337 65.934 12.0225C65.9601 12.2113 66.0089 12.3789 66.0805 12.5254C66.1554 12.6719 66.2579 12.7874 66.3881 12.8721C66.5183 12.9567 66.6876 12.999 66.8959 12.999ZM71.4544 9.86914V14H70.0482V8.7168H71.3714L71.4544 9.86914ZM73.0462 8.68262L73.0218 9.98633C72.9534 9.97656 72.8704 9.96842 72.7728 9.96191C72.6784 9.95215 72.5921 9.94727 72.514 9.94727C72.3154 9.94727 72.1429 9.97331 71.9964 10.0254C71.8532 10.0742 71.7327 10.1475 71.6351 10.2451C71.5407 10.3428 71.4691 10.4616 71.4202 10.6016C71.3747 10.7415 71.3486 10.901 71.3421 11.0801L71.0589 10.9922C71.0589 10.6504 71.0931 10.3363 71.1614 10.0498C71.2298 9.76009 71.3291 9.50781 71.4593 9.29297C71.5928 9.07812 71.7555 8.91211 71.9476 8.79492C72.1396 8.67773 72.3594 8.61914 72.6068 8.61914C72.6849 8.61914 72.7646 8.62565 72.846 8.63867C72.9274 8.64844 72.9941 8.66309 73.0462 8.68262ZM75.3146 8.7168V14H73.9035V8.7168H75.3146ZM73.8156 7.33984C73.8156 7.13477 73.8872 6.96549 74.0305 6.83203C74.1737 6.69857 74.3658 6.63184 74.6066 6.63184C74.8443 6.63184 75.0347 6.69857 75.1779 6.83203C75.3244 6.96549 75.3977 7.13477 75.3977 7.33984C75.3977 7.54492 75.3244 7.71419 75.1779 7.84766C75.0347 7.98112 74.8443 8.04785 74.6066 8.04785C74.3658 8.04785 74.1737 7.98112 74.0305 7.84766C73.8872 7.71419 73.8156 7.54492 73.8156 7.33984ZM78.003 9.73242V16.0312H76.5968V8.7168H77.9005L78.003 9.73242ZM81.3477 11.2998V11.4023C81.3477 11.7865 81.3022 12.1429 81.211 12.4717C81.1231 12.8005 80.9929 13.0869 80.8204 13.3311C80.6479 13.5719 80.433 13.7607 80.1759 13.8975C79.922 14.0309 79.629 14.0977 79.297 14.0977C78.9747 14.0977 78.6947 14.0326 78.4571 13.9023C78.2195 13.7721 78.0193 13.5898 77.8565 13.3555C77.697 13.1178 77.5684 12.8428 77.4708 12.5303C77.3731 12.2178 77.2983 11.8825 77.2462 11.5244V11.2559C77.2983 10.8717 77.3731 10.5202 77.4708 10.2012C77.5684 9.87891 77.697 9.60059 77.8565 9.36621C78.0193 9.12858 78.2178 8.94466 78.4522 8.81445C78.6899 8.68424 78.9682 8.61914 79.2872 8.61914C79.6225 8.61914 79.9171 8.68262 80.171 8.80957C80.4281 8.93652 80.643 9.11882 80.8155 9.35645C80.9913 9.59408 81.1231 9.87728 81.211 10.2061C81.3022 10.5348 81.3477 10.8994 81.3477 11.2998ZM79.9366 11.4023V11.2998C79.9366 11.0752 79.9171 10.8685 79.878 10.6797C79.8422 10.4876 79.7836 10.32 79.7022 10.1768C79.6241 10.0335 79.5199 9.92285 79.3897 9.84473C79.2628 9.76335 79.1081 9.72266 78.9259 9.72266C78.7338 9.72266 78.5694 9.75358 78.4327 9.81543C78.2992 9.87728 78.1902 9.9668 78.1055 10.084C78.0209 10.2012 77.9574 10.3411 77.9151 10.5039C77.8728 10.6667 77.8468 10.8506 77.837 11.0557V11.7344C77.8533 11.9753 77.8988 12.1917 77.9737 12.3838C78.0486 12.5726 78.1641 12.7223 78.3204 12.833C78.4766 12.9437 78.6817 12.999 78.9356 12.999C79.1212 12.999 79.2774 12.9583 79.4044 12.877C79.5313 12.7923 79.6339 12.6768 79.712 12.5303C79.7934 12.3838 79.8503 12.2145 79.8829 12.0225C79.9187 11.8304 79.9366 11.6237 79.9366 11.4023ZM84.9296 8.7168V9.71289H81.8535V8.7168H84.9296ZM82.6152 7.41309H84.0214V12.4082C84.0214 12.5612 84.041 12.6784 84.08 12.7598C84.1224 12.8411 84.1842 12.8981 84.2656 12.9307C84.347 12.96 84.4495 12.9746 84.5732 12.9746C84.6611 12.9746 84.7392 12.9714 84.8076 12.9648C84.8792 12.9551 84.9394 12.9453 84.9882 12.9355L84.9931 13.9707C84.8727 14.0098 84.7425 14.0407 84.6025 14.0635C84.4625 14.0863 84.3079 14.0977 84.1386 14.0977C83.8294 14.0977 83.5592 14.0472 83.3281 13.9463C83.1002 13.8421 82.9244 13.6761 82.8007 13.4482C82.677 13.2204 82.6152 12.9209 82.6152 12.5498V7.41309Z" fill="white"/>
<g clip-path="url(#clip0_50_123)">
<path d="M10.2344 10.4895V17.8137H24.8828V3.16528H10.2344V10.4895ZM22.0387 9.90356C22.3895 9.98498 22.7084 10.1685 22.9551 10.4309C23.0909 10.5723 23.2089 10.7297 23.3066 10.8997C23.3066 10.9184 22.6738 11.3461 22.2883 11.5852C22.2742 11.5946 22.218 11.5336 22.1559 11.4411C22.0855 11.3196 21.9855 11.218 21.8652 11.1456C21.7449 11.0733 21.6082 11.0326 21.468 11.0274C21.0238 10.9969 20.7379 11.2301 20.7402 11.6133C20.7366 11.7087 20.7584 11.8034 20.8035 11.8875C20.9008 12.0903 21.0824 12.211 21.652 12.4571C22.7008 12.9083 23.1496 13.2059 23.4285 13.629C23.7402 14.0977 23.8094 14.8547 23.5984 15.4149C23.3641 16.0243 22.7898 16.4379 21.9777 16.575C21.6068 16.6175 21.2321 16.6136 20.8621 16.5633C20.2975 16.4717 19.7767 16.2029 19.375 15.7958C19.2402 15.6469 18.9777 15.259 18.9941 15.2309C19.0369 15.1992 19.082 15.1706 19.1289 15.1454L19.668 14.836L20.0887 14.5922L20.1766 14.7223C20.3249 14.9345 20.5137 15.1153 20.732 15.2543C21.2008 15.5004 21.8406 15.4665 22.157 15.1817C22.2633 15.0773 22.3295 14.939 22.3443 14.7909C22.3591 14.6427 22.3214 14.494 22.2379 14.3708C22.1207 14.2079 21.8863 14.0708 21.2312 13.7848C20.4754 13.459 20.1496 13.2575 19.852 12.9364C19.6661 12.7245 19.5289 12.4745 19.45 12.204C19.3911 11.8949 19.3824 11.5783 19.4242 11.2665C19.5801 10.5364 20.1273 10.0266 20.9266 9.87544C21.2967 9.82964 21.6716 9.83991 22.0387 9.90591V9.90356ZM18.6004 10.5176V11.1176H16.6984V16.5352H15.3496V11.1165H13.443V10.5305C13.4379 10.3288 13.4433 10.127 13.4594 9.92583C13.4664 9.91645 14.6313 9.91177 16.0375 9.91411H18.5934L18.6004 10.5176Z" fill="white"/>
</g>
<defs>
<clipPath id="clip0_50_123">
<rect width="15" height="15" fill="white" transform="translate(10 3)"/>
</clipPath>
</defs>
</svg>
