<svg width="105" height="32" viewBox="0 0 105 32" fill="none" xmlns="http://www.w3.org/2000/svg">
<path d="M100 0H31V32H100C102.761 32 105 29.7614 105 27V5C105 2.23858 102.761 0 100 0Z" fill="#06B6BD"/>
<path d="M5 0.5H34.5V31.5H5C2.51472 31.5 0.5 29.4853 0.5 27V5C0.5 2.51472 2.51472 0.5 5 0.5Z" fill="white" stroke="#05B5BC"/>
<g clip-path="url(#clip0_30_200)">
<path d="M17.1356 4.02853C17.0449 4.0381 16.7615 4.07166 16.5116 4.1011C15.504 4.21603 14.3614 4.51866 13.3586 4.9411C9.72954 6.45741 6.99823 9.78422 6.24467 13.6C6.06729 14.5075 6.02417 14.9534 6.02417 16C6.02417 17.3491 6.15823 18.28 6.51354 19.4564C7.67511 23.3058 10.6991 26.3249 14.5584 27.491C15.72 27.8418 16.656 27.9758 18 27.9758C19.349 27.9758 20.28 27.8418 21.4564 27.4865C25.3057 26.3249 28.3249 23.3009 29.4909 19.4416C29.8417 18.28 29.9758 17.344 29.9758 16C29.9758 15.4287 29.9473 14.7762 29.9135 14.5358C29.5247 11.7616 28.382 9.42872 26.477 7.52297C24.5756 5.63185 22.2525 4.48491 19.5356 4.09603C19.1614 4.04316 17.4285 3.99478 17.1356 4.02853ZM13.2238 11.5885C13.4788 11.6654 13.598 11.7374 13.7709 11.9101C14.1071 12.2513 14.184 12.4383 14.184 12.9517C14.184 13.3362 14.1694 13.408 14.0544 13.6094C13.8332 13.9837 13.3198 14.3294 12.9647 14.3388C12.7147 14.344 12.725 14.2334 12.9984 13.9456C13.3631 13.5663 13.4158 13.4225 13.4158 12.8557C13.4113 12.3087 13.344 12.1218 13.0897 11.968C12.8782 11.8385 12.6482 11.848 12.312 12.0061C11.4382 12.4242 10.4927 13.816 10.1235 15.242C9.63355 17.1427 10.5022 18.6638 11.9327 18.4045C12.35 18.3277 13.1374 17.9249 13.4788 17.6077C13.7615 17.3491 13.7615 17.344 13.79 17.0227C13.853 16.3501 14.3276 15.6785 14.9619 15.3665C15.254 15.2221 15.3266 15.2082 15.72 15.2082C16.0942 15.2082 16.1807 15.2273 16.3631 15.3277C16.9438 15.6595 16.8238 16.432 16.1953 16.432C15.8306 16.432 15.6431 16.2445 15.9075 16.1444C16.1668 16.0484 16.07 15.688 15.7684 15.6067C15.413 15.5152 15.0095 15.7553 14.7553 16.216C14.4478 16.7729 14.4337 17.4355 14.726 17.7374C15.0095 18.0398 15.3647 17.8004 15.6386 17.1132C15.7822 16.7632 15.9887 16.5757 16.229 16.5757C16.44 16.5757 16.4788 16.7054 16.3871 17.0993C16.2525 17.7087 16.344 17.867 16.7233 17.6802C16.8478 17.6223 17.0544 17.4884 17.1789 17.3924L17.414 17.2049L17.573 16.3743C17.7459 15.4433 17.8125 15.3181 18.1678 15.2515C18.509 15.1885 18.5859 15.3569 18.4607 15.8894L18.3932 16.1875L18.6431 15.9325C19.2334 15.3277 19.9584 15.0303 20.2082 15.28C20.3422 15.4141 20.3276 15.5825 20.1358 16.1772C20.0449 16.4607 19.9196 16.9075 19.8626 17.1616C19.7762 17.5454 19.7709 17.6369 19.8195 17.6993C19.9732 17.8816 20.4433 17.6941 20.8609 17.2861L21.1055 17.0467L21.1348 16.5134C21.1633 15.899 21.2205 15.6785 21.3838 15.4814C21.5375 15.2992 21.816 15.1651 21.9647 15.2032C22.1134 15.242 22.1134 15.3856 21.9793 15.8082C21.7918 16.3889 21.8115 17.7278 22.0035 17.7278C22.0804 17.7278 22.4735 17.3153 22.7235 16.9698L22.9102 16.7148L22.7615 16.5618C22.5022 16.288 22.44 16.1107 22.44 15.6638C22.44 15.338 22.4642 15.2178 22.5454 15.0588C22.6802 14.8098 22.8911 14.6275 23.1409 14.555C23.4045 14.4736 23.7311 14.6077 23.8652 14.8478C24 15.0925 23.9664 15.6397 23.7934 16.0147L23.6689 16.2878H23.8367C24.0673 16.2878 24.1582 16.2307 24.5713 15.8418C24.7873 15.6353 25.037 15.4574 25.2238 15.371C25.9584 15.026 26.8228 15.2032 26.9662 15.7312C27.0862 16.1538 26.8228 16.4512 26.3614 16.4174C26.0302 16.3934 25.968 16.3068 26.16 16.1444C26.5055 15.8557 26.16 15.4867 25.6655 15.6207C25.3967 15.6931 25.0942 15.995 24.9362 16.3458C24.6189 17.0467 24.7873 17.872 25.2429 17.872C25.4254 17.872 25.7475 17.5118 25.872 17.1616C26.0207 16.7581 26.3327 16.504 26.5678 16.5953C26.6975 16.6432 26.7071 16.7727 26.6257 17.1807C26.5342 17.6275 26.5202 18.0451 26.592 18.2369C26.6207 18.3085 26.7071 18.4433 26.789 18.5343C26.942 18.707 26.9473 18.7694 26.8175 18.8513C26.7553 18.8945 26.6732 18.8755 26.472 18.7651C26.1935 18.6207 25.9534 18.3614 25.8669 18.1167L25.8142 17.9731L25.6222 18.1167C25.5116 18.1936 25.3389 18.28 25.2384 18.3085C24.84 18.4141 24.35 18.1409 24.1202 17.6802C24.0285 17.5021 24 16.9793 24.0673 16.7778C24.1055 16.6672 24.1055 16.6672 23.9516 16.744C23.8704 16.7873 23.6975 16.835 23.5635 16.8496C23.3422 16.874 23.3085 16.898 23.0882 17.1762C22.7762 17.5643 22.2238 18.0882 21.9982 18.1988C21.5186 18.4383 21.3604 18.371 21.2351 17.8763L21.1487 17.5454L20.942 17.7278C20.6784 17.9585 20.1504 18.2369 19.8478 18.3042C19.56 18.3665 19.2525 18.275 19.1278 18.083C18.9412 17.7952 19.0035 17.1858 19.3007 16.3647C19.5212 15.7553 19.3631 15.746 18.8064 16.3267C18.3934 16.7632 18.216 17.0752 18.101 17.56C17.981 18.064 17.8367 18.2463 17.5108 18.3232C17.3137 18.3665 17.222 18.2463 17.261 17.9827L17.2895 17.771L17.1071 17.8962C16.8478 18.0736 16.5212 18.2369 16.2956 18.2992C16.07 18.3614 15.7727 18.2947 15.7009 18.1694C15.5713 17.9491 15.5713 17.9491 15.3699 18.1072C14.9327 18.4625 14.3087 18.3614 13.9922 17.8912L13.8909 17.7425L13.5746 18.0353C12.662 18.8705 11.5202 19.2447 10.6751 18.9854C9.59979 18.6595 9.00504 17.7374 9.01461 16.408C9.01911 15.0736 9.60936 13.6673 10.6033 12.6258C11.165 12.0398 11.693 11.6941 12.2308 11.5645C12.6189 11.4685 12.8548 11.4734 13.2238 11.5885Z" fill="#00C4CC"/>
<path d="M22.9534 15.0017C22.8478 15.1071 22.8866 15.5297 23.0209 15.7986C23.0882 15.9377 23.16 16.0483 23.184 16.0483C23.2031 16.0483 23.2462 15.9377 23.28 15.8029C23.4 15.3042 23.184 14.7709 22.9534 15.0017Z" fill="#00C4CC"/>
</g>
<path d="M53.8924 18.4624H56.0824C56.0384 19.1802 55.8407 19.8174 55.4891 20.374C55.1424 20.9307 54.6566 21.3652 54.0316 21.6777C53.4115 21.9902 52.6644 22.1465 51.7904 22.1465C51.1068 22.1465 50.494 22.0293 49.952 21.7949C49.41 21.5557 48.9462 21.2139 48.5604 20.7695C48.1796 20.3252 47.889 19.7881 47.6888 19.1582C47.4886 18.5283 47.3885 17.8228 47.3885 17.0415V16.3018C47.3885 15.5205 47.4911 14.8149 47.6962 14.1851C47.9061 13.5503 48.204 13.0107 48.5897 12.5664C48.9803 12.1221 49.4466 11.7803 49.9886 11.541C50.5306 11.3018 51.1361 11.1821 51.805 11.1821C52.6937 11.1821 53.4432 11.3433 54.0536 11.6655C54.6688 11.9878 55.1449 12.4321 55.4818 12.9985C55.8236 13.5649 56.0287 14.2095 56.097 14.9321H53.8998C53.8754 14.5024 53.7899 14.1387 53.6434 13.8408C53.4969 13.5381 53.2748 13.311 52.9769 13.1597C52.6839 13.0034 52.2933 12.9253 51.805 12.9253C51.4388 12.9253 51.119 12.9937 50.8456 13.1304C50.5721 13.2671 50.3426 13.4746 50.1571 13.7529C49.9715 14.0312 49.8324 14.3828 49.7396 14.8076C49.6517 15.2275 49.6078 15.7207 49.6078 16.2871V17.0415C49.6078 17.5933 49.6493 18.0791 49.7323 18.499C49.8153 18.9141 49.9422 19.2656 50.1131 19.5537C50.2889 19.8369 50.5135 20.0518 50.787 20.1982C51.0653 20.3398 51.3998 20.4106 51.7904 20.4106C52.2494 20.4106 52.6278 20.3374 52.9256 20.1909C53.2235 20.0444 53.4505 19.8271 53.6068 19.5391C53.7679 19.251 53.8631 18.8921 53.8924 18.4624ZM61.8508 20.2129V16.6826C61.8508 16.4287 61.8093 16.2114 61.7262 16.0308C61.6432 15.8452 61.5138 15.7012 61.3381 15.5986C61.1672 15.4961 60.945 15.4448 60.6716 15.4448C60.4372 15.4448 60.2346 15.4863 60.0637 15.5693C59.8928 15.6475 59.7609 15.7622 59.6681 15.9136C59.5754 16.0601 59.529 16.2334 59.529 16.4336H57.4196C57.4196 16.0967 57.4977 15.7769 57.654 15.4741C57.8102 15.1714 58.0373 14.9053 58.3351 14.6758C58.633 14.4414 58.987 14.2583 59.3971 14.1265C59.8122 13.9946 60.2761 13.9287 60.7887 13.9287C61.404 13.9287 61.9509 14.0312 62.4294 14.2363C62.9079 14.4414 63.2839 14.749 63.5573 15.1592C63.8356 15.5693 63.9748 16.082 63.9748 16.6973V20.0884C63.9748 20.5229 64.0016 20.8794 64.0554 21.1577C64.1091 21.4312 64.1872 21.6704 64.2897 21.8755V22H62.1584C62.0558 21.7852 61.9777 21.5166 61.924 21.1943C61.8752 20.8672 61.8508 20.54 61.8508 20.2129ZM62.1291 17.1733L62.1437 18.3672H60.9645C60.6862 18.3672 60.4445 18.3989 60.2394 18.4624C60.0344 18.5259 59.8659 18.6162 59.7341 18.7334C59.6022 18.8457 59.5046 18.9775 59.4411 19.1289C59.3825 19.2803 59.3532 19.4463 59.3532 19.627C59.3532 19.8076 59.3947 19.9712 59.4777 20.1177C59.5607 20.2593 59.6804 20.3716 59.8366 20.4546C59.9929 20.5327 60.176 20.5718 60.3859 20.5718C60.7033 20.5718 60.9792 20.5083 61.2136 20.3813C61.4479 20.2544 61.6286 20.0981 61.7555 19.9126C61.8874 19.7271 61.9557 19.5513 61.9606 19.3853L62.5173 20.2788C62.4391 20.479 62.3317 20.6865 62.195 20.9014C62.0632 21.1162 61.8947 21.3188 61.6896 21.5093C61.4846 21.6948 61.238 21.8486 60.9499 21.9707C60.6618 22.0879 60.32 22.1465 59.9245 22.1465C59.4216 22.1465 58.965 22.0464 58.5549 21.8462C58.1496 21.6411 57.8273 21.3604 57.5881 21.0039C57.3537 20.6426 57.2365 20.2324 57.2365 19.7734C57.2365 19.3584 57.3146 18.9897 57.4709 18.6675C57.6271 18.3452 57.8566 18.0742 58.1594 17.8545C58.467 17.6299 58.8503 17.4614 59.3093 17.3491C59.7682 17.2319 60.3005 17.1733 60.9059 17.1733H62.1291ZM67.8462 15.7671V22H65.7368V14.0752H67.7144L67.8462 15.7671ZM67.5386 17.7593H66.9673C66.9673 17.1733 67.043 16.646 67.1943 16.1772C67.3457 15.7036 67.5581 15.3008 67.8315 14.9688C68.105 14.6318 68.4297 14.3755 68.8057 14.1997C69.1865 14.019 69.6113 13.9287 70.0801 13.9287C70.4512 13.9287 70.7905 13.9824 71.0981 14.0898C71.4058 14.1973 71.6694 14.3682 71.8892 14.6025C72.1138 14.8369 72.2847 15.147 72.4019 15.5327C72.5239 15.9185 72.585 16.3896 72.585 16.9463V22H70.4609V16.939C70.4609 16.5874 70.4121 16.314 70.3145 16.1187C70.2168 15.9233 70.0728 15.7866 69.8823 15.7085C69.6968 15.6255 69.4673 15.584 69.1938 15.584C68.9106 15.584 68.6641 15.6401 68.4541 15.7524C68.249 15.8647 68.0781 16.021 67.9414 16.2212C67.8096 16.4165 67.7095 16.646 67.6411 16.9097C67.5728 17.1733 67.5386 17.4565 67.5386 17.7593ZM77.0643 20.4619L78.8221 14.0752H81.0267L78.3533 22H77.0203L77.0643 20.4619ZM75.8558 14.0752L77.6209 20.4692L77.6575 22H76.3172L73.6439 14.0752H75.8558ZM86.3117 20.2129V16.6826C86.3117 16.4287 86.2702 16.2114 86.1871 16.0308C86.1041 15.8452 85.9747 15.7012 85.799 15.5986C85.6281 15.4961 85.4059 15.4448 85.1325 15.4448C84.8981 15.4448 84.6954 15.4863 84.5246 15.5693C84.3537 15.6475 84.2218 15.7622 84.129 15.9136C84.0363 16.0601 83.9899 16.2334 83.9899 16.4336H81.8805C81.8805 16.0967 81.9586 15.7769 82.1149 15.4741C82.2711 15.1714 82.4982 14.9053 82.796 14.6758C83.0939 14.4414 83.4479 14.2583 83.858 14.1265C84.2731 13.9946 84.737 13.9287 85.2496 13.9287C85.8649 13.9287 86.4118 14.0312 86.8903 14.2363C87.3688 14.4414 87.7448 14.749 88.0182 15.1592C88.2965 15.5693 88.4357 16.082 88.4357 16.6973V20.0884C88.4357 20.5229 88.4625 20.8794 88.5163 21.1577C88.57 21.4312 88.6481 21.6704 88.7506 21.8755V22H86.6193C86.5167 21.7852 86.4386 21.5166 86.3849 21.1943C86.3361 20.8672 86.3117 20.54 86.3117 20.2129ZM86.59 17.1733L86.6046 18.3672H85.4254C85.1471 18.3672 84.9054 18.3989 84.7003 18.4624C84.4953 18.5259 84.3268 18.6162 84.195 18.7334C84.0631 18.8457 83.9655 18.9775 83.902 19.1289C83.8434 19.2803 83.8141 19.4463 83.8141 19.627C83.8141 19.8076 83.8556 19.9712 83.9386 20.1177C84.0216 20.2593 84.1413 20.3716 84.2975 20.4546C84.4538 20.5327 84.6369 20.5718 84.8468 20.5718C85.1642 20.5718 85.4401 20.5083 85.6745 20.3813C85.9088 20.2544 86.0895 20.0981 86.2164 19.9126C86.3483 19.7271 86.4166 19.5513 86.4215 19.3853L86.9782 20.2788C86.9 20.479 86.7926 20.6865 86.6559 20.9014C86.5241 21.1162 86.3556 21.3188 86.1505 21.5093C85.9454 21.6948 85.6989 21.8486 85.4108 21.9707C85.1227 22.0879 84.7809 22.1465 84.3854 22.1465C83.8825 22.1465 83.4259 22.0464 83.0158 21.8462C82.6105 21.6411 82.2882 21.3604 82.049 21.0039C81.8146 20.6426 81.6974 20.2324 81.6974 19.7734C81.6974 19.3584 81.7755 18.9897 81.9318 18.6675C82.088 18.3452 82.3175 18.0742 82.6203 17.8545C82.9279 17.6299 83.3112 17.4614 83.7702 17.3491C84.2291 17.2319 84.7614 17.1733 85.3668 17.1733H86.59Z" fill="white"/>
<path d="M100 0H5C2.23858 0 0 2.23858 0 5V27C0 29.7614 2.23858 32 5 32H100C102.761 32 105 29.7614 105 27V5C105 2.23858 102.761 0 100 0Z" fill="url(#paint0_linear_30_200)"/>
<defs>
<linearGradient id="paint0_linear_30_200" x1="0" y1="0" x2="0" y2="32" gradientUnits="userSpaceOnUse">
<stop stop-color="#BBBBBB" stop-opacity="0.1"/>
<stop offset="1" stop-opacity="0.1"/>
</linearGradient>
<clipPath id="clip0_30_200">
<rect width="24" height="24" fill="white" transform="translate(6 4)"/>
</clipPath>
</defs>
</svg>
