<svg width="82" height="21" viewBox="0 0 82 21" fill="none" xmlns="http://www.w3.org/2000/svg">
<path d="M77 0H31V21H77C79.7614 21 82 18.7614 82 16V5C82 2.23858 79.7614 0 77 0Z" fill="#06B6BD"/>
<path d="M5 0.5H30.5V20.5H5C2.51472 20.5 0.5 18.4853 0.5 16V5C0.5 2.51472 2.51472 0.5 5 0.5Z" fill="white" stroke="#05B5BC"/>
<g clip-path="url(#clip0_50_257)">
<path d="M14.8877 2.02014C14.8234 2.02691 14.6228 2.05069 14.4457 2.07154C13.732 2.15295 12.9226 2.36731 12.2123 2.66654C9.64176 3.74059 7.70708 6.09708 7.17331 8.79995C7.04767 9.44276 7.01712 9.75859 7.01712 10.5C7.01712 11.4555 7.11208 12.115 7.36376 12.9482C8.18653 15.6749 10.3285 17.8134 13.0622 18.6394C13.885 18.8879 14.548 18.9828 15.5 18.9828C16.4556 18.9828 17.115 18.8879 17.9483 18.6362C20.6749 17.8134 22.8134 15.6714 23.6394 12.9377C23.8879 12.115 23.9829 11.452 23.9829 10.5C23.9829 10.0953 23.9627 9.63308 23.9388 9.46282C23.6633 7.49773 22.8539 5.84527 21.5046 4.49537C20.1577 3.15582 18.5122 2.34341 16.5877 2.06795C16.3226 2.0305 15.0952 1.99623 14.8877 2.02014ZM12.1169 7.37514C12.2975 7.42959 12.3819 7.48059 12.5044 7.60291C12.7425 7.84463 12.797 7.97705 12.797 8.34069C12.797 8.61308 12.7866 8.66395 12.7052 8.80659C12.5485 9.07169 12.1849 9.31659 11.9333 9.32323C11.7563 9.32695 11.7636 9.24859 11.9572 9.04473C12.2155 8.77605 12.2529 8.67418 12.2529 8.27269C12.2497 7.88527 12.202 7.75286 12.0219 7.64395C11.8721 7.55218 11.7091 7.55895 11.471 7.67091C10.8521 7.96708 10.1823 8.95295 9.9208 9.96299C9.57376 11.3093 10.1891 12.3868 11.2023 12.2031C11.4979 12.1487 12.0556 11.8634 12.2975 11.6387C12.4978 11.4555 12.4978 11.452 12.5179 11.2243C12.5626 10.7479 12.8987 10.2722 13.348 10.0512C13.5549 9.94891 13.6063 9.93908 13.885 9.93908C14.1501 9.93908 14.2113 9.95263 14.3405 10.0237C14.7519 10.2588 14.6669 10.806 14.2217 10.806C13.9633 10.806 13.8305 10.6731 14.0178 10.6022C14.2015 10.5342 14.1329 10.279 13.9193 10.2213C13.6676 10.1565 13.3818 10.3266 13.2017 10.653C12.9839 11.0474 12.9739 11.5168 13.1809 11.7306C13.3818 11.9448 13.6333 11.7752 13.8273 11.2885C13.9291 11.0405 14.0753 10.9077 14.2456 10.9077C14.395 10.9077 14.4225 10.9996 14.3575 11.2786C14.2622 11.7103 14.327 11.8224 14.5957 11.6901C14.6839 11.649 14.8302 11.5542 14.9184 11.4862L15.0849 11.3534L15.1976 10.765C15.32 10.1056 15.3672 10.0169 15.6189 9.96976C15.8606 9.92514 15.915 10.0444 15.8263 10.4216L15.7785 10.6328L15.9555 10.4521C16.3736 10.0237 16.8872 9.81305 17.0641 9.98995C17.1591 10.0849 17.1487 10.2042 17.0129 10.6255C16.9484 10.8263 16.8597 11.1428 16.8193 11.3227C16.7581 11.5946 16.7544 11.6594 16.7888 11.7036C16.8977 11.8327 17.2307 11.6999 17.5264 11.4109L17.6998 11.2413L17.7205 10.8636C17.7407 10.4284 17.7812 10.2722 17.8969 10.1326C18.0058 10.0035 18.203 9.90854 18.3083 9.9355C18.4136 9.96299 18.4136 10.0647 18.3187 10.3641C18.1859 10.7754 18.1998 11.7238 18.3358 11.7238C18.3903 11.7238 18.6688 11.4316 18.8458 11.1869L18.9781 11.0062L18.8728 10.8979C18.6891 10.704 18.645 10.5783 18.645 10.2618C18.645 10.031 18.6621 9.94586 18.7196 9.83323C18.8151 9.65686 18.9645 9.52776 19.1414 9.47637C19.3282 9.41873 19.5595 9.51369 19.6545 9.68382C19.75 9.85714 19.7262 10.2447 19.6036 10.5103L19.5154 10.7038H19.6343C19.7977 10.7038 19.8621 10.6633 20.1547 10.3879C20.3077 10.2416 20.4846 10.1156 20.6169 10.0544C21.1372 9.80999 21.7495 9.9355 21.8511 10.3095C21.9361 10.6089 21.7495 10.8195 21.4226 10.7956C21.1881 10.7786 21.144 10.7172 21.28 10.6022C21.5248 10.3977 21.28 10.1363 20.9298 10.2313C20.7393 10.2825 20.5251 10.4964 20.4131 10.7449C20.1884 11.2413 20.3077 11.826 20.6304 11.826C20.7596 11.826 20.9878 11.5708 21.076 11.3227C21.1813 11.0369 21.4023 10.857 21.5689 10.9216C21.6608 10.9555 21.6675 11.0473 21.6099 11.3363C21.5451 11.6528 21.5351 11.9485 21.586 12.0844C21.6063 12.1351 21.6675 12.2306 21.7256 12.295C21.8339 12.4174 21.8377 12.4616 21.7458 12.5196C21.7017 12.5502 21.6435 12.5368 21.501 12.4585C21.3038 12.3563 21.1336 12.1726 21.0724 11.9993L21.0351 11.8975L20.8991 11.9993C20.8207 12.0537 20.6984 12.115 20.6272 12.1351C20.345 12.2099 19.9979 12.0164 19.8351 11.6901C19.7702 11.5639 19.75 11.1936 19.7977 11.0509C19.8248 10.9725 19.8248 10.9725 19.7157 11.027C19.6582 11.0576 19.5358 11.0914 19.4408 11.1017C19.2841 11.119 19.2602 11.136 19.1041 11.3331C18.8831 11.608 18.4919 11.9791 18.3321 12.0574C17.9923 12.227 17.8803 12.1794 17.7915 11.829L17.7303 11.5946L17.5839 11.7238C17.3972 11.8872 17.0232 12.0844 16.8089 12.1321C16.605 12.1762 16.3872 12.1114 16.2989 11.9754C16.1667 11.7715 16.2108 11.3399 16.4213 10.7583C16.5775 10.3266 16.4655 10.32 16.0712 10.7313C15.7786 11.0405 15.653 11.2615 15.5716 11.605C15.4866 11.962 15.3843 12.091 15.1535 12.1455C15.0139 12.1762 14.9489 12.091 14.9766 11.9043L14.9968 11.7544L14.8675 11.8431C14.6839 11.9687 14.4525 12.0844 14.2927 12.1285C14.1329 12.1726 13.9223 12.1253 13.8714 12.0366C13.7797 11.8805 13.7797 11.8805 13.637 11.9925C13.3273 12.2442 12.8853 12.1726 12.6611 11.8395L12.5894 11.7342L12.3653 11.9416C11.7189 12.5332 10.9101 12.7983 10.3115 12.6146C9.54985 12.3838 9.12857 11.7306 9.13535 10.789C9.13853 9.84373 9.55663 8.84763 10.2607 8.10986C10.6586 7.69482 11.0326 7.44991 11.4135 7.35814C11.6884 7.29014 11.8555 7.29359 12.1169 7.37514Z" fill="#00C4CC"/>
<path d="M19.0086 9.79293C18.9339 9.86757 18.9614 10.1669 19.0564 10.3574C19.1041 10.4559 19.155 10.5343 19.172 10.5343C19.1855 10.5343 19.2161 10.4559 19.24 10.3604C19.325 10.0072 19.172 9.62944 19.0086 9.79293Z" fill="#00C4CC"/>
</g>
<path d="M47.095 11.6416H48.5549C48.5256 12.1201 48.3938 12.5449 48.1594 12.916C47.9283 13.2871 47.6044 13.5768 47.1877 13.7852C46.7743 13.9935 46.2763 14.0977 45.6936 14.0977C45.2379 14.0977 44.8293 14.0195 44.468 13.8633C44.1067 13.7038 43.7974 13.4759 43.5403 13.1797C43.2864 12.8835 43.0927 12.5254 42.9592 12.1055C42.8258 11.6855 42.759 11.2152 42.759 10.6943V10.2012C42.759 9.68034 42.8274 9.20996 42.9641 8.79004C43.1041 8.36686 43.3026 8.00716 43.5598 7.71094C43.8202 7.41471 44.1311 7.18685 44.4924 7.02734C44.8538 6.86784 45.2574 6.78809 45.7034 6.78809C46.2958 6.78809 46.7955 6.89551 47.2024 7.11035C47.6125 7.3252 47.9299 7.62142 48.1545 7.99902C48.3824 8.37663 48.5191 8.80632 48.5647 9.28809H47.0998C47.0836 9.00163 47.0266 8.75911 46.9289 8.56055C46.8313 8.35872 46.6832 8.20736 46.4846 8.10645C46.2893 8.00228 46.0289 7.9502 45.7034 7.9502C45.4592 7.9502 45.246 7.99577 45.0637 8.08691C44.8814 8.17806 44.7284 8.31641 44.6047 8.50195C44.481 8.6875 44.3883 8.92188 44.3264 9.20508C44.2678 9.48503 44.2385 9.8138 44.2385 10.1914V10.6943C44.2385 11.0622 44.2662 11.3861 44.3215 11.666C44.3769 11.9427 44.4615 12.1771 44.5754 12.3691C44.6926 12.5579 44.8424 12.7012 45.0246 12.7988C45.2102 12.8932 45.4332 12.9404 45.6936 12.9404C45.9996 12.9404 46.2519 12.8916 46.4504 12.7939C46.649 12.6963 46.8004 12.5514 46.9045 12.3594C47.012 12.1673 47.0754 11.9281 47.095 11.6416ZM52.5763 12.8086V10.4551C52.5763 10.2858 52.5486 10.141 52.4933 10.0205C52.4379 9.89681 52.3517 9.80078 52.2345 9.73242C52.1206 9.66406 51.9724 9.62988 51.7902 9.62988C51.6339 9.62988 51.4988 9.65755 51.3849 9.71289C51.271 9.76497 51.1831 9.84147 51.1212 9.94238C51.0594 10.04 51.0284 10.1556 51.0284 10.2891H49.6222C49.6222 10.0645 49.6743 9.85124 49.7784 9.64941C49.8826 9.44759 50.034 9.27018 50.2325 9.11719C50.4311 8.96094 50.6671 8.83887 50.9405 8.75098C51.2172 8.66309 51.5265 8.61914 51.8683 8.61914C52.2784 8.61914 52.643 8.6875 52.962 8.82422C53.281 8.96094 53.5317 9.16602 53.714 9.43945C53.8995 9.71289 53.9923 10.0547 53.9923 10.4648V12.7256C53.9923 13.0153 54.0102 13.2529 54.046 13.4385C54.0818 13.6208 54.1339 13.7803 54.2023 13.917V14H52.7814C52.713 13.8568 52.6609 13.6777 52.6251 13.4629C52.5926 13.2448 52.5763 13.0267 52.5763 12.8086ZM52.7618 10.7822L52.7716 11.5781H51.9855C51.7999 11.5781 51.6388 11.5993 51.5021 11.6416C51.3654 11.6839 51.253 11.7441 51.1652 11.8223C51.0773 11.8971 51.0122 11.985 50.9698 12.0859C50.9308 12.1868 50.9113 12.2975 50.9113 12.418C50.9113 12.5384 50.9389 12.6475 50.9943 12.7451C51.0496 12.8395 51.1294 12.9144 51.2335 12.9697C51.3377 13.0218 51.4598 13.0479 51.5997 13.0479C51.8113 13.0479 51.9952 13.0055 52.1515 12.9209C52.3077 12.8363 52.4282 12.7321 52.5128 12.6084C52.6007 12.4847 52.6463 12.3675 52.6495 12.2568L53.0206 12.8525C52.9685 12.986 52.8969 13.1243 52.8058 13.2676C52.7179 13.4108 52.6056 13.5459 52.4689 13.6729C52.3321 13.7965 52.1678 13.8991 51.9757 13.9805C51.7836 14.0586 51.5558 14.0977 51.2921 14.0977C50.9568 14.0977 50.6525 14.0309 50.379 13.8975C50.1088 13.7607 49.894 13.5736 49.7345 13.3359C49.5782 13.0951 49.5001 12.8216 49.5001 12.5156C49.5001 12.2389 49.5522 11.9932 49.6564 11.7783C49.7605 11.5635 49.9135 11.3828 50.1154 11.2363C50.3204 11.0866 50.576 10.9743 50.882 10.8994C51.1879 10.8213 51.5428 10.7822 51.9464 10.7822H52.7618ZM56.5732 9.84473V14H55.167V8.7168H56.4854L56.5732 9.84473ZM56.3682 11.1729H55.9873C55.9873 10.7822 56.0378 10.4307 56.1387 10.1182C56.2396 9.80241 56.3812 9.53385 56.5635 9.3125C56.7458 9.08789 56.9622 8.91699 57.2129 8.7998C57.4668 8.67936 57.75 8.61914 58.0625 8.61914C58.3099 8.61914 58.5361 8.65495 58.7412 8.72656C58.9463 8.79818 59.1221 8.91211 59.2686 9.06836C59.4183 9.22461 59.5322 9.43132 59.6104 9.68848C59.6917 9.94564 59.7324 10.2598 59.7324 10.6309V14H58.3164V10.626C58.3164 10.3916 58.2839 10.2093 58.2188 10.0791C58.1536 9.94889 58.0576 9.85775 57.9307 9.80566C57.807 9.75033 57.654 9.72266 57.4717 9.72266C57.2829 9.72266 57.1185 9.76009 56.9785 9.83496C56.8418 9.90983 56.7279 10.014 56.6367 10.1475C56.5488 10.2777 56.4821 10.4307 56.4365 10.6064C56.391 10.7822 56.3682 10.971 56.3682 11.1729ZM62.7186 12.9746L63.8905 8.7168H65.3602L63.578 14H62.6893L62.7186 12.9746ZM61.913 8.7168L63.0897 12.9795L63.1141 14H62.2206L60.4384 8.7168H61.913ZM68.8836 12.8086V10.4551C68.8836 10.2858 68.8559 10.141 68.8005 10.0205C68.7452 9.89681 68.6589 9.80078 68.5418 9.73242C68.4278 9.66406 68.2797 9.62988 68.0974 9.62988C67.9412 9.62988 67.8061 9.65755 67.6921 9.71289C67.5782 9.76497 67.4903 9.84147 67.4285 9.94238C67.3666 10.04 67.3357 10.1556 67.3357 10.2891H65.9295C65.9295 10.0645 65.9815 9.85124 66.0857 9.64941C66.1899 9.44759 66.3412 9.27018 66.5398 9.11719C66.7384 8.96094 66.9744 8.83887 67.2478 8.75098C67.5245 8.66309 67.8337 8.61914 68.1755 8.61914C68.5857 8.61914 68.9503 8.6875 69.2693 8.82422C69.5883 8.96094 69.839 9.16602 70.0212 9.43945C70.2068 9.71289 70.2996 10.0547 70.2996 10.4648V12.7256C70.2996 13.0153 70.3175 13.2529 70.3533 13.4385C70.3891 13.6208 70.4412 13.7803 70.5095 13.917V14H69.0886C69.0203 13.8568 68.9682 13.6777 68.9324 13.4629C68.8998 13.2448 68.8836 13.0267 68.8836 12.8086ZM69.0691 10.7822L69.0789 11.5781H68.2927C68.1072 11.5781 67.9461 11.5993 67.8093 11.6416C67.6726 11.6839 67.5603 11.7441 67.4724 11.8223C67.3845 11.8971 67.3194 11.985 67.2771 12.0859C67.238 12.1868 67.2185 12.2975 67.2185 12.418C67.2185 12.5384 67.2462 12.6475 67.3015 12.7451C67.3569 12.8395 67.4366 12.9144 67.5408 12.9697C67.6449 13.0218 67.767 13.0479 67.907 13.0479C68.1186 13.0479 68.3025 13.0055 68.4587 12.9209C68.615 12.8363 68.7354 12.7321 68.8201 12.6084C68.908 12.4847 68.9535 12.3675 68.9568 12.2568L69.3279 12.8525C69.2758 12.986 69.2042 13.1243 69.113 13.2676C69.0252 13.4108 68.9128 13.5459 68.7761 13.6729C68.6394 13.7965 68.475 13.8991 68.283 13.9805C68.0909 14.0586 67.863 14.0977 67.5994 14.0977C67.2641 14.0977 66.9597 14.0309 66.6863 13.8975C66.4161 13.7607 66.2013 13.5736 66.0418 13.3359C65.8855 13.0951 65.8074 12.8216 65.8074 12.5156C65.8074 12.2389 65.8595 11.9932 65.9636 11.7783C66.0678 11.5635 66.2208 11.3828 66.4226 11.2363C66.6277 11.0866 66.8832 10.9743 67.1892 10.8994C67.4952 10.8213 67.85 10.7822 68.2537 10.7822H69.0691Z" fill="white"/>
<path d="M77 0H5C2.23858 0 0 2.23858 0 5V16C0 18.7614 2.23858 21 5 21H77C79.7614 21 82 18.7614 82 16V5C82 2.23858 79.7614 0 77 0Z" fill="url(#paint0_linear_50_257)"/>
<defs>
<linearGradient id="paint0_linear_50_257" x1="0" y1="0" x2="0" y2="21" gradientUnits="userSpaceOnUse">
<stop stop-color="#BBBBBB" stop-opacity="0.1"/>
<stop offset="1" stop-opacity="0.1"/>
</linearGradient>
<clipPath id="clip0_50_257">
<rect width="17" height="17" fill="white" transform="translate(7 2)"/>
</clipPath>
</defs>
</svg>
