<svg width="87" height="22" viewBox="0 0 87 22" fill="none" xmlns="http://www.w3.org/2000/svg">
<path d="M30.9917 21.0016L81.1218 21.017C83.8832 21.0179 86.1223 18.78 86.1229 16.0186L86.1253 5.01704C86.1259 2.25561 83.8878 0.016348 81.1264 0.0154972L30.9963 5.19634e-05L30.9917 21.0016Z" fill="url(#paint0_linear_50_267)"/>
<path d="M5 0.5H30.5V20.5H5C2.51472 20.5 0.5 18.4853 0.5 16V5C0.5 2.51472 2.51472 0.5 5 0.5Z" fill="white" stroke="url(#paint1_linear_50_267)"/>
<path d="M46.4289 6.89062V14H44.9641V6.89062H46.4289ZM49.261 9.92773V11.0703H46.0286V9.92773H49.261ZM49.6028 6.89062V8.03809H46.0286V6.89062H49.6028ZM52.1446 8.7168V14H50.7335V8.7168H52.1446ZM50.6456 7.33984C50.6456 7.13477 50.7172 6.96549 50.8605 6.83203C51.0037 6.69857 51.1958 6.63184 51.4366 6.63184C51.6743 6.63184 51.8647 6.69857 52.0079 6.83203C52.1544 6.96549 52.2277 7.13477 52.2277 7.33984C52.2277 7.54492 52.1544 7.71419 52.0079 7.84766C51.8647 7.98112 51.6743 8.04785 51.4366 8.04785C51.1958 8.04785 51.0037 7.98112 50.8605 7.84766C50.7172 7.71419 50.6456 7.54492 50.6456 7.33984ZM56.7715 8.7168H58.0459V13.8242C58.0459 14.306 57.9385 14.7145 57.7236 15.0498C57.512 15.3883 57.2158 15.6439 56.835 15.8164C56.4541 15.9922 56.0114 16.0801 55.5068 16.0801C55.2855 16.0801 55.0511 16.0508 54.8037 15.9922C54.5596 15.9336 54.3252 15.8424 54.1006 15.7188C53.8792 15.5951 53.6937 15.4388 53.5439 15.25L54.1641 14.4199C54.3268 14.6087 54.5156 14.7552 54.7305 14.8594C54.9453 14.9668 55.1829 15.0205 55.4434 15.0205C55.6973 15.0205 55.9121 14.9733 56.0879 14.8789C56.2637 14.7878 56.3988 14.6527 56.4932 14.4736C56.5876 14.2979 56.6348 14.0846 56.6348 13.834V9.9375L56.7715 8.7168ZM53.2168 11.4219V11.3193C53.2168 10.9157 53.2656 10.5495 53.3633 10.2207C53.4642 9.88867 53.6058 9.60384 53.7881 9.36621C53.9736 9.12858 54.1982 8.94466 54.4619 8.81445C54.7256 8.68424 55.0234 8.61914 55.3555 8.61914C55.707 8.61914 56.0016 8.68424 56.2393 8.81445C56.4769 8.94466 56.6722 9.13021 56.8252 9.37109C56.9782 9.60872 57.097 9.8903 57.1816 10.2158C57.2695 10.5381 57.3379 10.8913 57.3867 11.2754V11.5C57.3379 11.8678 57.2646 12.2096 57.167 12.5254C57.0693 12.8411 56.9408 13.1178 56.7812 13.3555C56.6217 13.5898 56.4232 13.7721 56.1855 13.9023C55.9512 14.0326 55.6712 14.0977 55.3457 14.0977C55.0202 14.0977 54.7256 14.0309 54.4619 13.8975C54.2015 13.764 53.9785 13.5768 53.793 13.3359C53.6074 13.0951 53.4642 12.8118 53.3633 12.4863C53.2656 12.1608 53.2168 11.806 53.2168 11.4219ZM54.623 11.3193V11.4219C54.623 11.64 54.6442 11.8434 54.6865 12.0322C54.7288 12.221 54.7939 12.3887 54.8818 12.5352C54.973 12.6784 55.0853 12.7907 55.2188 12.8721C55.3555 12.9502 55.5166 12.9893 55.7021 12.9893C55.9593 12.9893 56.1693 12.9355 56.332 12.8281C56.4948 12.7174 56.6169 12.5661 56.6982 12.374C56.7796 12.182 56.8268 11.9606 56.8398 11.71V11.0703C56.8333 10.8652 56.8057 10.6813 56.7568 10.5186C56.708 10.3525 56.6396 10.2109 56.5518 10.0938C56.4639 9.97656 56.3499 9.88542 56.21 9.82031C56.07 9.75521 55.904 9.72266 55.7119 9.72266C55.5264 9.72266 55.3652 9.76497 55.2285 9.84961C55.0951 9.93099 54.9827 10.0433 54.8916 10.1865C54.8037 10.3298 54.737 10.499 54.6914 10.6943C54.6458 10.8864 54.623 11.0947 54.623 11.3193ZM60.6659 9.81055V14H59.2548V8.7168H60.578L60.6659 9.81055ZM60.4706 11.1729H60.08C60.08 10.805 60.1239 10.4665 60.2118 10.1572C60.3029 9.84473 60.4348 9.57454 60.6073 9.34668C60.7831 9.11556 60.9996 8.93652 61.2567 8.80957C61.5139 8.68262 61.8117 8.61914 62.1503 8.61914C62.3846 8.61914 62.5995 8.65495 62.7948 8.72656C62.9901 8.79492 63.1578 8.90397 63.2977 9.05371C63.441 9.2002 63.5516 9.39225 63.6298 9.62988C63.7079 9.86426 63.747 10.1458 63.747 10.4746V14H62.3407V10.6309C62.3407 10.39 62.3081 10.2044 62.243 10.0742C62.1779 9.94401 62.0852 9.85286 61.9647 9.80078C61.8475 9.7487 61.7059 9.72266 61.5399 9.72266C61.3576 9.72266 61.1981 9.76009 61.0614 9.83496C60.9279 9.90983 60.8173 10.014 60.7294 10.1475C60.6415 10.2777 60.5764 10.4307 60.5341 10.6064C60.4917 10.7822 60.4706 10.971 60.4706 11.1729ZM63.6151 11.0117L63.1122 11.0752C63.1122 10.7301 63.1545 10.4095 63.2391 10.1133C63.327 9.81706 63.4556 9.55664 63.6249 9.33203C63.7974 9.10742 64.0106 8.93327 64.2645 8.80957C64.5184 8.68262 64.8114 8.61914 65.1434 8.61914C65.3973 8.61914 65.6285 8.65658 65.8368 8.73145C66.0451 8.80306 66.2225 8.91862 66.369 9.07812C66.5188 9.23438 66.6327 9.43945 66.7108 9.69336C66.7922 9.94727 66.8329 10.2581 66.8329 10.626V14H65.4218V10.626C65.4218 10.3818 65.3892 10.1963 65.3241 10.0693C65.2623 9.93913 65.1711 9.84961 65.0507 9.80078C64.9335 9.7487 64.7935 9.72266 64.6307 9.72266C64.4615 9.72266 64.3134 9.75684 64.1864 9.8252C64.0595 9.8903 63.9537 9.98145 63.869 10.0986C63.7844 10.2158 63.7209 10.3525 63.6786 10.5088C63.6363 10.6618 63.6151 10.8294 63.6151 11.0117ZM70.8933 12.8086V10.4551C70.8933 10.2858 70.8656 10.141 70.8103 10.0205C70.755 9.89681 70.6687 9.80078 70.5515 9.73242C70.4376 9.66406 70.2895 9.62988 70.1072 9.62988C69.9509 9.62988 69.8158 9.65755 69.7019 9.71289C69.588 9.76497 69.5001 9.84147 69.4382 9.94238C69.3764 10.04 69.3455 10.1556 69.3455 10.2891H67.9392C67.9392 10.0645 67.9913 9.85124 68.0955 9.64941C68.1996 9.44759 68.351 9.27018 68.5496 9.11719C68.7481 8.96094 68.9841 8.83887 69.2576 8.75098C69.5343 8.66309 69.8435 8.61914 70.1853 8.61914C70.5955 8.61914 70.96 8.6875 71.2791 8.82422C71.5981 8.96094 71.8487 9.16602 72.031 9.43945C72.2166 9.71289 72.3093 10.0547 72.3093 10.4648V12.7256C72.3093 13.0153 72.3272 13.2529 72.363 13.4385C72.3989 13.6208 72.4509 13.7803 72.5193 13.917V14H71.0984C71.03 13.8568 70.978 13.6777 70.9421 13.4629C70.9096 13.2448 70.8933 13.0267 70.8933 12.8086ZM71.0789 10.7822L71.0886 11.5781H70.3025C70.117 11.5781 69.9558 11.5993 69.8191 11.6416C69.6824 11.6839 69.5701 11.7441 69.4822 11.8223C69.3943 11.8971 69.3292 11.985 69.2869 12.0859C69.2478 12.1868 69.2283 12.2975 69.2283 12.418C69.2283 12.5384 69.2559 12.6475 69.3113 12.7451C69.3666 12.8395 69.4464 12.9144 69.5505 12.9697C69.6547 13.0218 69.7768 13.0479 69.9168 13.0479C70.1283 13.0479 70.3123 13.0055 70.4685 12.9209C70.6248 12.8363 70.7452 12.7321 70.8298 12.6084C70.9177 12.4847 70.9633 12.3675 70.9666 12.2568L71.3377 12.8525C71.2856 12.986 71.214 13.1243 71.1228 13.2676C71.0349 13.4108 70.9226 13.5459 70.7859 13.6729C70.6492 13.7965 70.4848 13.8991 70.2927 13.9805C70.1007 14.0586 69.8728 14.0977 69.6091 14.0977C69.2739 14.0977 68.9695 14.0309 68.6961 13.8975C68.4259 13.7607 68.211 13.5736 68.0515 13.3359C67.8953 13.0951 67.8171 12.8216 67.8171 12.5156C67.8171 12.2389 67.8692 11.9932 67.9734 11.7783C68.0776 11.5635 68.2306 11.3828 68.4324 11.2363C68.6375 11.0866 68.893 10.9743 69.199 10.8994C69.505 10.8213 69.8598 10.7822 70.2634 10.7822H71.0789Z" fill="white"/>
<path d="M12.2207 19.6367C13.8477 19.6367 15.1602 18.3242 15.1602 16.6973V13.7578H12.2207C10.5938 13.7578 9.28125 15.0703 9.28125 16.6973C9.28125 18.3242 10.5938 19.6367 12.2207 19.6367Z" fill="#0ACF83"/>
<path d="M9.28125 10.8184C9.28125 9.19141 10.5938 7.87891 12.2207 7.87891H15.1602V13.7578H12.2207C10.5938 13.7578 9.28125 12.4453 9.28125 10.8184Z" fill="#A259FF"/>
<path d="M9.28125 4.93945C9.28125 3.3125 10.5938 2 12.2207 2H15.1602V7.87891H12.2207C10.5938 7.87891 9.28125 6.56641 9.28125 4.93945Z" fill="#F24E1E"/>
<path d="M15.1602 2H18.0996C19.7266 2 21.0391 3.3125 21.0391 4.93945C21.0391 6.56641 19.7266 7.87891 18.0996 7.87891H15.1602V2Z" fill="#FF7262"/>
<path d="M21.0391 10.8184C21.0391 12.4453 19.7266 13.7578 18.0996 13.7578C16.4727 13.7578 15.1602 12.4453 15.1602 10.8184C15.1602 9.19141 16.4727 7.87891 18.0996 7.87891C19.7266 7.87891 21.0391 9.19141 21.0391 10.8184Z" fill="#1ABCFE"/>
<defs>
<linearGradient id="paint0_linear_50_267" x1="85.8332" y1="19.3343" x2="78.4469" y2="-9.18198" gradientUnits="userSpaceOnUse">
<stop offset="0.1075" stop-color="#9039D0"/>
<stop offset="0.3871" stop-color="#FF1F51"/>
<stop offset="0.629" stop-color="#FF1F51"/>
<stop offset="0.6599" stop-color="#FF3648"/>
<stop offset="0.7139" stop-color="#FF593B"/>
<stop offset="0.765" stop-color="#FF7231"/>
<stop offset="0.8116" stop-color="#FF812B"/>
<stop offset="0.8495" stop-color="#FF8629"/>
</linearGradient>
<linearGradient id="paint1_linear_50_267" x1="30.5" y1="0.65625" x2="30.5" y2="20.3437" gradientUnits="userSpaceOnUse">
<stop stop-color="#FF8629"/>
<stop offset="1" stop-color="#FF1F51"/>
</linearGradient>
</defs>
</svg>
