<svg width="131" height="33" viewBox="0 0 131 33" fill="none" xmlns="http://www.w3.org/2000/svg">
<path d="M30.9916 32.0023L125.118 32.0269C127.879 32.0276 130.119 29.7896 130.119 27.0282L130.125 5.02588C130.126 2.26446 127.888 0.0253001 125.126 0.0245791L31 1.61856e-06L30.9916 32.0023Z" fill="url(#paint0_linear_30_225)"/>
<path d="M5 0.5H30.5V31.5H5C2.51472 31.5 0.5 29.4853 0.5 27V5C0.5 2.51472 2.51472 0.5 5 0.5Z" fill="white" stroke="url(#paint1_linear_30_225)"/>
<mask id="mask0_30_225" style="mask-type:luminance" maskUnits="userSpaceOnUse" x="7" y="2" width="19" height="28">
<path d="M7 2H25.0036V30H7V2Z" fill="white"/>
</mask>
<g mask="url(#mask0_30_225)">
<path d="M11.5019 30C13.9859 30 16.0018 27.9094 16.0018 25.3334V20.6666H11.5019C9.01786 20.6666 7.00177 22.7574 7.00177 25.3334C7.00177 27.9094 9.01786 30 11.5019 30Z" fill="#0ACF83"/>
<path d="M7.00177 16C7.00177 13.424 9.01786 11.3334 11.5019 11.3334H16.0018V20.6666H11.5019C9.01786 20.6666 7.00177 18.576 7.00177 16Z" fill="#A259FF"/>
<path d="M7.00183 6.66662C7.00183 4.09062 9.01792 2 11.5019 2H16.0019V11.3334H11.5019C9.01792 11.3334 7.00183 9.24262 7.00183 6.66662Z" fill="#F24E1E"/>
<path d="M16.0018 2H20.5018C22.9858 2 25.0019 4.09062 25.0019 6.66662C25.0019 9.24262 22.9858 11.3334 20.5018 11.3334H16.0018V2Z" fill="#FF7262"/>
<path d="M25.0019 16C25.0019 18.576 22.9858 20.6666 20.5018 20.6666C18.0178 20.6666 16.0018 18.576 16.0018 16C16.0018 13.424 18.0178 11.3334 20.5018 11.3334C22.9858 11.3334 25.0019 13.424 25.0019 16Z" fill="#1ABCFE"/>
</g>
<path d="M62.3934 10.3359V21H60.1962V10.3359H62.3934ZM66.6415 14.8916V16.6055H61.7928V14.8916H66.6415ZM67.1542 10.3359V12.0571H61.7928V10.3359H67.1542ZM70.7033 13.0752V21H68.5866V13.0752H70.7033ZM68.4548 11.0098C68.4548 10.7021 68.5622 10.4482 68.777 10.248C68.9919 10.0479 69.28 9.94775 69.6413 9.94775C69.9977 9.94775 70.2834 10.0479 70.4982 10.248C70.7179 10.4482 70.8278 10.7021 70.8278 11.0098C70.8278 11.3174 70.7179 11.5713 70.4982 11.7715C70.2834 11.9717 69.9977 12.0718 69.6413 12.0718C69.28 12.0718 68.9919 11.9717 68.777 11.7715C68.5622 11.5713 68.4548 11.3174 68.4548 11.0098ZM77.6436 13.0752H79.5552V20.7363C79.5552 21.459 79.394 22.0718 79.0718 22.5747C78.7544 23.0825 78.3101 23.4658 77.7388 23.7246C77.1675 23.9883 76.5034 24.1201 75.7466 24.1201C75.4146 24.1201 75.063 24.0762 74.6919 23.9883C74.3257 23.9004 73.9741 23.7637 73.6372 23.5781C73.3052 23.3926 73.0269 23.1582 72.8022 22.875L73.7324 21.6299C73.9766 21.9131 74.2598 22.1328 74.582 22.2891C74.9043 22.4502 75.2607 22.5308 75.6514 22.5308C76.0322 22.5308 76.3545 22.46 76.6182 22.3184C76.8818 22.1816 77.0845 21.979 77.2261 21.7104C77.3677 21.4468 77.4385 21.127 77.4385 20.751V14.9062L77.6436 13.0752ZM72.3115 17.1328V16.979C72.3115 16.3735 72.3848 15.8242 72.5312 15.3311C72.6826 14.833 72.895 14.4058 73.1685 14.0493C73.4468 13.6929 73.7837 13.417 74.1792 13.2217C74.5747 13.0264 75.0215 12.9287 75.5195 12.9287C76.0469 12.9287 76.4888 13.0264 76.8452 13.2217C77.2017 13.417 77.4946 13.6953 77.7241 14.0566C77.9536 14.4131 78.1318 14.8354 78.2588 15.3237C78.3906 15.8071 78.4932 16.3369 78.5664 16.9131V17.25C78.4932 17.8018 78.3833 18.3145 78.2368 18.7881C78.0903 19.2617 77.8975 19.6768 77.6582 20.0332C77.4189 20.3848 77.1211 20.6582 76.7646 20.8535C76.4131 21.0488 75.9932 21.1465 75.5049 21.1465C75.0166 21.1465 74.5747 21.0464 74.1792 20.8462C73.7886 20.646 73.4541 20.3652 73.1758 20.0039C72.8975 19.6426 72.6826 19.2178 72.5312 18.7295C72.3848 18.2412 72.3115 17.709 72.3115 17.1328ZM74.4209 16.979V17.1328C74.4209 17.46 74.4526 17.7651 74.5161 18.0483C74.5796 18.3315 74.6772 18.583 74.8091 18.8027C74.9458 19.0176 75.1143 19.186 75.3145 19.3081C75.5195 19.4253 75.7612 19.4839 76.0396 19.4839C76.4253 19.4839 76.7402 19.4033 76.9844 19.2422C77.2285 19.0762 77.4116 18.8491 77.5337 18.561C77.6558 18.2729 77.7266 17.9409 77.7461 17.5649V16.6055C77.7363 16.2979 77.6948 16.022 77.6216 15.7778C77.5483 15.5288 77.4458 15.3164 77.314 15.1406C77.1821 14.9648 77.0112 14.8281 76.8013 14.7305C76.5913 14.6328 76.3423 14.584 76.0542 14.584C75.7759 14.584 75.5342 14.6475 75.3291 14.7744C75.1289 14.8965 74.9604 15.0649 74.8237 15.2798C74.6919 15.4946 74.5918 15.7485 74.5234 16.0415C74.4551 16.3296 74.4209 16.6421 74.4209 16.979ZM83.4852 14.7158V21H81.3685V13.0752H83.3533L83.4852 14.7158ZM83.1922 16.7593H82.6063C82.6063 16.2075 82.6722 15.6997 82.804 15.2358C82.9407 14.7671 83.1385 14.3618 83.3973 14.02C83.661 13.6733 83.9857 13.4048 84.3714 13.2144C84.7571 13.0239 85.2039 12.9287 85.7117 12.9287C86.0633 12.9287 86.3856 12.9824 86.6785 13.0898C86.9715 13.1924 87.223 13.356 87.4329 13.5806C87.6478 13.8003 87.8138 14.0884 87.931 14.4448C88.0482 14.7964 88.1068 15.2188 88.1068 15.7119V21H85.9974V15.9463C85.9974 15.585 85.9486 15.3066 85.8509 15.1113C85.7532 14.916 85.6141 14.7793 85.4334 14.7012C85.2576 14.623 85.0452 14.584 84.7962 14.584C84.5228 14.584 84.2835 14.6401 84.0784 14.7524C83.8782 14.8647 83.7122 15.021 83.5804 15.2212C83.4486 15.4165 83.3509 15.646 83.2874 15.9097C83.2239 16.1733 83.1922 16.4565 83.1922 16.7593ZM87.909 16.5176L87.1546 16.6128C87.1546 16.0952 87.2181 15.6143 87.345 15.1699C87.4769 14.7256 87.6697 14.335 87.9237 13.998C88.1824 13.6611 88.5023 13.3999 88.8831 13.2144C89.264 13.0239 89.7034 12.9287 90.2015 12.9287C90.5823 12.9287 90.929 12.9849 91.2415 13.0972C91.554 13.2046 91.8201 13.3779 92.0399 13.6172C92.2645 13.8516 92.4354 14.1592 92.5526 14.54C92.6746 14.9209 92.7357 15.3872 92.7357 15.939V21H90.619V15.939C90.619 15.5728 90.5701 15.2944 90.4725 15.104C90.3797 14.9087 90.243 14.7744 90.0623 14.7012C89.8865 14.623 89.6766 14.584 89.4324 14.584C89.1785 14.584 88.9564 14.6353 88.7659 14.7378C88.5755 14.8354 88.4168 14.9722 88.2899 15.1479C88.1629 15.3237 88.0677 15.5288 88.0042 15.7632C87.9407 15.9927 87.909 16.2441 87.909 16.5176ZM98.8263 19.2129V15.6826C98.8263 15.4287 98.7848 15.2114 98.7018 15.0308C98.6188 14.8452 98.4894 14.7012 98.3136 14.5986C98.1427 14.4961 97.9205 14.4448 97.6471 14.4448C97.4127 14.4448 97.2101 14.4863 97.0392 14.5693C96.8683 14.6475 96.7365 14.7622 96.6437 14.9136C96.5509 15.0601 96.5045 15.2334 96.5045 15.4336H94.3952C94.3952 15.0967 94.4733 14.7769 94.6295 14.4741C94.7858 14.1714 95.0128 13.9053 95.3107 13.6758C95.6085 13.4414 95.9625 13.2583 96.3727 13.1265C96.7877 12.9946 97.2516 12.9287 97.7643 12.9287C98.3795 12.9287 98.9264 13.0312 99.4049 13.2363C99.8834 13.4414 100.259 13.749 100.533 14.1592C100.811 14.5693 100.95 15.082 100.95 15.6973V19.0884C100.95 19.5229 100.977 19.8794 101.031 20.1577C101.085 20.4312 101.163 20.6704 101.265 20.8755V21H99.1339C99.0314 20.7852 98.9533 20.5166 98.8996 20.1943C98.8507 19.8672 98.8263 19.54 98.8263 19.2129ZM99.1046 16.1733L99.1193 17.3672H97.9401C97.6618 17.3672 97.4201 17.3989 97.215 17.4624C97.0099 17.5259 96.8414 17.6162 96.7096 17.7334C96.5778 17.8457 96.4801 17.9775 96.4166 18.1289C96.358 18.2803 96.3288 18.4463 96.3288 18.627C96.3288 18.8076 96.3703 18.9712 96.4533 19.1177C96.5363 19.2593 96.6559 19.3716 96.8121 19.4546C96.9684 19.5327 97.1515 19.5718 97.3615 19.5718C97.6788 19.5718 97.9547 19.5083 98.1891 19.3813C98.4235 19.2544 98.6041 19.0981 98.7311 18.9126C98.8629 18.7271 98.9313 18.5513 98.9362 18.3853L99.4928 19.2788C99.4147 19.479 99.3073 19.6865 99.1705 19.9014C99.0387 20.1162 98.8703 20.3188 98.6652 20.5093C98.4601 20.6948 98.2135 20.8486 97.9254 20.9707C97.6373 21.0879 97.2955 21.1465 96.9 21.1465C96.3971 21.1465 95.9406 21.0464 95.5304 20.8462C95.1251 20.6411 94.8029 20.3604 94.5636 20.0039C94.3292 19.6426 94.2121 19.2324 94.2121 18.7734C94.2121 18.3584 94.2902 17.9897 94.4464 17.6675C94.6027 17.3452 94.8322 17.0742 95.1349 16.8545C95.4425 16.6299 95.8258 16.4614 96.2848 16.3491C96.7438 16.2319 97.276 16.1733 97.8815 16.1733H99.1046Z" fill="white"/>
<defs>
<linearGradient id="paint0_linear_30_225" x1="129.599" y1="29.4617" x2="119.889" y2="-14.7754" gradientUnits="userSpaceOnUse">
<stop offset="0.1075" stop-color="#9039D0"/>
<stop offset="0.3871" stop-color="#FF1F51"/>
<stop offset="0.629" stop-color="#FF1F51"/>
<stop offset="0.6599" stop-color="#FF3648"/>
<stop offset="0.7139" stop-color="#FF593B"/>
<stop offset="0.765" stop-color="#FF7231"/>
<stop offset="0.8116" stop-color="#FF812B"/>
<stop offset="0.8495" stop-color="#FF8629"/>
</linearGradient>
<linearGradient id="paint1_linear_30_225" x1="30.5" y1="1" x2="30.5" y2="31" gradientUnits="userSpaceOnUse">
<stop stop-color="#FF8629"/>
<stop offset="1" stop-color="#FF1F51"/>
</linearGradient>
</defs>
</svg>
