<svg width="122" height="33" viewBox="0 0 122 33" fill="none" xmlns="http://www.w3.org/2000/svg">
<path d="M117 0H31V33H117C119.761 33 122 30.7614 122 28V5C122 2.23858 119.761 0 117 0Z" fill="#706956"/>
<path d="M5 0.5H37.5V32.5H5C2.51472 32.5 0.5 30.4853 0.5 28V5C0.5 2.51472 2.51472 0.5 5 0.5Z" fill="white" stroke="#6D6756"/>
<path d="M31.5645 21.2229C31.5645 24.0863 26.2086 26.42 19.5797 26.42C12.9512 26.42 7.59521 24.0865 7.59521 21.2229C7.59521 18.3593 12.9512 16.0261 19.5795 16.0261C26.2086 16.0261 31.5645 18.3593 31.5645 21.2229Z" fill="url(#paint0_radial_30_89)"/>
<path d="M11.2278 8.44301C11.2278 8.44301 13.1101 12.3407 17.5381 12.2345C26.7917 11.9959 28.4092 7.17036 28.6475 6.48083C28.8864 5.79153 29.2311 5.89747 29.3108 6.5338C32.3335 33.8971 8.39049 22.1511 7.54205 17.511C12.2881 16.1322 11.1481 13.454 11.1481 13.454L11.2278 8.44301Z" fill="url(#paint1_radial_30_89)"/>
<path d="M29.0595 5.87943C28.9395 5.86044 28.8251 5.92466 28.7408 6.02169C28.6562 6.11849 28.5854 6.2549 28.5221 6.43747C28.4019 6.78505 27.9544 8.12333 26.3888 9.42482C24.8232 10.7263 22.1389 11.9833 17.5351 12.1021C13.1858 12.2061 11.3469 8.3849 11.3469 8.3849L11.1043 7.88169L11.0949 8.44091L11.0152 13.48L11.026 13.5058C11.026 13.5058 11.2918 14.124 11.0002 14.92C10.7089 15.7157 9.85343 16.7012 7.50522 17.3833L7.39038 17.4168L7.41147 17.5349C7.52679 18.1642 8.01194 18.8666 8.75233 19.5887C9.49296 20.3106 10.4937 21.0484 11.6605 21.7164C13.9937 23.0518 16.9878 24.1075 19.8758 24.156C22.7635 24.2045 25.5542 23.233 27.4133 20.5201C29.2728 17.8072 30.2 13.3778 29.4425 6.51904V6.51716C29.4214 6.347 29.3825 6.20755 29.3241 6.09763C29.2655 5.98818 29.1798 5.89841 29.0595 5.87943ZM29.0183 6.14099C29.0241 6.14193 29.0541 6.15505 29.09 6.22255C29.1259 6.28982 29.1603 6.40185 29.1791 6.54833C29.9326 13.371 29.0009 17.7346 27.1946 20.3701C25.3883 23.0059 22.7063 23.9385 19.8802 23.8909C17.0541 23.8433 14.0928 22.8029 11.7926 21.4862C10.6423 20.8276 9.65749 20.1004 8.93796 19.3989C8.25827 18.7363 7.8453 18.1028 7.71687 17.5862C9.99804 16.8901 10.9316 15.8793 11.2494 15.0111C11.5587 14.166 11.3068 13.5126 11.281 13.4476L11.3532 8.90896C11.8984 9.82021 13.7773 12.4574 17.5414 12.3669C22.1912 12.2472 24.9423 10.9719 26.558 9.62872C28.1741 8.28552 28.6548 6.86638 28.7729 6.52443C28.8291 6.36247 28.8908 6.25302 28.9405 6.19583C28.9904 6.13865 29.0124 6.14005 29.0183 6.14099Z" fill="#2E3436"/>
<path d="M14.7275 20.0032C19.1555 20.8779 21.4093 20.0564 22.7084 19.0489C22.3639 18.5979 21.754 18.0945 21.754 18.0945C21.754 18.0945 23.292 18.5185 23.8486 19.2342C24.379 19.9235 24.0605 20.3745 23.9016 21.2494C23.5833 20.4539 23.0002 20.1621 22.9205 19.8441C21.754 21.5145 18.8108 21.435 14.7275 20.0032Z" fill="url(#paint2_linear_30_89)"/>
<path opacity="0.185" d="M28.8066 7.57202L28.561 7.97632C28.1968 8.57491 27.6486 9.27944 26.8383 9.98608C26.8379 9.98608 26.8376 9.98655 26.8372 9.98702C25.1391 11.3966 22.2828 12.6856 17.5618 12.7913H17.5608C14.821 12.8696 13.0871 11.5456 12.0148 10.3686L11.7931 10.1253L11.704 13.419L11.7104 13.4394C11.7896 13.7028 11.9649 14.2918 11.66 15.1316C11.3356 16.0048 10.3095 16.9714 8.47552 17.679L8.34357 17.7298L8.40286 17.858C8.56154 18.2021 8.73685 18.5745 9.2513 19.0627L9.25271 19.0639C9.25341 19.0644 9.25318 19.0648 9.25388 19.0653C9.92771 19.7389 10.8891 20.4589 12.0104 21.0997C14.254 22.3817 17.1598 23.3966 19.8952 23.4502C22.6299 23.5037 25.1258 22.6079 26.8479 20.105L26.8484 20.1041L26.8493 20.1031C28.3857 17.7851 29.2587 13.9121 28.8064 8.03515L28.8066 7.57202ZM28.5516 8.44226C28.9283 14.0483 28.0786 17.768 26.6281 19.9566C24.9565 22.3841 22.5741 23.2374 19.9006 23.1851C17.2273 23.1324 14.3522 22.1321 12.1421 20.8691C11.0372 20.2376 10.0904 19.527 9.4388 18.8755L9.43763 18.8741L9.43622 18.8731C9.00075 18.4606 8.84677 18.166 8.70474 17.8639C10.4926 17.1448 11.5531 16.1801 11.9086 15.2237L11.9091 15.2232V15.2227C12.2326 14.3328 12.053 13.6723 11.9701 13.3937L12.0411 10.7579C13.1583 11.9112 14.9028 13.1323 17.5686 13.0562C22.3369 12.9495 25.2598 11.6417 27.0092 10.1888L27.0106 10.1879L27.0115 10.1869C27.5999 9.6761 28.1176 9.08942 28.5516 8.44226Z" fill="url(#paint3_linear_30_89)"/>
<path d="M16.0267 14.3024C16.0267 15.7876 14.8337 16.9806 13.3487 16.9806C12.9967 16.9816 12.648 16.913 12.3226 16.7788C11.9972 16.6445 11.7016 16.4473 11.4527 16.1984C11.2038 15.9495 11.0066 15.6539 10.8724 15.3285C10.7382 15.0031 10.6697 14.6544 10.6707 14.3024C10.6697 13.9504 10.7383 13.6017 10.8726 13.2764C11.0068 12.951 11.204 12.6554 11.4529 12.4066C11.7017 12.1577 11.9974 11.9605 12.3227 11.8262C12.6481 11.692 12.9967 11.6234 13.3487 11.6244C14.8335 11.6244 16.0267 12.8441 16.0267 14.3024Z" fill="url(#paint4_radial_30_89)"/>
<path d="M13.3489 11.5208C12.9834 11.52 12.6214 11.5915 12.2835 11.731C11.9457 11.8705 11.6387 12.0753 11.3803 12.3338C11.1218 12.5922 10.9169 12.8991 10.7773 13.237C10.6377 13.5748 10.5662 13.9368 10.5669 14.3023C10.5669 15.8429 11.8081 17.0844 13.3489 17.0844C13.7144 17.085 14.0765 17.0135 14.4143 16.874C14.7521 16.7344 15.059 16.5295 15.3174 16.271C15.5758 16.0125 15.7806 15.7055 15.9201 15.3677C16.0596 15.0299 16.131 14.6678 16.1303 14.3023C16.1303 12.7876 14.8904 11.5208 13.3489 11.5208ZM13.3489 11.7282C14.7767 11.7282 15.9231 12.9008 15.9231 14.3023C15.9244 14.6407 15.8587 14.976 15.7298 15.2889C15.6009 15.6018 15.4113 15.8861 15.172 16.1254C14.9327 16.3647 14.6484 16.5543 14.3355 16.6832C14.0227 16.8121 13.6873 16.8778 13.3489 16.8765C13.0105 16.8778 12.6752 16.8121 12.3622 16.6832C12.0493 16.5543 11.765 16.3648 11.5257 16.1255C11.2864 15.8862 11.0968 15.6019 10.9679 15.289C10.839 14.9761 10.7733 14.6407 10.7746 14.3023C10.7733 13.9639 10.839 13.6286 10.9679 13.3157C11.0969 13.0028 11.2864 12.7185 11.5258 12.4792C11.7651 12.2399 12.0494 12.0504 12.3623 11.9215C12.6752 11.7926 13.0105 11.7269 13.3489 11.7282Z" fill="#888A85"/>
<path d="M10.7239 15.3102C12.023 17.1132 12.023 19.2875 10.7504 20.2157C9.47773 21.1436 7.40937 20.4275 6.10999 18.6247C4.81109 16.8214 4.81109 14.6474 6.08374 13.7193C7.3564 12.8178 9.42452 13.5339 10.7239 15.3102Z" fill="url(#paint5_radial_30_89)"/>
<path d="M7.15037 13.2061C6.73623 13.2401 6.34599 13.3711 6.00732 13.6111L6.00638 13.6116L6.00568 13.6121C5.32951 14.1052 4.9967 14.9269 5.00021 15.844C5.00349 16.7611 5.33818 17.7799 6.0024 18.7022C6.66662 19.624 7.52818 20.2709 8.39701 20.5697C9.26584 20.8683 10.1515 20.8163 10.8284 20.3224C11.5046 19.8296 11.8376 19.0076 11.8344 18.0905C11.8308 17.1891 11.499 16.1907 10.8565 15.281V15.267L10.8315 15.233L10.831 15.2318C10.1665 14.3236 9.30521 13.6835 8.43685 13.3849C8.00255 13.2357 7.56474 13.1721 7.15037 13.2061ZM7.17521 13.4693C7.54716 13.4393 7.9463 13.4967 8.35084 13.6357C9.15943 13.9139 9.98162 14.52 10.6163 15.3877L10.6168 15.3882C11.2512 16.2689 11.5655 17.2388 11.5688 18.0914C11.5719 18.9446 11.2688 19.6735 10.6721 20.1085C10.0768 20.5428 9.29162 20.5967 8.48349 20.3187C7.67513 20.0407 6.85248 19.4281 6.21755 18.5468C5.58263 17.6656 5.26834 16.696 5.26505 15.8431C5.26177 14.9911 5.56505 14.2627 6.16037 13.8274L6.16107 13.827C6.45849 13.6167 6.80349 13.4993 7.17521 13.4693Z" fill="black"/>
<path d="M15.2844 14.7005C15.2844 15.4163 14.701 15.9729 14.0117 15.9729C13.2957 15.9729 12.7391 15.3896 12.7391 14.7003C12.7391 14.011 13.3224 13.4276 14.0117 13.4276C14.701 13.4276 15.2844 13.9845 15.2844 14.7005Z" fill="#2E3436"/>
<path d="M14.0115 13.2722C13.2345 13.2722 12.5832 13.9231 12.5832 14.7003C12.5832 15.4732 13.2113 16.1285 14.0119 16.1285C14.7849 16.1285 15.44 15.5007 15.44 14.7003C15.44 13.9001 14.7847 13.2722 14.0115 13.2722ZM14.0115 13.5835C14.6171 13.5835 15.1287 14.0691 15.1287 14.7003C15.129 14.847 15.1003 14.9923 15.0442 15.128C14.9882 15.2636 14.906 15.3868 14.8022 15.4906C14.6985 15.5944 14.5752 15.6766 14.4396 15.7327C14.304 15.7888 14.1587 15.8175 14.0119 15.8173C13.8652 15.8176 13.7197 15.7889 13.5841 15.7328C13.4484 15.6768 13.3251 15.5945 13.2213 15.4908C13.1175 15.387 13.0352 15.2637 12.9791 15.1281C12.923 14.9924 12.8942 14.8471 12.8944 14.7003C12.8944 14.0986 13.4101 13.5835 14.0115 13.5835Z" fill="black"/>
<path opacity="0.281" d="M7.04704 13.9194C6.75173 13.9461 6.4904 14.0418 6.2661 14.1967H6.25251L6.21735 14.2225C6.21735 14.2225 6.21735 14.2232 6.21688 14.2232C5.7786 14.5454 5.52571 15.1255 5.5536 15.898V15.8985C5.58079 16.6428 5.85524 17.5421 6.48196 18.3601C7.08149 19.1504 7.86759 19.6956 8.59017 19.9178C9.30454 20.1378 9.91603 20.0856 10.3789 19.7382C10.846 19.3883 11.0687 18.7832 11.0687 18.0411C11.0687 17.2893 10.7666 16.3921 10.1668 15.6013C9.56845 14.8126 8.8079 14.2656 8.08485 14.0432H8.08345C7.7129 13.9335 7.36274 13.8908 7.04704 13.9194ZM7.07563 14.1824C7.34985 14.1582 7.66251 14.195 8.00728 14.2972C8.66259 14.4988 9.38681 15.0123 9.95517 15.7616C10.5221 16.5088 10.8034 17.3614 10.8034 18.0411C10.8034 18.7307 10.6018 19.2397 10.2198 19.5261C9.8347 19.8149 9.33243 19.8688 8.66821 19.6644C8.01149 19.4624 7.26032 18.9475 6.69313 18.1998V18.1993H6.69267C6.10017 17.4266 5.84376 16.5758 5.81845 15.8891C5.7929 15.178 6.01767 14.6992 6.37321 14.4376L6.37556 14.4357C6.5661 14.2928 6.80142 14.2068 7.07563 14.1824Z" fill="url(#paint6_linear_30_89)"/>
<path d="M8.23134 15.5222C8.23134 16.2912 7.70118 16.9008 7.06485 16.9008C6.42829 16.9008 5.89813 16.2914 5.89813 15.5222C5.89813 14.7535 6.42852 14.1434 7.06485 14.1434C7.72766 14.1434 8.23134 14.7532 8.23134 15.5222ZM14.3827 14.1171C14.3837 14.2358 14.3611 14.3534 14.3162 14.4632C14.2713 14.573 14.2049 14.6728 14.121 14.7567C14.0372 14.8406 13.9374 14.9069 13.8276 14.9519C13.7178 14.9968 13.6002 15.0195 13.4816 15.0185C13.3629 15.0195 13.2452 14.9969 13.1354 14.952C13.0255 14.907 12.9257 14.8407 12.8418 14.7568C12.7578 14.6729 12.6914 14.5731 12.6464 14.4633C12.6014 14.3535 12.5788 14.2358 12.5797 14.1171C12.5787 13.9984 12.6013 13.8807 12.6463 13.7709C12.6913 13.661 12.7577 13.5612 12.8416 13.4773C12.9256 13.3933 13.0254 13.327 13.1353 13.282C13.2451 13.2371 13.3629 13.2145 13.4816 13.2155C13.6002 13.2145 13.7179 13.2371 13.8278 13.2821C13.9376 13.327 14.0374 13.3934 14.1213 13.4774C14.2052 13.5613 14.2715 13.6611 14.3165 13.7709C14.3614 13.8808 14.3838 13.9985 14.3827 14.1171Z" fill="white"/>
<path d="M22.0191 14.5944C22.0191 16.3177 20.614 17.7228 18.8902 17.7228C17.1671 17.7228 15.7618 16.3177 15.7618 14.5944C15.7618 12.871 17.1404 11.4655 18.8637 11.4655C20.5873 11.4655 22.0191 12.871 22.0191 14.5944Z" fill="url(#paint7_radial_30_89)"/>
<path d="M18.8638 11.3773C17.0924 11.3773 15.6735 12.8234 15.6735 14.5941C15.6735 16.3655 17.1189 17.8114 18.8905 17.8114C20.6621 17.8114 22.1078 16.3655 22.1078 14.5941C22.1078 12.8218 20.6354 11.3773 18.8638 11.3773ZM18.8638 11.5538C20.5393 11.5538 21.9306 12.9197 21.9306 14.5941C21.9306 16.2694 20.5658 17.6342 18.8905 17.6342C17.2152 17.6342 15.8502 16.2694 15.8502 14.5941C15.8502 12.9179 17.1885 11.5538 18.8638 11.5538Z" fill="#888A85"/>
<path d="M21.1175 15.0718C21.1175 15.8935 20.4547 16.5828 19.6065 16.5828C18.7843 16.5828 18.0948 15.92 18.0948 15.0718C18.0948 14.2229 18.7581 13.5601 19.6063 13.5601C20.4282 13.5601 21.1175 14.2231 21.1175 15.0718Z" fill="#2E3436"/>
<path d="M19.606 13.4276C18.6887 13.4276 17.9623 14.1539 17.9623 15.0718C17.9623 15.9919 18.713 16.7154 19.6065 16.7154C20.5264 16.7154 21.2499 15.9647 21.2499 15.0718V15.0713C21.2499 14.1509 20.4992 13.4276 19.606 13.4276ZM19.606 13.6925C20.3567 13.6925 20.9851 14.2946 20.9851 15.0713V15.0718C20.9851 15.822 20.3827 16.4503 19.6065 16.4503C18.8555 16.4503 18.2272 15.848 18.2272 15.0718C18.2272 14.292 18.8267 13.6925 19.606 13.6925Z" fill="black"/>
<path d="M20.0837 14.3558C20.0837 14.9392 19.6065 15.3897 19.0496 15.3897C18.4928 15.3897 18.0156 14.9125 18.0156 14.3558C18.0156 13.7722 18.4928 13.3218 19.0494 13.3218C19.6063 13.3218 20.0837 13.799 20.0837 14.3558Z" fill="white"/>
<path d="M28.4295 23.9472L29.0382 22.7336C26.7732 21.0749 22.6093 19.8751 22.6093 19.8751C21.8909 19.5362 21.6565 20.1897 22.1637 20.6134C22.1534 20.6165 25.7173 23.1735 28.4295 23.9472Z" fill="url(#paint8_linear_30_89)"/>
<path d="M21.7902 20.3106C21.8345 20.4453 21.9277 20.578 22.0585 20.6935V20.694C22.0585 20.694 22.0705 20.7081 22.073 20.7104C22.0763 20.7134 22.0773 20.7139 22.0787 20.7151L22.082 20.7181L22.0927 20.7266L22.1244 20.75C22.1516 20.7697 22.1909 20.7981 22.2423 20.8344C22.3449 20.9066 22.4945 21.0102 22.6829 21.1367C23.1827 21.4725 23.6911 21.7955 24.2075 22.1052C25.441 22.8444 27.0146 23.6816 28.393 24.0748L28.4987 24.1048L28.5479 24.0066L29.207 22.6927L29.1165 22.6266C26.8138 20.9398 22.6461 19.7476 22.6461 19.7476L22.666 19.7551C22.4691 19.662 22.2934 19.6306 22.1424 19.6571C21.9915 19.6836 21.8684 19.7762 21.808 19.8999C21.7475 20.0239 21.743 20.1676 21.7902 20.3106ZM22.0466 20.2327C22.0173 20.1444 22.0215 20.0663 22.0461 20.0164C22.0705 19.9663 22.1091 19.9323 22.1881 19.9184C22.2673 19.9044 22.3904 19.9184 22.5526 19.9951L22.5622 19.9998L22.5723 20.0026C22.5723 20.0026 26.6199 21.181 28.8664 22.7802L28.363 23.7838C27.0516 23.3914 25.5373 22.5927 24.3439 21.8773C23.8315 21.57 23.327 21.2496 22.831 20.9164C22.6458 20.792 22.4623 20.665 22.2805 20.5356C22.2713 20.5288 22.2623 20.522 22.2533 20.5152L22.2519 20.5142L22.2486 20.5116C22.1384 20.4195 22.0759 20.3209 22.0466 20.2327Z" fill="#673907"/>
<path d="M31.3341 25.0689L31.6597 24.3435L29.1373 22.727L28.9402 22.7064L28.858 22.4272C28.4881 22.6597 27.9638 23.5112 28.104 23.987L28.377 23.8839L28.5219 24.0322L31.3341 25.0689Z" fill="url(#paint9_linear_30_89)"/>
<path d="M28.0171 24.1616L28.3428 24.0388L28.4481 24.1466L31.4042 25.2362L31.4551 25.1232L31.8275 24.2936L29.1824 22.5983L29.0424 22.5836L28.9358 22.2217L28.7872 22.3147C28.5646 22.4549 28.341 22.7364 28.1727 23.0539C28.0042 23.3715 27.8879 23.7231 27.9767 24.0245L28.0171 24.1616ZM28.2367 23.7953C28.239 23.6186 28.2896 23.3994 28.4068 23.1782C28.5079 22.9899 28.6376 22.8185 28.7912 22.67L28.8381 22.8289L29.0924 22.8554L31.4919 24.3934L31.2638 24.9015L28.596 23.9181L28.4115 23.7292L28.2367 23.7953Z" fill="#888A85"/>
<path d="M29.5716 23.6455C29.5647 23.6615 29.5611 23.6787 29.5608 23.6962C29.5606 23.7136 29.5637 23.7309 29.5702 23.7471C29.5766 23.7633 29.5862 23.778 29.5984 23.7905C29.6105 23.803 29.625 23.813 29.641 23.8199L31.3144 24.5404C31.3304 24.5473 31.3477 24.5509 31.3651 24.5512C31.3825 24.5514 31.3998 24.5483 31.416 24.5418C31.4322 24.5354 31.447 24.5258 31.4595 24.5136C31.472 24.5015 31.4819 24.487 31.4888 24.471C31.4957 24.455 31.4994 24.4378 31.4996 24.4204C31.4999 24.4029 31.4967 24.3856 31.4903 24.3694C31.4838 24.3532 31.4743 24.3385 31.4621 24.326C31.4499 24.3135 31.4355 24.3035 31.4194 24.2966L29.746 23.5761C29.73 23.5692 29.7128 23.5656 29.6954 23.5653C29.6779 23.5651 29.6606 23.5683 29.6444 23.5747C29.6283 23.5811 29.6135 23.5907 29.601 23.6029C29.5885 23.615 29.5785 23.6295 29.5716 23.6455Z" fill="white"/>
<path d="M35 28.1239C34.2132 25.4562 33.9331 23.3246 31.8763 23.5151C30.2131 23.6684 30.1028 26.0389 31.8158 26.7027C33.4651 27.3402 35 28.1239 35 28.1239Z" fill="url(#paint10_radial_30_89)"/>
<path opacity="0.528" d="M31.9981 23.7378C32.1736 23.6874 32.3618 23.7081 32.5222 23.7954C32.6825 23.8826 32.8021 24.0295 32.855 24.2042C32.9055 24.3797 32.8848 24.568 32.7975 24.7284C32.7103 24.8888 32.5634 25.0084 32.3886 25.0613C32.2131 25.1118 32.0248 25.0911 31.8644 25.0039C31.704 24.9166 31.5844 24.7697 31.5315 24.5949C31.481 24.4194 31.5017 24.2311 31.589 24.0707C31.6764 23.9103 31.8233 23.7907 31.9981 23.7378Z" fill="white"/>
<path d="M28.9894 22.7593C29.0478 22.7416 29.1091 22.7357 29.1698 22.7419C29.2305 22.7481 29.2894 22.7663 29.343 22.7955C29.3966 22.8246 29.4438 22.8641 29.482 22.9117C29.5201 22.9593 29.5485 23.0141 29.5653 23.0727C29.583 23.1311 29.5889 23.1924 29.5827 23.2531C29.5765 23.3138 29.5583 23.3727 29.5291 23.4263C29.4999 23.4799 29.4603 23.5271 29.4127 23.5653C29.3651 23.6034 29.3104 23.6318 29.2517 23.6486C29.1933 23.6662 29.132 23.6721 29.0713 23.6659C29.0107 23.6597 28.9518 23.6414 28.8983 23.6122C28.8447 23.5831 28.7975 23.5435 28.7593 23.4959C28.7212 23.4483 28.6929 23.3936 28.6761 23.335C28.6584 23.2766 28.6525 23.2153 28.6587 23.1546C28.6649 23.094 28.6831 23.0351 28.7123 22.9816C28.7415 22.928 28.781 22.8808 28.8286 22.8426C28.8761 22.8045 28.9308 22.7762 28.9894 22.7593Z" fill="white"/>
<path opacity="0.428" d="M34.0121 26.5271C34.0121 26.5271 33.7522 25.5697 33.1897 25.0724C32.9912 24.8949 33.2394 24.6306 33.4323 24.8661C33.8347 25.3543 34.0121 26.5271 34.0121 26.5271Z" fill="url(#paint11_linear_30_89)"/>
<path d="M19.5003 21.0904C20.4812 21.1965 21.3826 20.9047 21.7273 20.7723C21.7805 20.4008 22.0721 19.7118 23.0797 19.6588L22.7351 19.049C22.7351 19.049 21.4358 19.9236 20.0569 20.189L19.5003 21.0904Z" fill="url(#paint12_linear_30_89)"/>
<path d="M66.9209 16.4263V20.6523C66.7549 20.8525 66.4986 21.0698 66.1519 21.3042C65.8052 21.5337 65.3584 21.7314 64.8115 21.8975C64.2647 22.0635 63.603 22.1465 62.8267 22.1465C62.1382 22.1465 61.5108 22.0342 60.9444 21.8096C60.3779 21.5801 59.8897 21.2456 59.4795 20.8062C59.0742 20.3667 58.7617 19.8296 58.542 19.1948C58.3223 18.5552 58.2124 17.8252 58.2124 17.0049V16.3384C58.2124 15.5181 58.3174 14.7881 58.5274 14.1484C58.7422 13.5088 59.0474 12.9692 59.4429 12.5298C59.8384 12.0903 60.3096 11.7559 60.8565 11.5264C61.4033 11.2969 62.0112 11.1821 62.6802 11.1821C63.6079 11.1821 64.3696 11.3335 64.9654 11.6362C65.5611 11.9341 66.0152 12.3491 66.3277 12.8813C66.645 13.4087 66.8404 14.0142 66.9136 14.6978H64.7822C64.7285 14.3364 64.626 14.0215 64.4746 13.7529C64.3233 13.4844 64.106 13.2744 63.8228 13.123C63.5445 12.9717 63.1831 12.896 62.7388 12.896C62.3726 12.896 62.0454 12.9717 61.7573 13.123C61.4741 13.2695 61.2349 13.4868 61.0396 13.7749C60.8443 14.063 60.6953 14.4194 60.5928 14.8442C60.4903 15.269 60.439 15.7622 60.439 16.3237V17.0049C60.439 17.5615 60.4927 18.0547 60.6001 18.4844C60.7075 18.9092 60.8662 19.2681 61.0762 19.561C61.291 19.8491 61.5547 20.0664 61.8672 20.2129C62.1797 20.3594 62.5435 20.4326 62.9585 20.4326C63.3052 20.4326 63.5933 20.4033 63.8228 20.3447C64.0571 20.2861 64.2451 20.2153 64.3867 20.1323C64.5332 20.0444 64.6455 19.9614 64.7237 19.8833V17.9937H62.7168V16.4263H66.9209ZM71.2098 11.3359V22H69.0199V11.3359H71.2098ZM74.4513 11.3359H76.3117L79.0509 19.1655L81.7902 11.3359H83.6505L79.798 22H78.3039L74.4513 11.3359ZM73.4479 11.3359H75.3009L75.6379 18.9678V22H73.4479V11.3359ZM82.8009 11.3359H84.6613V22H82.464V18.9678L82.8009 11.3359ZM90.9204 18.1987H88.2031V16.4849H90.9204C91.3403 16.4849 91.6821 16.4165 91.9458 16.2798C92.2095 16.1382 92.4023 15.9429 92.5244 15.6938C92.6465 15.4448 92.7075 15.1641 92.7075 14.8516C92.7075 14.5342 92.6465 14.2388 92.5244 13.9653C92.4023 13.6919 92.2095 13.4722 91.9458 13.3062C91.6821 13.1401 91.3403 13.0571 90.9204 13.0571H88.9648V22H86.7676V11.3359H90.9204C91.7554 11.3359 92.4707 11.4873 93.0664 11.79C93.667 12.0879 94.126 12.5005 94.4433 13.0278C94.7607 13.5552 94.9194 14.1582 94.9194 14.8369C94.9194 15.5254 94.7607 16.1211 94.4433 16.624C94.126 17.127 93.667 17.5151 93.0664 17.7886C92.4707 18.062 91.7554 18.1987 90.9204 18.1987Z" fill="white"/>
<path d="M117 0H5C2.23858 0 0 2.23858 0 5V28C0 30.7614 2.23858 33 5 33H117C119.761 33 122 30.7614 122 28V5C122 2.23858 119.761 0 117 0Z" fill="url(#paint13_linear_30_89)"/>
<defs>
<radialGradient id="paint0_radial_30_89" cx="0" cy="0" r="1" gradientUnits="userSpaceOnUse" gradientTransform="translate(19.5852 21.2314) scale(11.9735 5.20845)">
<stop/>
<stop offset="1" stop-opacity="0"/>
</radialGradient>
<radialGradient id="paint1_radial_30_89" cx="0" cy="0" r="1" gradientUnits="userSpaceOnUse" gradientTransform="translate(15.2908 14.9048) scale(22.3682 16.3628)">
<stop stop-color="#857C63"/>
<stop offset="1" stop-color="#221F19"/>
</radialGradient>
<linearGradient id="paint2_linear_30_89" x1="23.2549" y1="19.6033" x2="15.948" y2="21.0531" gradientUnits="userSpaceOnUse">
<stop/>
<stop offset="1" stop-opacity="0"/>
</linearGradient>
<linearGradient id="paint3_linear_30_89" x1="16.8644" y1="10.9359" x2="32.3783" y2="28.5466" gradientUnits="userSpaceOnUse">
<stop stop-color="white"/>
<stop offset="1" stop-color="white" stop-opacity="0"/>
</linearGradient>
<radialGradient id="paint4_radial_30_89" cx="0" cy="0" r="1" gradientUnits="userSpaceOnUse" gradientTransform="translate(13.3835 12.4314) scale(3.88601)">
<stop stop-color="white"/>
<stop offset="1" stop-color="#B9B9B0"/>
</radialGradient>
<radialGradient id="paint5_radial_30_89" cx="0" cy="0" r="1" gradientUnits="userSpaceOnUse" gradientTransform="translate(7.3012 15.6151) rotate(-29.9923) scale(2.91671 3.40654)">
<stop stop-color="#5B676B"/>
<stop offset="1" stop-color="#141718"/>
</radialGradient>
<linearGradient id="paint6_linear_30_89" x1="6.77558" y1="14.8427" x2="9.68344" y2="19.0324" gradientUnits="userSpaceOnUse">
<stop stop-color="white"/>
<stop offset="1" stop-color="white" stop-opacity="0"/>
</linearGradient>
<radialGradient id="paint7_radial_30_89" cx="0" cy="0" r="1" gradientUnits="userSpaceOnUse" gradientTransform="translate(18.8915 12.3944) scale(4.56176)">
<stop stop-color="white"/>
<stop offset="1" stop-color="#B9B9B0"/>
</radialGradient>
<linearGradient id="paint8_linear_30_89" x1="25.7781" y1="20.7903" x2="24.7733" y2="21.6642" gradientUnits="userSpaceOnUse">
<stop stop-color="#6E3D09"/>
<stop offset="0.242" stop-color="#EA8113"/>
<stop offset="0.621" stop-color="#5C3307"/>
<stop offset="1" stop-color="#E07C12"/>
</linearGradient>
<linearGradient id="paint9_linear_30_89" x1="29.665" y1="24.4577" x2="30.0679" y2="24.0849" gradientUnits="userSpaceOnUse">
<stop stop-color="#BDBDBD"/>
<stop offset="0.333" stop-color="#E2E2E2"/>
<stop offset="0.667" stop-color="#A3A3A3"/>
<stop offset="1" stop-color="#DDDDDD"/>
</linearGradient>
<radialGradient id="paint10_radial_30_89" cx="0" cy="0" r="1" gradientUnits="userSpaceOnUse" gradientTransform="translate(31.4591 25.2581) rotate(0.410701) scale(1.2632 1.28931)">
<stop stop-color="#696969"/>
<stop offset="1"/>
</radialGradient>
<linearGradient id="paint11_linear_30_89" x1="33.1605" y1="24.7288" x2="32.9056" y2="24.1227" gradientUnits="userSpaceOnUse">
<stop stop-color="white"/>
<stop offset="1" stop-color="white" stop-opacity="0"/>
</linearGradient>
<linearGradient id="paint12_linear_30_89" x1="21.5304" y1="20.1124" x2="20.3272" y2="20.4022" gradientUnits="userSpaceOnUse">
<stop/>
<stop offset="1" stop-opacity="0"/>
</linearGradient>
<linearGradient id="paint13_linear_30_89" x1="0" y1="0" x2="0" y2="33" gradientUnits="userSpaceOnUse">
<stop stop-color="#BBBBBB" stop-opacity="0.1"/>
<stop offset="1" stop-opacity="0.1"/>
</linearGradient>
</defs>
</svg>
