<svg width="147" height="32" viewBox="0 0 147 32" fill="none" xmlns="http://www.w3.org/2000/svg">
<path d="M142 0H31V32H142C144.761 32 147 29.7614 147 27V5C147 2.23858 144.761 0 142 0Z" fill="#100D26"/>
<path d="M5 0.5H34.5V31.5H5C2.51472 31.5 0.5 29.4853 0.5 27V5C0.5 2.51472 2.51472 0.5 5 0.5Z" fill="white" stroke="#161329"/>
<path d="M7.57318 5.85754H28.4268V26.1424H7.57318V5.85754Z" fill="#0C0824"/>
<path d="M7.57319 5.85761H28.4268V26.1425H7.57319V5.85761ZM6.625 27.0907H29.375V4.90942H6.625V27.0907ZM21.9626 14.0094C21.2134 14.0094 20.9575 14.3889 20.9575 14.7017C20.9575 15.0429 21.1281 15.2802 22.1332 15.801C23.6217 16.5217 24.0832 17.2131 24.0832 18.2279C24.0832 19.7449 22.927 20.5598 21.3629 20.5598C20.6917 20.5847 20.0245 20.4452 19.4194 20.1535C19.3528 20.1251 19.3439 20.078 19.3439 20.0016V18.6065C19.3439 18.5115 19.391 18.483 19.4576 18.531C20.0259 18.8964 20.6873 19.0905 21.3629 19.09C22.1121 19.09 22.4249 18.7772 22.4249 18.3506C22.4249 18.0094 22.2071 17.7063 21.2492 17.2131C19.9029 16.5688 19.3439 15.9131 19.3439 14.8244C19.3439 13.6015 20.301 12.5875 21.9601 12.5875C22.5376 12.5627 23.1143 12.6531 23.6566 12.8532C23.6879 12.8735 23.7131 12.9017 23.7298 12.935C23.7465 12.9683 23.7541 13.0054 23.7517 13.0425V14.3425C23.7517 14.4181 23.7046 14.466 23.6095 14.4376C23.1083 14.1491 22.5383 14.0017 21.9601 14.011L21.9626 14.0094ZM13.8099 15.1372C14.0277 15.1559 14.1983 15.1559 14.5778 15.1559C15.6868 15.1559 16.7292 14.7675 16.7292 13.2603C16.7292 12.0562 15.9801 11.45 14.7199 11.45C14.3405 11.45 13.9806 11.4687 13.8099 11.4785V15.1372ZM12.1224 10.0997C12.1224 10.033 12.2548 9.98592 12.3312 9.98592C13.146 9.95263 13.9614 9.93692 14.7768 9.9388C17.4028 9.9388 18.4266 11.3794 18.4266 13.2189C18.4266 15.6263 16.6821 16.6598 14.5404 16.6598C14.1804 16.6598 14.0569 16.6411 13.801 16.6411V20.2811C13.801 20.3567 13.7726 20.3949 13.6873 20.3949H12.2369C12.1614 20.3949 12.1232 20.3664 12.1232 20.2811V10.1037L12.1224 10.0997Z" fill="#31C5F0"/>
<path d="M56.156 18.1987H53.4387V16.4849H56.156C56.5759 16.4849 56.9177 16.4165 57.1814 16.2798C57.445 16.1382 57.6379 15.9429 57.76 15.6938C57.882 15.4448 57.9431 15.1641 57.9431 14.8516C57.9431 14.5342 57.882 14.2388 57.76 13.9653C57.6379 13.6919 57.445 13.4722 57.1814 13.3062C56.9177 13.1401 56.5759 13.0571 56.156 13.0571H54.2004V22H52.0031V11.3359H56.156C56.9909 11.3359 57.7063 11.4873 58.302 11.79C58.9026 12.0879 59.3615 12.5005 59.6789 13.0278C59.9963 13.5552 60.155 14.1582 60.155 14.8369C60.155 15.5254 59.9963 16.1211 59.6789 16.624C59.3615 17.127 58.9026 17.5151 58.302 17.7886C57.7063 18.062 56.9909 18.1987 56.156 18.1987ZM63.7774 10.75V22H61.668V10.75H63.7774ZM63.4771 17.7593H62.8985C62.9034 17.2075 62.9766 16.6997 63.1182 16.2358C63.2598 15.7671 63.4624 15.3618 63.7261 15.02C63.9898 14.6733 64.3047 14.4048 64.6709 14.2144C65.042 14.0239 65.4522 13.9287 65.9014 13.9287C66.292 13.9287 66.646 13.9849 66.9634 14.0972C67.2857 14.2046 67.5616 14.3804 67.7911 14.6245C68.0254 14.8638 68.2061 15.1787 68.333 15.5693C68.46 15.96 68.5235 16.4336 68.5235 16.9902V22H66.3995V16.9756C66.3995 16.624 66.3482 16.3481 66.2456 16.1479C66.148 15.9429 66.0039 15.7988 65.8135 15.7158C65.628 15.6279 65.3985 15.584 65.125 15.584C64.8223 15.584 64.5635 15.6401 64.3487 15.7524C64.1387 15.8647 63.9703 16.021 63.8433 16.2212C63.7163 16.4165 63.6236 16.646 63.565 16.9097C63.5064 17.1733 63.4771 17.4565 63.4771 17.7593ZM69.9706 18.1182V17.9644C69.9706 17.3833 70.0536 16.8486 70.2196 16.3604C70.3856 15.8672 70.6273 15.4399 70.9447 15.0786C71.2621 14.7173 71.6527 14.4365 72.1166 14.2363C72.5804 14.0312 73.1127 13.9287 73.7132 13.9287C74.3138 13.9287 74.8485 14.0312 75.3172 14.2363C75.786 14.4365 76.1791 14.7173 76.4964 15.0786C76.8187 15.4399 77.0629 15.8672 77.2289 16.3604C77.3949 16.8486 77.4779 17.3833 77.4779 17.9644V18.1182C77.4779 18.6943 77.3949 19.229 77.2289 19.7222C77.0629 20.2104 76.8187 20.6377 76.4964 21.0039C76.1791 21.3652 75.7884 21.646 75.3246 21.8462C74.8607 22.0464 74.3285 22.1465 73.7279 22.1465C73.1273 22.1465 72.5926 22.0464 72.1239 21.8462C71.66 21.646 71.267 21.3652 70.9447 21.0039C70.6273 20.6377 70.3856 20.2104 70.2196 19.7222C70.0536 19.229 69.9706 18.6943 69.9706 18.1182ZM72.0799 17.9644V18.1182C72.0799 18.4502 72.1092 18.7603 72.1678 19.0483C72.2264 19.3364 72.3192 19.5903 72.4462 19.8101C72.578 20.0249 72.7489 20.1934 72.9588 20.3154C73.1688 20.4375 73.4252 20.4985 73.7279 20.4985C74.0209 20.4985 74.2723 20.4375 74.4823 20.3154C74.6922 20.1934 74.8607 20.0249 74.9877 19.8101C75.1146 19.5903 75.2074 19.3364 75.266 19.0483C75.3295 18.7603 75.3612 18.4502 75.3612 18.1182V17.9644C75.3612 17.6421 75.3295 17.3394 75.266 17.0562C75.2074 16.7681 75.1122 16.5142 74.9803 16.2944C74.8534 16.0698 74.6849 15.894 74.475 15.7671C74.265 15.6401 74.0111 15.5767 73.7132 15.5767C73.4154 15.5767 73.1615 15.6401 72.9515 15.7671C72.7464 15.894 72.578 16.0698 72.4462 16.2944C72.3192 16.5142 72.2264 16.7681 72.1678 17.0562C72.1092 17.3394 72.0799 17.6421 72.0799 17.9644ZM82.8361 14.0752V15.5693H78.2219V14.0752H82.8361ZM79.3644 12.1196H81.4738V19.6123C81.4738 19.8418 81.5031 20.0176 81.5617 20.1396C81.6252 20.2617 81.7179 20.3472 81.84 20.396C81.9621 20.4399 82.1159 20.4619 82.3014 20.4619C82.4333 20.4619 82.5505 20.457 82.653 20.4473C82.7604 20.4326 82.8508 20.418 82.924 20.4033L82.9313 21.9561C82.7507 22.0146 82.5554 22.061 82.3454 22.0952C82.1354 22.1294 81.9035 22.1465 81.6496 22.1465C81.1857 22.1465 80.7804 22.0708 80.4338 21.9194C80.092 21.7632 79.8283 21.5142 79.6428 21.1724C79.4572 20.8306 79.3644 20.3813 79.3644 19.8247V12.1196ZM83.6899 18.1182V17.9644C83.6899 17.3833 83.7729 16.8486 83.939 16.3604C84.105 15.8672 84.3467 15.4399 84.6641 15.0786C84.9814 14.7173 85.3721 14.4365 85.8359 14.2363C86.2998 14.0312 86.832 13.9287 87.4326 13.9287C88.0332 13.9287 88.5679 14.0312 89.0366 14.2363C89.5054 14.4365 89.8984 14.7173 90.2158 15.0786C90.5381 15.4399 90.7822 15.8672 90.9482 16.3604C91.1143 16.8486 91.1973 17.3833 91.1973 17.9644V18.1182C91.1973 18.6943 91.1143 19.229 90.9482 19.7222C90.7822 20.2104 90.5381 20.6377 90.2158 21.0039C89.8984 21.3652 89.5078 21.646 89.0439 21.8462C88.5801 22.0464 88.0479 22.1465 87.4473 22.1465C86.8467 22.1465 86.312 22.0464 85.8433 21.8462C85.3794 21.646 84.9863 21.3652 84.6641 21.0039C84.3467 20.6377 84.105 20.2104 83.939 19.7222C83.7729 19.229 83.6899 18.6943 83.6899 18.1182ZM85.7993 17.9644V18.1182C85.7993 18.4502 85.8286 18.7603 85.8872 19.0483C85.9458 19.3364 86.0386 19.5903 86.1655 19.8101C86.2974 20.0249 86.4683 20.1934 86.6782 20.3154C86.8882 20.4375 87.1445 20.4985 87.4473 20.4985C87.7402 20.4985 87.9917 20.4375 88.2017 20.3154C88.4116 20.1934 88.5801 20.0249 88.707 19.8101C88.834 19.5903 88.9268 19.3364 88.9854 19.0483C89.0488 18.7603 89.0806 18.4502 89.0806 18.1182V17.9644C89.0806 17.6421 89.0488 17.3394 88.9854 17.0562C88.9268 16.7681 88.8315 16.5142 88.6997 16.2944C88.5728 16.0698 88.4043 15.894 88.1943 15.7671C87.9844 15.6401 87.7305 15.5767 87.4326 15.5767C87.1348 15.5767 86.8809 15.6401 86.6709 15.7671C86.4658 15.894 86.2974 16.0698 86.1655 16.2944C86.0386 16.5142 85.9458 16.7681 85.8872 17.0562C85.8286 17.3394 85.7993 17.6421 85.7993 17.9644ZM98.3572 19.2095C98.3572 19.019 98.3279 18.8481 98.2694 18.6968C98.2156 18.5405 98.1131 18.3989 97.9617 18.272C97.8104 18.1401 97.598 18.0107 97.3245 17.8838C97.0511 17.7568 96.6971 17.625 96.2625 17.4883C95.7791 17.332 95.3201 17.1562 94.8856 16.9609C94.4559 16.7656 94.075 16.5386 93.743 16.2798C93.4158 16.0161 93.1571 15.7109 92.9666 15.3643C92.7811 15.0176 92.6883 14.6147 92.6883 14.1558C92.6883 13.7114 92.786 13.3086 92.9813 12.9473C93.1766 12.5811 93.45 12.2686 93.8016 12.0098C94.1531 11.7461 94.5682 11.5435 95.0467 11.4019C95.5301 11.2603 96.0599 11.1895 96.6361 11.1895C97.4222 11.1895 98.1082 11.3311 98.6942 11.6143C99.2801 11.8975 99.7342 12.2856 100.056 12.7788C100.384 13.272 100.547 13.8359 100.547 14.4707H98.3646C98.3646 14.1582 98.2987 13.8848 98.1668 13.6504C98.0399 13.4111 97.8446 13.2231 97.5809 13.0864C97.3221 12.9497 96.9949 12.8813 96.5994 12.8813C96.2186 12.8813 95.9012 12.9399 95.6473 13.0571C95.3934 13.1694 95.2029 13.3232 95.076 13.5186C94.949 13.709 94.8856 13.9238 94.8856 14.1631C94.8856 14.3438 94.9295 14.5073 95.0174 14.6538C95.1102 14.8003 95.2469 14.937 95.4276 15.064C95.6082 15.1909 95.8304 15.3105 96.0941 15.4229C96.3577 15.5352 96.6629 15.645 97.0096 15.7524C97.5906 15.9282 98.1009 16.126 98.5404 16.3457C98.9847 16.5654 99.3558 16.812 99.6536 17.0854C99.9515 17.3589 100.176 17.6689 100.327 18.0156C100.479 18.3623 100.555 18.7554 100.555 19.1948C100.555 19.6587 100.464 20.0737 100.284 20.4399C100.103 20.8062 99.8416 21.1162 99.4998 21.3701C99.158 21.624 98.7503 21.8169 98.2767 21.9487C97.803 22.0806 97.2733 22.1465 96.6873 22.1465C96.16 22.1465 95.64 22.0781 95.1273 21.9414C94.6146 21.7998 94.1483 21.5874 93.7283 21.3042C93.3133 21.021 92.9813 20.6597 92.7322 20.2202C92.4832 19.7808 92.3587 19.2607 92.3587 18.6602H94.5633C94.5633 18.9922 94.6146 19.2729 94.7171 19.5024C94.8196 19.7319 94.9637 19.9175 95.1492 20.0591C95.3397 20.2007 95.5643 20.3032 95.8231 20.3667C96.0867 20.4302 96.3748 20.4619 96.6873 20.4619C97.0682 20.4619 97.3807 20.4082 97.6248 20.3008C97.8738 20.1934 98.057 20.0444 98.1741 19.854C98.2962 19.6636 98.3572 19.4487 98.3572 19.2095ZM104.155 10.75V22H102.046V10.75H104.155ZM103.855 17.7593H103.276C103.281 17.2075 103.354 16.6997 103.496 16.2358C103.637 15.7671 103.84 15.3618 104.104 15.02C104.367 14.6733 104.682 14.4048 105.048 14.2144C105.42 14.0239 105.83 13.9287 106.279 13.9287C106.67 13.9287 107.024 13.9849 107.341 14.0972C107.663 14.2046 107.939 14.3804 108.169 14.6245C108.403 14.8638 108.584 15.1787 108.711 15.5693C108.838 15.96 108.901 16.4336 108.901 16.9902V22H106.777V16.9756C106.777 16.624 106.726 16.3481 106.623 16.1479C106.526 15.9429 106.381 15.7988 106.191 15.7158C106.006 15.6279 105.776 15.584 105.503 15.584C105.2 15.584 104.941 15.6401 104.726 15.7524C104.516 15.8647 104.348 16.021 104.221 16.2212C104.094 16.4165 104.001 16.646 103.943 16.9097C103.884 17.1733 103.855 17.4565 103.855 17.7593ZM110.348 18.1182V17.9644C110.348 17.3833 110.431 16.8486 110.597 16.3604C110.763 15.8672 111.005 15.4399 111.322 15.0786C111.64 14.7173 112.03 14.4365 112.494 14.2363C112.958 14.0312 113.49 13.9287 114.091 13.9287C114.691 13.9287 115.226 14.0312 115.695 14.2363C116.164 14.4365 116.557 14.7173 116.874 15.0786C117.196 15.4399 117.44 15.8672 117.606 16.3604C117.772 16.8486 117.855 17.3833 117.855 17.9644V18.1182C117.855 18.6943 117.772 19.229 117.606 19.7222C117.44 20.2104 117.196 20.6377 116.874 21.0039C116.557 21.3652 116.166 21.646 115.702 21.8462C115.238 22.0464 114.706 22.1465 114.105 22.1465C113.505 22.1465 112.97 22.0464 112.501 21.8462C112.038 21.646 111.644 21.3652 111.322 21.0039C111.005 20.6377 110.763 20.2104 110.597 19.7222C110.431 19.229 110.348 18.6943 110.348 18.1182ZM112.457 17.9644V18.1182C112.457 18.4502 112.487 18.7603 112.545 19.0483C112.604 19.3364 112.697 19.5903 112.824 19.8101C112.956 20.0249 113.126 20.1934 113.336 20.3154C113.546 20.4375 113.803 20.4985 114.105 20.4985C114.398 20.4985 114.65 20.4375 114.86 20.3154C115.07 20.1934 115.238 20.0249 115.365 19.8101C115.492 19.5903 115.585 19.3364 115.644 19.0483C115.707 18.7603 115.739 18.4502 115.739 18.1182V17.9644C115.739 17.6421 115.707 17.3394 115.644 17.0562C115.585 16.7681 115.49 16.5142 115.358 16.2944C115.231 16.0698 115.062 15.894 114.852 15.7671C114.643 15.6401 114.389 15.5767 114.091 15.5767C113.793 15.5767 113.539 15.6401 113.329 15.7671C113.124 15.894 112.956 16.0698 112.824 16.2944C112.697 16.5142 112.604 16.7681 112.545 17.0562C112.487 17.3394 112.457 17.6421 112.457 17.9644ZM121.441 15.5986V25.0469H119.332V14.0752H121.287L121.441 15.5986ZM126.458 17.9497V18.1035C126.458 18.6797 126.39 19.2144 126.253 19.7075C126.121 20.2007 125.926 20.6304 125.667 20.9966C125.408 21.3579 125.086 21.6411 124.7 21.8462C124.32 22.0464 123.88 22.1465 123.382 22.1465C122.899 22.1465 122.479 22.0488 122.122 21.8535C121.766 21.6582 121.466 21.3848 121.221 21.0332C120.982 20.6768 120.789 20.2642 120.643 19.7954C120.496 19.3267 120.384 18.8237 120.306 18.2866V17.8838C120.384 17.3076 120.496 16.7803 120.643 16.3018C120.789 15.8184 120.982 15.4009 121.221 15.0493C121.466 14.6929 121.763 14.417 122.115 14.2217C122.471 14.0264 122.889 13.9287 123.367 13.9287C123.87 13.9287 124.312 14.0239 124.693 14.2144C125.079 14.4048 125.401 14.6782 125.66 15.0347C125.924 15.3911 126.121 15.8159 126.253 16.3091C126.39 16.8022 126.458 17.3491 126.458 17.9497ZM124.342 18.1035V17.9497C124.342 17.6128 124.312 17.3027 124.254 17.0195C124.2 16.7314 124.112 16.48 123.99 16.2651C123.873 16.0503 123.717 15.8843 123.521 15.7671C123.331 15.645 123.099 15.584 122.825 15.584C122.537 15.584 122.291 15.6304 122.086 15.7231C121.886 15.8159 121.722 15.9502 121.595 16.126C121.468 16.3018 121.373 16.5117 121.309 16.7559C121.246 17 121.207 17.2759 121.192 17.5835V18.6016C121.217 18.9629 121.285 19.2876 121.397 19.5757C121.51 19.8589 121.683 20.0835 121.917 20.2495C122.152 20.4155 122.459 20.4985 122.84 20.4985C123.118 20.4985 123.353 20.4375 123.543 20.3154C123.734 20.1885 123.887 20.0151 124.005 19.7954C124.127 19.5757 124.212 19.3218 124.261 19.0337C124.315 18.7456 124.342 18.4355 124.342 18.1035Z" fill="#32B7DE"/>
<path d="M142 0H5C2.23858 0 0 2.23858 0 5V27C0 29.7614 2.23858 32 5 32H142C144.761 32 147 29.7614 147 27V5C147 2.23858 144.761 0 142 0Z" fill="url(#paint0_linear_30_75)"/>
<defs>
<linearGradient id="paint0_linear_30_75" x1="0" y1="0" x2="0" y2="32" gradientUnits="userSpaceOnUse">
<stop stop-color="#BBBBBB" stop-opacity="0.1"/>
<stop offset="1" stop-opacity="0.1"/>
</linearGradient>
</defs>
</svg>
